G04 #@! TF.GenerationSoftware,KiCad,Pcbnew,(5.1.0)-1*
G04 #@! TF.CreationDate,2020-02-16T21:22:29+11:00*
G04 #@! TF.ProjectId,BLDC_4,424c4443-5f34-42e6-9b69-6361645f7063,A*
G04 #@! TF.SameCoordinates,Original*
G04 #@! TF.FileFunction,Paste,Top*
G04 #@! TF.FilePolarity,Positive*
%FSLAX46Y46*%
G04 Gerber Fmt 4.6, Leading zero omitted, Abs format (unit mm)*
G04 Created by KiCad (PCBNEW (5.1.0)-1) date 2020-02-16 21:22:29*
%MOMM*%
%LPD*%
G04 APERTURE LIST*
%ADD10R,3.200400X0.899160*%
%ADD11R,8.150860X10.800080*%
%ADD12R,5.499100X1.849120*%
%ADD13R,7.498080X2.997200*%
%ADD14R,4.000000X5.000000*%
%ADD15R,0.300000X1.300480*%
%ADD16R,1.300480X0.300000*%
%ADD17R,3.599180X7.000240*%
%ADD18R,1.501140X0.299720*%
%ADD19R,2.032000X1.524000*%
%ADD20R,1.524000X2.032000*%
%ADD21R,1.143000X0.635000*%
%ADD22R,0.635000X1.143000*%
%ADD23R,0.599440X1.399540*%
%ADD24R,2.000000X2.200000*%
%ADD25R,2.400000X2.200000*%
%ADD26R,0.500000X1.500000*%
%ADD27C,0.635000*%
%ADD28C,0.150000*%
G04 APERTURE END LIST*
D10*
X91753540Y-43899000D03*
X91753540Y-45169000D03*
X91753540Y-46439000D03*
X91753540Y-48979000D03*
X91753540Y-50249000D03*
X91753540Y-51519000D03*
D11*
X81151580Y-47709000D03*
D12*
X73082000Y-51229440D03*
X73082000Y-56380560D03*
D13*
X63938000Y-49400640D03*
X63938000Y-54399360D03*
D14*
X96196000Y-48090000D03*
X96196000Y-60790000D03*
X96196000Y-72474000D03*
D10*
X91753540Y-69934000D03*
X91753540Y-71204000D03*
X91753540Y-72474000D03*
X91753540Y-75014000D03*
X91753540Y-76284000D03*
X91753540Y-77554000D03*
D11*
X81151580Y-73744000D03*
D10*
X91753540Y-57107000D03*
X91753540Y-58377000D03*
X91753540Y-59647000D03*
X91753540Y-62187000D03*
X91753540Y-63457000D03*
X91753540Y-64727000D03*
D11*
X81151580Y-60917000D03*
D15*
X44186960Y-58087440D03*
X44684800Y-58087440D03*
X45185180Y-58087440D03*
X45685560Y-58087440D03*
X46185940Y-58087440D03*
D16*
X53686560Y-60088960D03*
X53686560Y-60586800D03*
X53686560Y-61087180D03*
X53686560Y-61587560D03*
X53686560Y-62087940D03*
D15*
X51685040Y-69588560D03*
X51187200Y-69588560D03*
X50686820Y-69588560D03*
X50186440Y-69588560D03*
X49686060Y-69588560D03*
D16*
X42185440Y-67587040D03*
X42185440Y-67089200D03*
X42185440Y-66588820D03*
X42185440Y-66088440D03*
X42185440Y-65588060D03*
D15*
X46686320Y-58087440D03*
X47186700Y-58087440D03*
X47687080Y-58087440D03*
D16*
X53686560Y-62588320D03*
X53686560Y-63088700D03*
X53686560Y-63589080D03*
D15*
X49185680Y-69588560D03*
X48685300Y-69588560D03*
X48184920Y-69588560D03*
D16*
X42185440Y-65087680D03*
X42185440Y-64587300D03*
X42185440Y-64086920D03*
D15*
X48184920Y-58087440D03*
X48685300Y-58087440D03*
X49185680Y-58087440D03*
X49686060Y-58087440D03*
X50186440Y-58087440D03*
X50686820Y-58087440D03*
X51187200Y-58087440D03*
X51685040Y-58087440D03*
D16*
X53686560Y-64086920D03*
X53686560Y-64587300D03*
X53686560Y-65087680D03*
X53686560Y-65588060D03*
X53686560Y-66088440D03*
X53686560Y-66588820D03*
X53686560Y-67089200D03*
X53686560Y-67587040D03*
D15*
X47687080Y-69588560D03*
X47186700Y-69588560D03*
X46686320Y-69588560D03*
X46185940Y-69588560D03*
X45685560Y-69588560D03*
X45185180Y-69588560D03*
X44684800Y-69588560D03*
X44186960Y-69588560D03*
D16*
X42185440Y-61087180D03*
X42185440Y-60586800D03*
X42185440Y-60088960D03*
X42185440Y-63589080D03*
X42185440Y-63088700D03*
X42185440Y-62588320D03*
X42185440Y-62087940D03*
X42185440Y-61587560D03*
D17*
X63176000Y-64854000D03*
D18*
X67176500Y-58158560D03*
X67176500Y-58656400D03*
X67176500Y-59156780D03*
X67176500Y-59657160D03*
X67176500Y-60157540D03*
X67176500Y-60657920D03*
X67176500Y-61158300D03*
X67176500Y-61656140D03*
X59175500Y-71656120D03*
X59175500Y-71158280D03*
X59175500Y-70657900D03*
X59175500Y-70157520D03*
X59175500Y-63157280D03*
X59175500Y-62656900D03*
X59175500Y-62156520D03*
X59175500Y-61656140D03*
X59175500Y-61158300D03*
X59175500Y-60657920D03*
X59175500Y-60157540D03*
X59175500Y-59657160D03*
X59175500Y-59156780D03*
X59175500Y-58656400D03*
X59175500Y-58158560D03*
X59175500Y-69657140D03*
X59175500Y-69156760D03*
X59175500Y-68656380D03*
X59175500Y-68158540D03*
X59175500Y-67658160D03*
X59175500Y-67157780D03*
X59175500Y-66657400D03*
X67176500Y-70157520D03*
X59175500Y-65656640D03*
X59175500Y-65156260D03*
X59175500Y-64658420D03*
X59175500Y-64158040D03*
X59175500Y-63657660D03*
X67176500Y-67658160D03*
X67176500Y-68158540D03*
X67176500Y-68656380D03*
X67176500Y-69156760D03*
X67176500Y-69657140D03*
X59175500Y-66157020D03*
X67176500Y-70657900D03*
X67176500Y-71158280D03*
X67176500Y-71656120D03*
X67176500Y-62156520D03*
X67176500Y-62656900D03*
X67176500Y-63157280D03*
X67176500Y-63657660D03*
X67176500Y-64158040D03*
X67176500Y-64658420D03*
X67176500Y-65156260D03*
X67176500Y-65656640D03*
X67176500Y-66157020D03*
X67176500Y-66657400D03*
X67176500Y-67157780D03*
D19*
X72955000Y-62187000D03*
X72955000Y-58885000D03*
X75495000Y-62187000D03*
X75495000Y-58885000D03*
D20*
X64954000Y-73998000D03*
X61652000Y-73998000D03*
D21*
X76130000Y-78824000D03*
X76130000Y-77300000D03*
D22*
X50730000Y-74760000D03*
X49206000Y-74760000D03*
D21*
X58604000Y-50884000D03*
X58604000Y-49360000D03*
X58604000Y-53424000D03*
X58604000Y-51900000D03*
X55302000Y-58758000D03*
X55302000Y-57234000D03*
D22*
X55556000Y-60028000D03*
X57080000Y-60028000D03*
D21*
X68764000Y-56853000D03*
X68764000Y-55329000D03*
D22*
X95942000Y-77808000D03*
X94418000Y-77808000D03*
X88322000Y-67394000D03*
X89846000Y-67394000D03*
X89465000Y-54440000D03*
X90989000Y-54440000D03*
X71558000Y-69807000D03*
X73082000Y-69807000D03*
X71558000Y-71331000D03*
X73082000Y-71331000D03*
X71558000Y-72855000D03*
X73082000Y-72855000D03*
X71558000Y-74379000D03*
X73082000Y-74379000D03*
D21*
X51450000Y-50638000D03*
X51450000Y-52162000D03*
X53000000Y-50638000D03*
X53000000Y-52162000D03*
X56500000Y-48238000D03*
X56500000Y-49762000D03*
D23*
X49855000Y-54467000D03*
X48585000Y-54467000D03*
X47315000Y-54467000D03*
X49855000Y-49133000D03*
X48585000Y-49133000D03*
X47315000Y-49133000D03*
X46045000Y-54467000D03*
X46045000Y-49133000D03*
D24*
X46850000Y-42925000D03*
X55550000Y-42925000D03*
D25*
X46650000Y-46000000D03*
X55750000Y-46000000D03*
D26*
X52800000Y-47200000D03*
X52000000Y-47200000D03*
X51200000Y-47200000D03*
X50400000Y-47200000D03*
X49600000Y-47200000D03*
D22*
X47288000Y-56000000D03*
X48812000Y-56000000D03*
X51746000Y-74760000D03*
X53270000Y-74760000D03*
D21*
X70288000Y-74252000D03*
X70288000Y-72728000D03*
X41840000Y-59139000D03*
X41840000Y-57615000D03*
X70288000Y-71458000D03*
X70288000Y-69934000D03*
X70923000Y-66378000D03*
X70923000Y-67902000D03*
X73590000Y-63965000D03*
X73590000Y-65489000D03*
X70796000Y-61679000D03*
X70796000Y-63203000D03*
X69526000Y-58631000D03*
X69526000Y-60155000D03*
X57080000Y-71839000D03*
X57080000Y-73363000D03*
X56318000Y-66251000D03*
X56318000Y-64727000D03*
D22*
X55302000Y-55964000D03*
X56826000Y-55964000D03*
D21*
X56826000Y-58758000D03*
X56826000Y-57234000D03*
D22*
X52508000Y-56091000D03*
X50984000Y-56091000D03*
X57080000Y-61552000D03*
X55556000Y-61552000D03*
D27*
X46950815Y-74663815D03*
D28*
G36*
X46322197Y-74843420D02*
G01*
X47130420Y-74035197D01*
X47579433Y-74484210D01*
X46771210Y-75292433D01*
X46322197Y-74843420D01*
X46322197Y-74843420D01*
G37*
D27*
X45873185Y-73586185D03*
D28*
G36*
X45244567Y-73765790D02*
G01*
X46052790Y-72957567D01*
X46501803Y-73406580D01*
X45693580Y-74214803D01*
X45244567Y-73765790D01*
X45244567Y-73765790D01*
G37*
D22*
X52127000Y-71331000D03*
X53651000Y-71331000D03*
M02*
