G04 #@! TF.GenerationSoftware,KiCad,Pcbnew,(5.1.0)-1*
G04 #@! TF.CreationDate,2020-02-16T21:22:29+11:00*
G04 #@! TF.ProjectId,BLDC_4,424c4443-5f34-42e6-9b69-6361645f7063,A*
G04 #@! TF.SameCoordinates,Original*
G04 #@! TF.FileFunction,Copper,L2,Inr*
G04 #@! TF.FilePolarity,Positive*
%FSLAX46Y46*%
G04 Gerber Fmt 4.6, Leading zero omitted, Abs format (unit mm)*
G04 Created by KiCad (PCBNEW (5.1.0)-1) date 2020-02-16 21:22:29*
%MOMM*%
%LPD*%
G04 APERTURE LIST*
%ADD10C,2.895000*%
%ADD11C,1.268000*%
%ADD12R,1.268000X1.268000*%
%ADD13C,1.300480*%
%ADD14O,1.198880X1.699260*%
%ADD15R,1.198880X1.699260*%
%ADD16O,3.048000X1.524000*%
%ADD17R,1.300000X1.300000*%
%ADD18C,1.300000*%
%ADD19O,3.300000X2.700000*%
%ADD20C,0.150000*%
%ADD21C,2.700000*%
%ADD22C,0.800000*%
%ADD23C,0.889000*%
%ADD24C,1.524000*%
%ADD25C,1.016000*%
%ADD26C,1.270000*%
%ADD27C,0.635000*%
%ADD28C,0.508000*%
%ADD29C,0.304800*%
%ADD30C,0.254000*%
G04 APERTURE END LIST*
D10*
X22594999Y-75310001D03*
X22594999Y-91560001D03*
D11*
X34534999Y-87880001D03*
X31994999Y-86610001D03*
X34534999Y-85340001D03*
X31994999Y-84070001D03*
X34534999Y-82800001D03*
X31994999Y-81530001D03*
X34534999Y-80260001D03*
D12*
X31994999Y-78990001D03*
D13*
X41800000Y-45098740D03*
X41800000Y-47100260D03*
X41800000Y-55101260D03*
X41800000Y-53099740D03*
X41800000Y-51100760D03*
X41800000Y-49099240D03*
D14*
X65273740Y-43450000D03*
X61273240Y-43450000D03*
X63274760Y-43450000D03*
D15*
X59271720Y-43450000D03*
D13*
X52746760Y-77300000D03*
X50745240Y-77300000D03*
X48746260Y-77300000D03*
X46744740Y-77300000D03*
X54745740Y-77300000D03*
X56747260Y-77300000D03*
D16*
X42602000Y-76792000D03*
X42602000Y-74252000D03*
X42602000Y-71712000D03*
D17*
X60981440Y-77300000D03*
D18*
X64984480Y-77300000D03*
X62982960Y-77300000D03*
X66983460Y-77300000D03*
X68984980Y-77300000D03*
X70986500Y-77300000D03*
X72985480Y-77300000D03*
D19*
X26250000Y-64770000D03*
D20*
G36*
X33174503Y-63421204D02*
G01*
X33198772Y-63424804D01*
X33222570Y-63430765D01*
X33245670Y-63439030D01*
X33267849Y-63449520D01*
X33288892Y-63462133D01*
X33308598Y-63476748D01*
X33326776Y-63493224D01*
X33343252Y-63511402D01*
X33357867Y-63531108D01*
X33370480Y-63552151D01*
X33380970Y-63574330D01*
X33389235Y-63597430D01*
X33395196Y-63621228D01*
X33398796Y-63645497D01*
X33400000Y-63670001D01*
X33400000Y-65869999D01*
X33398796Y-65894503D01*
X33395196Y-65918772D01*
X33389235Y-65942570D01*
X33380970Y-65965670D01*
X33370480Y-65987849D01*
X33357867Y-66008892D01*
X33343252Y-66028598D01*
X33326776Y-66046776D01*
X33308598Y-66063252D01*
X33288892Y-66077867D01*
X33267849Y-66090480D01*
X33245670Y-66100970D01*
X33222570Y-66109235D01*
X33198772Y-66115196D01*
X33174503Y-66118796D01*
X33149999Y-66120000D01*
X30350001Y-66120000D01*
X30325497Y-66118796D01*
X30301228Y-66115196D01*
X30277430Y-66109235D01*
X30254330Y-66100970D01*
X30232151Y-66090480D01*
X30211108Y-66077867D01*
X30191402Y-66063252D01*
X30173224Y-66046776D01*
X30156748Y-66028598D01*
X30142133Y-66008892D01*
X30129520Y-65987849D01*
X30119030Y-65965670D01*
X30110765Y-65942570D01*
X30104804Y-65918772D01*
X30101204Y-65894503D01*
X30100000Y-65869999D01*
X30100000Y-63670001D01*
X30101204Y-63645497D01*
X30104804Y-63621228D01*
X30110765Y-63597430D01*
X30119030Y-63574330D01*
X30129520Y-63552151D01*
X30142133Y-63531108D01*
X30156748Y-63511402D01*
X30173224Y-63493224D01*
X30191402Y-63476748D01*
X30211108Y-63462133D01*
X30232151Y-63449520D01*
X30254330Y-63439030D01*
X30277430Y-63430765D01*
X30301228Y-63424804D01*
X30325497Y-63421204D01*
X30350001Y-63420000D01*
X33149999Y-63420000D01*
X33174503Y-63421204D01*
X33174503Y-63421204D01*
G37*
D21*
X31750000Y-64770000D03*
D20*
G36*
X33174503Y-48181204D02*
G01*
X33198772Y-48184804D01*
X33222570Y-48190765D01*
X33245670Y-48199030D01*
X33267849Y-48209520D01*
X33288892Y-48222133D01*
X33308598Y-48236748D01*
X33326776Y-48253224D01*
X33343252Y-48271402D01*
X33357867Y-48291108D01*
X33370480Y-48312151D01*
X33380970Y-48334330D01*
X33389235Y-48357430D01*
X33395196Y-48381228D01*
X33398796Y-48405497D01*
X33400000Y-48430001D01*
X33400000Y-50629999D01*
X33398796Y-50654503D01*
X33395196Y-50678772D01*
X33389235Y-50702570D01*
X33380970Y-50725670D01*
X33370480Y-50747849D01*
X33357867Y-50768892D01*
X33343252Y-50788598D01*
X33326776Y-50806776D01*
X33308598Y-50823252D01*
X33288892Y-50837867D01*
X33267849Y-50850480D01*
X33245670Y-50860970D01*
X33222570Y-50869235D01*
X33198772Y-50875196D01*
X33174503Y-50878796D01*
X33149999Y-50880000D01*
X30350001Y-50880000D01*
X30325497Y-50878796D01*
X30301228Y-50875196D01*
X30277430Y-50869235D01*
X30254330Y-50860970D01*
X30232151Y-50850480D01*
X30211108Y-50837867D01*
X30191402Y-50823252D01*
X30173224Y-50806776D01*
X30156748Y-50788598D01*
X30142133Y-50768892D01*
X30129520Y-50747849D01*
X30119030Y-50725670D01*
X30110765Y-50702570D01*
X30104804Y-50678772D01*
X30101204Y-50654503D01*
X30100000Y-50629999D01*
X30100000Y-48430001D01*
X30101204Y-48405497D01*
X30104804Y-48381228D01*
X30110765Y-48357430D01*
X30119030Y-48334330D01*
X30129520Y-48312151D01*
X30142133Y-48291108D01*
X30156748Y-48271402D01*
X30173224Y-48253224D01*
X30191402Y-48236748D01*
X30211108Y-48222133D01*
X30232151Y-48209520D01*
X30254330Y-48199030D01*
X30277430Y-48190765D01*
X30301228Y-48184804D01*
X30325497Y-48181204D01*
X30350001Y-48180000D01*
X33149999Y-48180000D01*
X33174503Y-48181204D01*
X33174503Y-48181204D01*
G37*
D21*
X31750000Y-49530000D03*
D19*
X26250000Y-49530000D03*
D22*
X1270000Y-16510000D03*
X61271000Y-51900000D03*
X60200000Y-51900000D03*
X51200000Y-42400000D03*
X64065000Y-48979000D03*
X60763000Y-64473000D03*
X46158000Y-65870000D03*
X54382994Y-70817006D03*
D23*
X68509988Y-53551000D03*
D22*
X63811000Y-66759000D03*
X65778416Y-66709331D03*
X43413482Y-61512630D03*
X56544032Y-72782385D03*
X56315782Y-54823218D03*
X59620000Y-73871000D03*
X60636000Y-73871000D03*
X62160000Y-61552000D03*
X55937000Y-60028000D03*
X61525000Y-62314000D03*
X50446706Y-56321003D03*
X57100000Y-43600000D03*
X52800000Y-49300000D03*
X47328655Y-53255293D03*
X47301000Y-51138000D03*
X66200000Y-44800000D03*
D24*
X75749000Y-56472000D03*
X74225000Y-56472000D03*
D22*
X47895501Y-47928238D03*
D24*
X75749000Y-57996000D03*
X74225000Y-57996000D03*
X72701000Y-56472000D03*
X72701000Y-57996000D03*
D22*
X46268515Y-62187000D03*
X41459000Y-56472000D03*
X45650000Y-60028000D03*
X50669565Y-71286870D03*
X52400000Y-60350000D03*
X56445000Y-63831698D03*
X55665747Y-63132231D03*
X57461000Y-68537000D03*
X64065000Y-54948000D03*
X64065000Y-53805000D03*
X44808094Y-62374925D03*
X58477000Y-57615000D03*
X48900000Y-46900000D03*
X51365000Y-59901000D03*
X50857000Y-61171000D03*
X47682000Y-75394988D03*
X51514883Y-72135117D03*
X52567107Y-69044996D03*
X59600000Y-54200000D03*
X49400000Y-55850000D03*
X41840000Y-58631000D03*
X56699000Y-61552000D03*
X52600000Y-58850000D03*
X43237751Y-70200501D03*
X68307589Y-74049589D03*
X79686000Y-79078000D03*
D24*
X68256000Y-43010000D03*
D22*
X78670000Y-79078000D03*
X53700000Y-46900000D03*
X65589000Y-74125000D03*
X65589000Y-56980000D03*
D24*
X71812000Y-46566000D03*
X73590000Y-46566000D03*
X73590000Y-44788000D03*
X73590000Y-43010000D03*
X71812000Y-44788000D03*
X71812000Y-43010000D03*
X70034000Y-43010000D03*
X70034000Y-44788000D03*
X70034000Y-46566000D03*
X68256000Y-46566000D03*
X68256000Y-44788000D03*
D22*
X64954000Y-59647000D03*
X77700000Y-79100000D03*
X40914180Y-64600000D03*
X50700000Y-45600000D03*
X48356262Y-67310799D03*
X68509988Y-63203000D03*
D24*
X92132000Y-73744000D03*
X90354000Y-73744000D03*
X92132000Y-75522000D03*
X90354000Y-75522000D03*
X92132000Y-69934000D03*
X90354000Y-69934000D03*
X92132000Y-71966000D03*
X90354000Y-71966000D03*
X88576000Y-69934000D03*
X88576000Y-71966000D03*
X88576000Y-73744000D03*
X88576000Y-75522000D03*
D22*
X53905000Y-49741000D03*
D24*
X97466000Y-74252000D03*
X97466000Y-72474000D03*
X97466000Y-70696000D03*
D22*
X75368000Y-68410000D03*
X55400000Y-54200000D03*
D24*
X88322000Y-56980000D03*
X88322000Y-58758000D03*
X88322000Y-60790000D03*
X88322000Y-62822000D03*
X90100000Y-62822000D03*
X90100000Y-60790000D03*
X90100000Y-58758000D03*
X91878000Y-60790000D03*
X91878000Y-62822000D03*
X91878000Y-56980000D03*
X91878000Y-58758000D03*
X90100000Y-56980000D03*
X97466000Y-59139000D03*
X97466000Y-60790000D03*
X97466000Y-62441000D03*
D22*
X74999734Y-67500000D03*
X50732522Y-49500000D03*
D24*
X88068000Y-44026000D03*
X88068000Y-45804000D03*
X88068000Y-47582000D03*
X88068000Y-49360000D03*
X89846000Y-49360000D03*
X89846000Y-47582000D03*
X89846000Y-45804000D03*
X89846000Y-44026000D03*
X91878000Y-44026000D03*
X91878000Y-45804000D03*
X91878000Y-47582000D03*
X91878000Y-49360000D03*
D23*
X92132000Y-54440000D03*
D24*
X97466000Y-46312000D03*
X97466000Y-48090000D03*
X97466000Y-49868000D03*
D22*
X65716000Y-64473000D03*
D23*
X75274943Y-71003411D03*
D22*
X72153657Y-68291353D03*
D23*
X87687000Y-54440000D03*
D22*
X50750000Y-54300000D03*
X41713000Y-70061000D03*
X52508000Y-53932000D03*
X42857150Y-68792150D03*
D23*
X97085000Y-77808000D03*
D22*
X65788603Y-62012291D03*
X74883178Y-75483130D03*
X65764639Y-63441730D03*
X54413000Y-54440000D03*
X40914180Y-66632000D03*
X76492783Y-68537509D03*
D23*
X87306000Y-67394000D03*
X77031720Y-66937763D03*
D22*
X65754799Y-65596601D03*
X65706383Y-70051383D03*
D23*
X88830000Y-54313000D03*
D22*
X69430780Y-68383273D03*
D23*
X77019000Y-54440000D03*
D22*
X73131096Y-68264351D03*
X69780000Y-53424000D03*
X74174399Y-68266323D03*
X70542000Y-52789000D03*
X74098000Y-74506000D03*
X72453302Y-74029780D03*
X60624717Y-63505015D03*
X53741489Y-68181969D03*
X52352639Y-68090994D03*
X60763000Y-70061000D03*
X51483242Y-67643484D03*
X60636000Y-67902000D03*
X60636000Y-66885996D03*
X51111000Y-66632000D03*
X51365000Y-63203000D03*
X60636000Y-65489000D03*
X60950000Y-59450000D03*
X49587000Y-59520000D03*
X52381000Y-63584000D03*
X57588000Y-66378000D03*
X51700000Y-53200000D03*
X52350000Y-61850000D03*
X49630467Y-56859398D03*
X46300000Y-56605312D03*
X46322574Y-52453446D03*
X55100000Y-51100000D03*
X49347710Y-51292526D03*
X48444000Y-72474000D03*
X49612133Y-72849234D03*
X46400000Y-47900000D03*
X46793000Y-66632000D03*
X50843780Y-65489000D03*
X68580000Y-81658391D03*
X50421418Y-64473000D03*
X71120000Y-81280000D03*
X46412000Y-67775000D03*
X48063000Y-66377992D03*
D25*
X60968740Y-77300000D02*
X59366000Y-77300000D01*
X45142000Y-77935000D02*
X45142000Y-75395000D01*
X46031000Y-78824000D02*
X45142000Y-77935000D01*
X57842000Y-78824000D02*
X46031000Y-78824000D01*
X59366000Y-77300000D02*
X57842000Y-78824000D01*
X45142000Y-75395000D02*
X43999000Y-74252000D01*
X43999000Y-74252000D02*
X42602000Y-74252000D01*
D26*
X51200000Y-43518000D02*
X55302000Y-43518000D01*
X55302000Y-43518000D02*
X61271000Y-49487000D01*
X61271000Y-49487000D02*
X61271000Y-51900000D01*
X41800000Y-45098740D02*
X43696337Y-45103522D01*
D27*
X61271000Y-51900000D02*
X60200000Y-51900000D01*
D26*
X45282000Y-43518000D02*
X43696478Y-45103522D01*
X43696478Y-45103522D02*
X43696337Y-45103522D01*
X51200000Y-43518000D02*
X45282000Y-43518000D01*
D28*
X51200000Y-42400000D02*
X51200000Y-43518000D01*
D26*
X74225000Y-56472000D02*
X72701000Y-56472000D01*
D29*
X50951101Y-62345799D02*
X51650799Y-62345799D01*
X48576321Y-56673679D02*
X48576321Y-59971019D01*
X48576321Y-59971019D02*
X50951101Y-62345799D01*
X56133315Y-61552000D02*
X56699000Y-61552000D01*
X55105114Y-62580201D02*
X56133315Y-61552000D01*
X51885201Y-62580201D02*
X55105114Y-62580201D01*
X51650799Y-62345799D02*
X51885201Y-62580201D01*
X49400000Y-55850000D02*
X48576321Y-56673679D01*
X47682000Y-74829303D02*
X47682000Y-75394988D01*
X47682000Y-74079065D02*
X47682000Y-74829303D01*
X43237751Y-70200501D02*
X43803436Y-70200501D01*
X51514883Y-72135117D02*
X48255012Y-75394988D01*
X48247685Y-75394988D02*
X47682000Y-75394988D01*
X48255012Y-75394988D02*
X48247685Y-75394988D01*
X43803436Y-70200501D02*
X47682000Y-74079065D01*
X51582377Y-72135117D02*
X51514883Y-72135117D01*
X56747260Y-77300000D02*
X51582377Y-72135117D01*
X52635000Y-58319315D02*
X51619000Y-57303315D01*
X52600000Y-58850000D02*
X52635000Y-58319315D01*
X51619000Y-57303315D02*
X51619000Y-56091000D01*
X51619000Y-56091000D02*
X50857000Y-55329000D01*
X49921000Y-55329000D02*
X49400000Y-55850000D01*
X50857000Y-55329000D02*
X49921000Y-55329000D01*
D25*
X69085017Y-74125000D02*
X67546444Y-74125000D01*
X68307589Y-74049589D02*
X67741904Y-74049589D01*
X67546444Y-74125000D02*
X65589000Y-74125000D01*
X67741904Y-74049589D02*
X67666493Y-74125000D01*
X67666493Y-74125000D02*
X67546444Y-74125000D01*
X69907000Y-74125000D02*
X69085017Y-74125000D01*
X68307589Y-74049589D02*
X68873274Y-74049589D01*
X68873274Y-74049589D02*
X68948685Y-74125000D01*
X68948685Y-74125000D02*
X69085017Y-74125000D01*
X79686000Y-79078000D02*
X78670000Y-79078000D01*
X78670000Y-79078000D02*
X77722000Y-79078000D01*
X77722000Y-79078000D02*
X77700000Y-79100000D01*
X71685000Y-75903000D02*
X69907000Y-74125000D01*
X73590000Y-75903000D02*
X71685000Y-75903000D01*
X74479000Y-76792000D02*
X73590000Y-75903000D01*
X74479000Y-78570000D02*
X74479000Y-76792000D01*
X75009000Y-79100000D02*
X74479000Y-78570000D01*
X77700000Y-79100000D02*
X75009000Y-79100000D01*
X65589000Y-74125000D02*
X65081000Y-74125000D01*
X65081000Y-74125000D02*
X62414000Y-71458000D01*
X62414000Y-71458000D02*
X62414000Y-63457000D01*
X62414000Y-63457000D02*
X64954000Y-60917000D01*
X64954000Y-60917000D02*
X64954000Y-59647000D01*
D30*
X44270418Y-61906061D02*
X41576479Y-64600000D01*
X44270418Y-52617476D02*
X44270418Y-61906061D01*
X50700000Y-45600000D02*
X50700000Y-46187894D01*
X50700000Y-46187894D02*
X44270418Y-52617476D01*
X41576479Y-64600000D02*
X40914180Y-64600000D01*
D27*
X92132000Y-69934000D02*
X93290000Y-68776000D01*
X68510000Y-56472000D02*
X68510000Y-60374851D01*
X93290000Y-68776000D02*
X93290000Y-53790000D01*
X93290000Y-53790000D02*
X91654000Y-52154000D01*
X91654000Y-52154000D02*
X72828000Y-52154000D01*
X72828000Y-52154000D02*
X68510000Y-56472000D01*
X68510000Y-60374851D02*
X68510000Y-61679000D01*
D30*
X66004149Y-57869000D02*
X68510000Y-60374851D01*
X53905000Y-49741000D02*
X54995000Y-49741000D01*
X55937909Y-50683909D02*
X55937909Y-52179249D01*
X54995000Y-49741000D02*
X55937909Y-50683909D01*
X55937909Y-52179249D02*
X61627660Y-57869000D01*
X61627660Y-57869000D02*
X66004149Y-57869000D01*
D27*
X68509988Y-62637315D02*
X68509988Y-63203000D01*
X68509988Y-61367327D02*
X68509988Y-62637315D01*
X75368000Y-69159825D02*
X75368000Y-68410000D01*
D30*
X55400000Y-54200000D02*
X55799999Y-53800001D01*
X55799999Y-53800001D02*
X56694001Y-53800001D01*
X67608311Y-60396311D02*
X67608311Y-67406689D01*
X56694001Y-53800001D02*
X61271000Y-58377000D01*
X61271000Y-58377000D02*
X65589000Y-58377000D01*
X65208000Y-69172000D02*
X64827000Y-69553000D01*
X65589000Y-58377000D02*
X67608311Y-60396311D01*
X72885140Y-71077000D02*
X74968001Y-68994139D01*
X74968001Y-68994139D02*
X75368000Y-68594140D01*
X67608311Y-67406689D02*
X65843000Y-69172000D01*
X65843000Y-69172000D02*
X65208000Y-69172000D01*
X64827000Y-69553000D02*
X64827000Y-70442000D01*
X64827000Y-70442000D02*
X65462000Y-71077000D01*
X65462000Y-71077000D02*
X72885140Y-71077000D01*
D27*
X86378000Y-70100000D02*
X76308175Y-70100000D01*
X90100000Y-66378000D02*
X86378000Y-70100000D01*
X76308175Y-70100000D02*
X75368000Y-69159825D01*
X75368000Y-69159825D02*
X75368000Y-68594140D01*
X90100000Y-62822000D02*
X90100000Y-66378000D01*
X90989000Y-55583000D02*
X81083000Y-55583000D01*
X79559000Y-62940734D02*
X75399733Y-67100001D01*
X92132000Y-54440000D02*
X90989000Y-55583000D01*
X81083000Y-55583000D02*
X79559000Y-57107000D01*
X75399733Y-67100001D02*
X74999734Y-67500000D01*
X79559000Y-57107000D02*
X79559000Y-62940734D01*
X80575000Y-54440000D02*
X78479500Y-56535500D01*
X78479500Y-61399825D02*
X72153657Y-67725668D01*
X72153657Y-67725668D02*
X72153657Y-68291353D01*
X78479500Y-56535500D02*
X78479500Y-61399825D01*
X87687000Y-54440000D02*
X80575000Y-54440000D01*
D30*
X50750000Y-54300000D02*
X49900010Y-54300000D01*
X49900010Y-54300000D02*
X48119112Y-56080898D01*
X48119112Y-56080898D02*
X48119112Y-62614559D01*
X43869079Y-68793921D02*
X43166049Y-69496951D01*
X48119112Y-62614559D02*
X43869079Y-66864592D01*
X42277049Y-69496951D02*
X41713000Y-70061000D01*
X43869079Y-66864592D02*
X43869079Y-68793921D01*
X43166049Y-69496951D02*
X42277049Y-69496951D01*
X42857150Y-67265850D02*
X42857150Y-68792150D01*
X52508000Y-53932000D02*
X52508000Y-52789000D01*
X47687302Y-55902038D02*
X47687302Y-62435698D01*
X52000000Y-52281000D02*
X51308340Y-52281000D01*
X51308340Y-52281000D02*
X47687302Y-55902038D01*
X52508000Y-52789000D02*
X52000000Y-52281000D01*
X47687302Y-62435698D02*
X42857150Y-67265850D01*
D27*
X80299641Y-77808000D02*
X96456383Y-77808000D01*
X65455699Y-72340699D02*
X74832340Y-72340699D01*
X64065000Y-70950000D02*
X65455699Y-72340699D01*
X65208000Y-68029000D02*
X64065000Y-69172000D01*
X65843000Y-68029000D02*
X65208000Y-68029000D01*
X96456383Y-77808000D02*
X97085000Y-77808000D01*
X64065000Y-69172000D02*
X64065000Y-70950000D01*
X65788603Y-62012291D02*
X66859000Y-63082688D01*
X74832340Y-72340699D02*
X80299641Y-77808000D01*
X66859000Y-67013000D02*
X65843000Y-68029000D01*
X66859000Y-63082688D02*
X66859000Y-67013000D01*
D30*
X47255500Y-62243121D02*
X42866621Y-66632000D01*
X52311685Y-51773000D02*
X51205680Y-51773000D01*
X54413000Y-54440000D02*
X54413000Y-53874315D01*
X54413000Y-53874315D02*
X52311685Y-51773000D01*
X47255500Y-55723180D02*
X47255500Y-62243121D01*
X51205680Y-51773000D02*
X47255500Y-55723180D01*
X42866621Y-66632000D02*
X40914180Y-66632000D01*
D27*
X77058468Y-68537509D02*
X76492783Y-68537509D01*
X87306000Y-67394000D02*
X86162491Y-68537509D01*
X86162491Y-68537509D02*
X77058468Y-68537509D01*
X88830000Y-54313000D02*
X88830000Y-53684383D01*
X88830000Y-53684383D02*
X88442617Y-53297000D01*
X88442617Y-53297000D02*
X73081971Y-53297000D01*
X73081971Y-53297000D02*
X71304000Y-55074971D01*
X71304000Y-55074971D02*
X71304000Y-64798954D01*
X71304000Y-64798954D02*
X66051571Y-70051383D01*
X66051571Y-70051383D02*
X65706383Y-70051383D01*
X69830779Y-67983274D02*
X69430780Y-68383273D01*
X77019000Y-60795053D02*
X69830779Y-67983274D01*
X77019000Y-54440000D02*
X77019000Y-60795053D01*
D30*
X61467801Y-68086199D02*
X61467801Y-63782414D01*
X61190402Y-63505015D02*
X60624717Y-63505015D01*
X58985000Y-70569000D02*
X61467801Y-68086199D01*
X56128520Y-70569000D02*
X58985000Y-70569000D01*
X53741489Y-68181969D02*
X56128520Y-70569000D01*
X61467801Y-63782414D02*
X61190402Y-63505015D01*
X55893755Y-71331000D02*
X52653749Y-68090994D01*
X52653749Y-68090994D02*
X52352639Y-68090994D01*
X60763000Y-70061000D02*
X59493000Y-71331000D01*
X59493000Y-71331000D02*
X55893755Y-71331000D01*
X51883241Y-67243485D02*
X51483242Y-67643484D01*
X56536626Y-69934000D02*
X53846111Y-67243485D01*
X58604000Y-69934000D02*
X56536626Y-69934000D01*
X53846111Y-67243485D02*
X51883241Y-67243485D01*
X60636000Y-67902000D02*
X58604000Y-69934000D01*
X58095996Y-69426000D02*
X60236001Y-67285995D01*
X57080000Y-69426000D02*
X58095996Y-69426000D01*
X60236001Y-67285995D02*
X60636000Y-66885996D01*
X51111000Y-66632000D02*
X54286000Y-66632000D01*
X54286000Y-66632000D02*
X57080000Y-69426000D01*
X51365000Y-63735328D02*
X51365000Y-63203000D01*
X54540000Y-65108000D02*
X52737672Y-65108000D01*
X56826000Y-67394000D02*
X54540000Y-65108000D01*
X58731000Y-67394000D02*
X56826000Y-67394000D01*
X60636000Y-65489000D02*
X58731000Y-67394000D01*
X52737672Y-65108000D02*
X51365000Y-63735328D01*
X54794000Y-63584000D02*
X52946685Y-63584000D01*
X57588000Y-66378000D02*
X54794000Y-63584000D01*
X52946685Y-63584000D02*
X52381000Y-63584000D01*
X52000000Y-55200000D02*
X51998000Y-55200000D01*
X51700000Y-53200000D02*
X51700000Y-54900000D01*
X53397000Y-56599000D02*
X51998000Y-55200000D01*
X51700000Y-54900000D02*
X52000000Y-55200000D01*
X53397000Y-60917000D02*
X53397000Y-56599000D01*
X52350000Y-61850000D02*
X53397000Y-60917000D01*
X54907474Y-51292526D02*
X55100000Y-51100000D01*
X49347710Y-51292526D02*
X54907474Y-51292526D01*
X49460000Y-63711000D02*
X49460000Y-67545328D01*
X49460000Y-67545328D02*
X57385861Y-75471189D01*
X57385861Y-75471189D02*
X68075407Y-75471189D01*
X68075407Y-75471189D02*
X68984980Y-76380762D01*
X68984980Y-76380762D02*
X68984980Y-77300000D01*
X49968000Y-63711000D02*
X49460000Y-63711000D01*
X49460000Y-63711000D02*
X46793000Y-66378000D01*
X46793000Y-66378000D02*
X46793000Y-66632000D01*
X50843780Y-65489000D02*
X51243779Y-65089001D01*
X51243779Y-65089001D02*
X51243779Y-64224779D01*
X50730000Y-63711000D02*
X49968000Y-63711000D01*
X51243779Y-64224779D02*
X50730000Y-63711000D01*
X50021419Y-64872999D02*
X50021419Y-67496075D01*
X57539344Y-75014000D02*
X68700500Y-75014000D01*
X50021419Y-67496075D02*
X57539344Y-75014000D01*
X50421418Y-64473000D02*
X50021419Y-64872999D01*
X68700500Y-75014000D02*
X70336501Y-76650001D01*
X70336501Y-76650001D02*
X70986500Y-77300000D01*
X46412000Y-67775000D02*
X47224811Y-68587811D01*
X47224811Y-68587811D02*
X49256811Y-68587811D01*
X49256811Y-68587811D02*
X57003811Y-76334811D01*
X57003811Y-76334811D02*
X66018271Y-76334811D01*
X66018271Y-76334811D02*
X66333461Y-76650001D01*
X66333461Y-76650001D02*
X66983460Y-77300000D01*
X47663001Y-66777991D02*
X48063000Y-66377992D01*
X48132315Y-68156000D02*
X47535989Y-67559674D01*
X57207000Y-75903000D02*
X49460000Y-68156000D01*
X66999566Y-75903000D02*
X57207000Y-75903000D01*
X71969480Y-78316000D02*
X68587874Y-78316000D01*
X49460000Y-68156000D02*
X48132315Y-68156000D01*
X72985480Y-77300000D02*
X71969480Y-78316000D01*
X47535989Y-66905003D02*
X47663001Y-66777991D01*
X47535989Y-67559674D02*
X47535989Y-66905003D01*
X68002000Y-77730126D02*
X68002000Y-76905434D01*
X68587874Y-78316000D02*
X68002000Y-77730126D01*
X68002000Y-76905434D02*
X66999566Y-75903000D01*
G36*
X50972191Y-41649013D02*
G01*
X50830058Y-41707887D01*
X50702141Y-41793358D01*
X50593358Y-41902141D01*
X50507887Y-42030058D01*
X50449013Y-42172191D01*
X50419000Y-42323078D01*
X50419000Y-42476922D01*
X50423988Y-42502000D01*
X45331902Y-42502000D01*
X45282000Y-42497085D01*
X45232098Y-42502000D01*
X45082829Y-42516702D01*
X44891313Y-42574798D01*
X44714810Y-42669140D01*
X44560104Y-42796104D01*
X44528292Y-42834867D01*
X43276698Y-44086461D01*
X41980460Y-44083192D01*
X41901568Y-44067500D01*
X41698432Y-44067500D01*
X41499198Y-44107130D01*
X41311525Y-44184867D01*
X41142623Y-44297723D01*
X40998983Y-44441363D01*
X40886127Y-44610265D01*
X40808390Y-44797938D01*
X40768760Y-44997172D01*
X40768760Y-45200308D01*
X40808390Y-45399542D01*
X40886127Y-45587215D01*
X40998983Y-45756117D01*
X41142623Y-45899757D01*
X41311525Y-46012613D01*
X41499198Y-46090350D01*
X41545198Y-46099500D01*
X41499198Y-46108650D01*
X41311525Y-46186387D01*
X41142623Y-46299243D01*
X40998983Y-46442883D01*
X40886127Y-46611785D01*
X40808390Y-46799458D01*
X40768760Y-46998692D01*
X40768760Y-47201828D01*
X40808390Y-47401062D01*
X40886127Y-47588735D01*
X40998983Y-47757637D01*
X41142623Y-47901277D01*
X41311525Y-48014133D01*
X41499198Y-48091870D01*
X41538814Y-48099750D01*
X41499198Y-48107630D01*
X41311525Y-48185367D01*
X41142623Y-48298223D01*
X40998983Y-48441863D01*
X40886127Y-48610765D01*
X40808390Y-48798438D01*
X40768760Y-48997672D01*
X40768760Y-49200808D01*
X40808390Y-49400042D01*
X40886127Y-49587715D01*
X40998983Y-49756617D01*
X41142623Y-49900257D01*
X41311525Y-50013113D01*
X41499198Y-50090850D01*
X41545198Y-50100000D01*
X41499198Y-50109150D01*
X41311525Y-50186887D01*
X41142623Y-50299743D01*
X40998983Y-50443383D01*
X40886127Y-50612285D01*
X40808390Y-50799958D01*
X40768760Y-50999192D01*
X40768760Y-51202328D01*
X40808390Y-51401562D01*
X40886127Y-51589235D01*
X40998983Y-51758137D01*
X41142623Y-51901777D01*
X41311525Y-52014633D01*
X41499198Y-52092370D01*
X41538814Y-52100250D01*
X41499198Y-52108130D01*
X41311525Y-52185867D01*
X41142623Y-52298723D01*
X40998983Y-52442363D01*
X40886127Y-52611265D01*
X40808390Y-52798938D01*
X40768760Y-52998172D01*
X40768760Y-53201308D01*
X40808390Y-53400542D01*
X40886127Y-53588215D01*
X40998983Y-53757117D01*
X41142623Y-53900757D01*
X41311525Y-54013613D01*
X41499198Y-54091350D01*
X41681334Y-54127579D01*
X41614602Y-54133678D01*
X41429398Y-54188439D01*
X41258437Y-54278280D01*
X41246911Y-54285981D01*
X41184587Y-54440946D01*
X41800000Y-55056359D01*
X42415413Y-54440946D01*
X42353089Y-54285981D01*
X42183408Y-54193744D01*
X41998993Y-54136382D01*
X41917614Y-54127788D01*
X42100802Y-54091350D01*
X42288475Y-54013613D01*
X42457377Y-53900757D01*
X42601017Y-53757117D01*
X42713873Y-53588215D01*
X42791610Y-53400542D01*
X42831240Y-53201308D01*
X42831240Y-52998172D01*
X42791610Y-52798938D01*
X42713873Y-52611265D01*
X42601017Y-52442363D01*
X42457377Y-52298723D01*
X42288475Y-52185867D01*
X42100802Y-52108130D01*
X42061186Y-52100250D01*
X42100802Y-52092370D01*
X42288475Y-52014633D01*
X42457377Y-51901777D01*
X42601017Y-51758137D01*
X42713873Y-51589235D01*
X42791610Y-51401562D01*
X42831240Y-51202328D01*
X42831240Y-50999192D01*
X42791610Y-50799958D01*
X42713873Y-50612285D01*
X42601017Y-50443383D01*
X42457377Y-50299743D01*
X42288475Y-50186887D01*
X42100802Y-50109150D01*
X42054802Y-50100000D01*
X42100802Y-50090850D01*
X42288475Y-50013113D01*
X42457377Y-49900257D01*
X42601017Y-49756617D01*
X42713873Y-49587715D01*
X42791610Y-49400042D01*
X42831240Y-49200808D01*
X42831240Y-48997672D01*
X42791610Y-48798438D01*
X42713873Y-48610765D01*
X42601017Y-48441863D01*
X42457377Y-48298223D01*
X42288475Y-48185367D01*
X42100802Y-48107630D01*
X42061186Y-48099750D01*
X42100802Y-48091870D01*
X42288475Y-48014133D01*
X42457377Y-47901277D01*
X42535576Y-47823078D01*
X45619000Y-47823078D01*
X45619000Y-47976922D01*
X45649013Y-48127809D01*
X45707887Y-48269942D01*
X45793358Y-48397859D01*
X45902141Y-48506642D01*
X46030058Y-48592113D01*
X46172191Y-48650987D01*
X46323078Y-48681000D01*
X46476922Y-48681000D01*
X46627809Y-48650987D01*
X46769942Y-48592113D01*
X46897859Y-48506642D01*
X47006642Y-48397859D01*
X47092113Y-48269942D01*
X47150987Y-48127809D01*
X47181000Y-47976922D01*
X47181000Y-47823078D01*
X47150987Y-47672191D01*
X47092113Y-47530058D01*
X47006642Y-47402141D01*
X46897859Y-47293358D01*
X46769942Y-47207887D01*
X46627809Y-47149013D01*
X46476922Y-47119000D01*
X46323078Y-47119000D01*
X46172191Y-47149013D01*
X46030058Y-47207887D01*
X45902141Y-47293358D01*
X45793358Y-47402141D01*
X45707887Y-47530058D01*
X45649013Y-47672191D01*
X45619000Y-47823078D01*
X42535576Y-47823078D01*
X42601017Y-47757637D01*
X42713873Y-47588735D01*
X42791610Y-47401062D01*
X42831240Y-47201828D01*
X42831240Y-46998692D01*
X42791610Y-46799458D01*
X42713873Y-46611785D01*
X42601017Y-46442883D01*
X42457377Y-46299243D01*
X42288475Y-46186387D01*
X42117443Y-46115543D01*
X43645151Y-46119396D01*
X43646435Y-46119522D01*
X43646576Y-46119522D01*
X43696478Y-46124437D01*
X43746380Y-46119522D01*
X43800287Y-46114213D01*
X43892982Y-46105319D01*
X43894151Y-46104968D01*
X43895649Y-46104820D01*
X44005673Y-46071444D01*
X44084644Y-46047706D01*
X44085597Y-46047200D01*
X44087165Y-46046724D01*
X44197639Y-45987675D01*
X44261384Y-45953809D01*
X44262115Y-45953212D01*
X44263668Y-45952382D01*
X44367506Y-45867164D01*
X44416410Y-45827236D01*
X44416937Y-45826598D01*
X44418374Y-45825418D01*
X44450190Y-45786650D01*
X45702841Y-44534000D01*
X54881160Y-44534000D01*
X60255000Y-49907841D01*
X60255001Y-51119000D01*
X60123078Y-51119000D01*
X59972191Y-51149013D01*
X59830058Y-51207887D01*
X59702141Y-51293358D01*
X59593358Y-51402141D01*
X59507887Y-51530058D01*
X59449013Y-51672191D01*
X59419000Y-51823078D01*
X59419000Y-51976922D01*
X59449013Y-52127809D01*
X59507887Y-52269942D01*
X59593358Y-52397859D01*
X59702141Y-52506642D01*
X59830058Y-52592113D01*
X59972191Y-52650987D01*
X60123078Y-52681000D01*
X60276922Y-52681000D01*
X60427809Y-52650987D01*
X60536150Y-52606110D01*
X60549105Y-52621896D01*
X60703811Y-52748860D01*
X60880314Y-52843202D01*
X61071830Y-52901298D01*
X61271000Y-52920915D01*
X61470171Y-52901298D01*
X61661687Y-52843202D01*
X61838190Y-52748860D01*
X61992896Y-52621896D01*
X62119860Y-52467190D01*
X62214202Y-52290687D01*
X62272298Y-52099171D01*
X62287000Y-51949902D01*
X62287000Y-49536902D01*
X62291915Y-49487000D01*
X62280496Y-49371058D01*
X62272298Y-49287829D01*
X62214202Y-49096313D01*
X62119860Y-48919810D01*
X62105308Y-48902078D01*
X63284000Y-48902078D01*
X63284000Y-49055922D01*
X63314013Y-49206809D01*
X63372887Y-49348942D01*
X63458358Y-49476859D01*
X63567141Y-49585642D01*
X63695058Y-49671113D01*
X63837191Y-49729987D01*
X63988078Y-49760000D01*
X64141922Y-49760000D01*
X64292809Y-49729987D01*
X64434942Y-49671113D01*
X64562859Y-49585642D01*
X64671642Y-49476859D01*
X64757113Y-49348942D01*
X64815987Y-49206809D01*
X64846000Y-49055922D01*
X64846000Y-48902078D01*
X64815987Y-48751191D01*
X64757113Y-48609058D01*
X64671642Y-48481141D01*
X64562859Y-48372358D01*
X64434942Y-48286887D01*
X64292809Y-48228013D01*
X64141922Y-48198000D01*
X63988078Y-48198000D01*
X63837191Y-48228013D01*
X63695058Y-48286887D01*
X63567141Y-48372358D01*
X63458358Y-48481141D01*
X63372887Y-48609058D01*
X63314013Y-48751191D01*
X63284000Y-48902078D01*
X62105308Y-48902078D01*
X61992896Y-48765104D01*
X61954133Y-48733292D01*
X57520471Y-44299630D01*
X58340482Y-44299630D01*
X58346857Y-44364361D01*
X58365739Y-44426604D01*
X58396400Y-44483967D01*
X58437663Y-44534247D01*
X58487943Y-44575510D01*
X58545306Y-44606171D01*
X58607549Y-44625053D01*
X58672280Y-44631428D01*
X59157420Y-44629830D01*
X59239970Y-44547280D01*
X59239970Y-43481750D01*
X59303470Y-43481750D01*
X59303470Y-44547280D01*
X59386020Y-44629830D01*
X59871160Y-44631428D01*
X59935891Y-44625053D01*
X59998134Y-44606171D01*
X60055497Y-44575510D01*
X60105777Y-44534247D01*
X60147040Y-44483967D01*
X60177701Y-44426604D01*
X60196583Y-44364361D01*
X60202958Y-44299630D01*
X60201360Y-43564300D01*
X60118810Y-43481750D01*
X59303470Y-43481750D01*
X59239970Y-43481750D01*
X58424630Y-43481750D01*
X58342080Y-43564300D01*
X58340482Y-44299630D01*
X57520471Y-44299630D01*
X56055712Y-42834872D01*
X56023896Y-42796104D01*
X55869190Y-42669140D01*
X55740530Y-42600370D01*
X58340482Y-42600370D01*
X58342080Y-43335700D01*
X58424630Y-43418250D01*
X59239970Y-43418250D01*
X59239970Y-42352720D01*
X59303470Y-42352720D01*
X59303470Y-43418250D01*
X60118810Y-43418250D01*
X60201360Y-43335700D01*
X60201759Y-43151654D01*
X60292800Y-43151654D01*
X60292800Y-43748347D01*
X60306987Y-43892390D01*
X60363050Y-44077203D01*
X60454091Y-44247528D01*
X60576611Y-44396820D01*
X60725903Y-44519340D01*
X60896228Y-44610380D01*
X61081041Y-44666443D01*
X61273240Y-44685373D01*
X61465440Y-44666443D01*
X61650253Y-44610380D01*
X61820578Y-44519340D01*
X61969870Y-44396820D01*
X62092390Y-44247528D01*
X62183430Y-44077203D01*
X62239493Y-43892389D01*
X62253680Y-43748346D01*
X62253680Y-43151654D01*
X62294320Y-43151654D01*
X62294320Y-43748347D01*
X62308507Y-43892390D01*
X62364570Y-44077203D01*
X62455611Y-44247528D01*
X62578131Y-44396820D01*
X62727423Y-44519340D01*
X62897748Y-44610380D01*
X63082561Y-44666443D01*
X63274760Y-44685373D01*
X63466960Y-44666443D01*
X63651773Y-44610380D01*
X63822098Y-44519340D01*
X63971390Y-44396820D01*
X64093910Y-44247528D01*
X64184950Y-44077203D01*
X64241013Y-43892389D01*
X64255200Y-43748346D01*
X64255200Y-43151654D01*
X64293300Y-43151654D01*
X64293300Y-43748347D01*
X64307487Y-43892390D01*
X64363550Y-44077203D01*
X64454591Y-44247528D01*
X64577111Y-44396820D01*
X64726403Y-44519340D01*
X64896728Y-44610380D01*
X65081541Y-44666443D01*
X65273740Y-44685373D01*
X65465940Y-44666443D01*
X65650753Y-44610380D01*
X65821078Y-44519340D01*
X65970370Y-44396820D01*
X66092890Y-44247528D01*
X66183930Y-44077203D01*
X66239993Y-43892389D01*
X66254180Y-43748346D01*
X66254180Y-43151653D01*
X66239993Y-43007610D01*
X66183930Y-42822797D01*
X66092890Y-42652472D01*
X65970370Y-42503180D01*
X65821078Y-42380660D01*
X65650752Y-42289620D01*
X65465939Y-42233557D01*
X65273740Y-42214627D01*
X65081540Y-42233557D01*
X64896727Y-42289620D01*
X64726402Y-42380660D01*
X64577110Y-42503180D01*
X64454590Y-42652472D01*
X64363550Y-42822798D01*
X64307487Y-43007611D01*
X64293300Y-43151654D01*
X64255200Y-43151654D01*
X64255200Y-43151653D01*
X64241013Y-43007610D01*
X64184950Y-42822797D01*
X64093910Y-42652472D01*
X63971390Y-42503180D01*
X63822098Y-42380660D01*
X63651772Y-42289620D01*
X63466959Y-42233557D01*
X63274760Y-42214627D01*
X63082560Y-42233557D01*
X62897747Y-42289620D01*
X62727422Y-42380660D01*
X62578130Y-42503180D01*
X62455610Y-42652472D01*
X62364570Y-42822798D01*
X62308507Y-43007611D01*
X62294320Y-43151654D01*
X62253680Y-43151654D01*
X62253680Y-43151653D01*
X62239493Y-43007610D01*
X62183430Y-42822797D01*
X62092390Y-42652472D01*
X61969870Y-42503180D01*
X61820578Y-42380660D01*
X61650252Y-42289620D01*
X61465439Y-42233557D01*
X61273240Y-42214627D01*
X61081040Y-42233557D01*
X60896227Y-42289620D01*
X60725902Y-42380660D01*
X60576610Y-42503180D01*
X60454090Y-42652472D01*
X60363050Y-42822798D01*
X60306987Y-43007611D01*
X60292800Y-43151654D01*
X60201759Y-43151654D01*
X60202958Y-42600370D01*
X60196583Y-42535639D01*
X60177701Y-42473396D01*
X60147040Y-42416033D01*
X60105777Y-42365753D01*
X60055497Y-42324490D01*
X59998134Y-42293829D01*
X59935891Y-42274947D01*
X59871160Y-42268572D01*
X59386020Y-42270170D01*
X59303470Y-42352720D01*
X59239970Y-42352720D01*
X59157420Y-42270170D01*
X58672280Y-42268572D01*
X58607549Y-42274947D01*
X58545306Y-42293829D01*
X58487943Y-42324490D01*
X58437663Y-42365753D01*
X58396400Y-42416033D01*
X58365739Y-42473396D01*
X58346857Y-42535639D01*
X58340482Y-42600370D01*
X55740530Y-42600370D01*
X55692687Y-42574798D01*
X55501171Y-42516702D01*
X55351902Y-42502000D01*
X55302000Y-42497085D01*
X55252098Y-42502000D01*
X51976012Y-42502000D01*
X51981000Y-42476922D01*
X51981000Y-42323078D01*
X51950987Y-42172191D01*
X51892113Y-42030058D01*
X51806642Y-41902141D01*
X51697859Y-41793358D01*
X51569942Y-41707887D01*
X51427809Y-41649013D01*
X51317141Y-41627000D01*
X68873000Y-41627000D01*
X68873000Y-42047592D01*
X68797413Y-41997087D01*
X68589401Y-41910925D01*
X68368576Y-41867000D01*
X68143424Y-41867000D01*
X67922599Y-41910925D01*
X67714587Y-41997087D01*
X67527380Y-42122174D01*
X67368174Y-42281380D01*
X67243087Y-42468587D01*
X67156925Y-42676599D01*
X67113000Y-42897424D01*
X67113000Y-43122576D01*
X67156925Y-43343401D01*
X67243087Y-43551413D01*
X67368174Y-43738620D01*
X67527380Y-43897826D01*
X67529137Y-43899000D01*
X67527380Y-43900174D01*
X67368174Y-44059380D01*
X67243087Y-44246587D01*
X67156925Y-44454599D01*
X67113000Y-44675424D01*
X67113000Y-44900576D01*
X67156925Y-45121401D01*
X67243087Y-45329413D01*
X67368174Y-45516620D01*
X67527380Y-45675826D01*
X67529137Y-45677000D01*
X67527380Y-45678174D01*
X67368174Y-45837380D01*
X67243087Y-46024587D01*
X67156925Y-46232599D01*
X67113000Y-46453424D01*
X67113000Y-46678576D01*
X67156925Y-46899401D01*
X67243087Y-47107413D01*
X67368174Y-47294620D01*
X67527380Y-47453826D01*
X67714587Y-47578913D01*
X67922599Y-47665075D01*
X68143424Y-47709000D01*
X68368576Y-47709000D01*
X68589401Y-47665075D01*
X68797413Y-47578913D01*
X68873000Y-47528408D01*
X68873000Y-55121173D01*
X68040344Y-55953829D01*
X68013697Y-55975698D01*
X67991829Y-56002344D01*
X67991826Y-56002347D01*
X67926409Y-56082057D01*
X67863902Y-56199000D01*
X67861548Y-56203404D01*
X67821607Y-56335071D01*
X67811500Y-56437692D01*
X67811500Y-56437702D01*
X67808122Y-56472000D01*
X67811500Y-56506298D01*
X67811501Y-58957931D01*
X66381004Y-57527435D01*
X66365097Y-57508052D01*
X66287744Y-57444571D01*
X66236269Y-57417057D01*
X66281113Y-57349942D01*
X66339987Y-57207809D01*
X66370000Y-57056922D01*
X66370000Y-56903078D01*
X66339987Y-56752191D01*
X66281113Y-56610058D01*
X66195642Y-56482141D01*
X66086859Y-56373358D01*
X65958942Y-56287887D01*
X65816809Y-56229013D01*
X65665922Y-56199000D01*
X65512078Y-56199000D01*
X65361191Y-56229013D01*
X65219058Y-56287887D01*
X65091141Y-56373358D01*
X64982358Y-56482141D01*
X64896887Y-56610058D01*
X64838013Y-56752191D01*
X64808000Y-56903078D01*
X64808000Y-57056922D01*
X64838013Y-57207809D01*
X64896887Y-57349942D01*
X64904276Y-57361000D01*
X61838081Y-57361000D01*
X59441942Y-54964861D01*
X59523078Y-54981000D01*
X59676922Y-54981000D01*
X59827809Y-54950987D01*
X59969942Y-54892113D01*
X60097859Y-54806642D01*
X60206642Y-54697859D01*
X60292113Y-54569942D01*
X60350987Y-54427809D01*
X60381000Y-54276922D01*
X60381000Y-54123078D01*
X60350987Y-53972191D01*
X60292113Y-53830058D01*
X60223973Y-53728078D01*
X63284000Y-53728078D01*
X63284000Y-53881922D01*
X63314013Y-54032809D01*
X63372887Y-54174942D01*
X63458358Y-54302859D01*
X63531999Y-54376500D01*
X63458358Y-54450141D01*
X63372887Y-54578058D01*
X63314013Y-54720191D01*
X63284000Y-54871078D01*
X63284000Y-55024922D01*
X63314013Y-55175809D01*
X63372887Y-55317942D01*
X63458358Y-55445859D01*
X63567141Y-55554642D01*
X63695058Y-55640113D01*
X63837191Y-55698987D01*
X63988078Y-55729000D01*
X64141922Y-55729000D01*
X64292809Y-55698987D01*
X64434942Y-55640113D01*
X64562859Y-55554642D01*
X64671642Y-55445859D01*
X64757113Y-55317942D01*
X64815987Y-55175809D01*
X64846000Y-55024922D01*
X64846000Y-54871078D01*
X64815987Y-54720191D01*
X64757113Y-54578058D01*
X64671642Y-54450141D01*
X64598001Y-54376500D01*
X64671642Y-54302859D01*
X64757113Y-54174942D01*
X64815987Y-54032809D01*
X64846000Y-53881922D01*
X64846000Y-53728078D01*
X64815987Y-53577191D01*
X64757113Y-53435058D01*
X64671642Y-53307141D01*
X64562859Y-53198358D01*
X64434942Y-53112887D01*
X64292809Y-53054013D01*
X64141922Y-53024000D01*
X63988078Y-53024000D01*
X63837191Y-53054013D01*
X63695058Y-53112887D01*
X63567141Y-53198358D01*
X63458358Y-53307141D01*
X63372887Y-53435058D01*
X63314013Y-53577191D01*
X63284000Y-53728078D01*
X60223973Y-53728078D01*
X60206642Y-53702141D01*
X60097859Y-53593358D01*
X59969942Y-53507887D01*
X59827809Y-53449013D01*
X59676922Y-53419000D01*
X59523078Y-53419000D01*
X59372191Y-53449013D01*
X59230058Y-53507887D01*
X59102141Y-53593358D01*
X58993358Y-53702141D01*
X58907887Y-53830058D01*
X58849013Y-53972191D01*
X58819000Y-54123078D01*
X58819000Y-54276922D01*
X58835139Y-54358058D01*
X56445909Y-51968829D01*
X56445909Y-50708853D01*
X56448366Y-50683909D01*
X56445909Y-50658962D01*
X56438558Y-50584324D01*
X56409510Y-50488566D01*
X56362338Y-50400314D01*
X56298857Y-50322961D01*
X56279474Y-50307054D01*
X55371855Y-49399435D01*
X55355948Y-49380052D01*
X55278595Y-49316571D01*
X55190343Y-49269399D01*
X55094585Y-49240351D01*
X55019947Y-49233000D01*
X55019944Y-49233000D01*
X54995000Y-49230543D01*
X54970056Y-49233000D01*
X54501501Y-49233000D01*
X54402859Y-49134358D01*
X54274942Y-49048887D01*
X54132809Y-48990013D01*
X53981922Y-48960000D01*
X53828078Y-48960000D01*
X53677191Y-48990013D01*
X53535058Y-49048887D01*
X53407141Y-49134358D01*
X53298358Y-49243141D01*
X53212887Y-49371058D01*
X53154013Y-49513191D01*
X53124000Y-49664078D01*
X53124000Y-49817922D01*
X53154013Y-49968809D01*
X53212887Y-50110942D01*
X53298358Y-50238859D01*
X53407141Y-50347642D01*
X53535058Y-50433113D01*
X53677191Y-50491987D01*
X53828078Y-50522000D01*
X53981922Y-50522000D01*
X54132809Y-50491987D01*
X54274942Y-50433113D01*
X54402859Y-50347642D01*
X54501501Y-50249000D01*
X54784580Y-50249000D01*
X54882535Y-50346955D01*
X54872191Y-50349013D01*
X54730058Y-50407887D01*
X54602141Y-50493358D01*
X54493358Y-50602141D01*
X54407887Y-50730058D01*
X54385325Y-50784526D01*
X49944211Y-50784526D01*
X49845569Y-50685884D01*
X49717652Y-50600413D01*
X49575519Y-50541539D01*
X49424632Y-50511526D01*
X49270788Y-50511526D01*
X49119901Y-50541539D01*
X48977768Y-50600413D01*
X48849851Y-50685884D01*
X48741068Y-50794667D01*
X48655597Y-50922584D01*
X48596723Y-51064717D01*
X48566710Y-51215604D01*
X48566710Y-51369448D01*
X48596723Y-51520335D01*
X48655597Y-51662468D01*
X48741068Y-51790385D01*
X48849851Y-51899168D01*
X48977768Y-51984639D01*
X49119901Y-52043513D01*
X49270788Y-52073526D01*
X49424632Y-52073526D01*
X49575519Y-52043513D01*
X49717652Y-51984639D01*
X49845569Y-51899168D01*
X49944211Y-51800526D01*
X50459733Y-51800526D01*
X46913935Y-55346325D01*
X46894552Y-55362232D01*
X46831071Y-55439585D01*
X46783899Y-55527838D01*
X46754851Y-55623596D01*
X46747500Y-55698233D01*
X46745043Y-55723180D01*
X46747500Y-55748124D01*
X46747500Y-55965021D01*
X46669942Y-55913199D01*
X46527809Y-55854325D01*
X46376922Y-55824312D01*
X46223078Y-55824312D01*
X46072191Y-55854325D01*
X45930058Y-55913199D01*
X45802141Y-55998670D01*
X45693358Y-56107453D01*
X45607887Y-56235370D01*
X45549013Y-56377503D01*
X45519000Y-56528390D01*
X45519000Y-56682234D01*
X45549013Y-56833121D01*
X45607887Y-56975254D01*
X45693358Y-57103171D01*
X45802141Y-57211954D01*
X45930058Y-57297425D01*
X46072191Y-57356299D01*
X46223078Y-57386312D01*
X46376922Y-57386312D01*
X46527809Y-57356299D01*
X46669942Y-57297425D01*
X46747500Y-57245602D01*
X46747501Y-61567747D01*
X46638457Y-61494887D01*
X46496324Y-61436013D01*
X46345437Y-61406000D01*
X46191593Y-61406000D01*
X46040706Y-61436013D01*
X45898573Y-61494887D01*
X45770656Y-61580358D01*
X45661873Y-61689141D01*
X45576402Y-61817058D01*
X45517528Y-61959191D01*
X45505755Y-62018377D01*
X45500207Y-62004983D01*
X45414736Y-61877066D01*
X45305953Y-61768283D01*
X45178036Y-61682812D01*
X45035903Y-61623938D01*
X44885016Y-61593925D01*
X44778418Y-61593925D01*
X44778418Y-59951078D01*
X44869000Y-59951078D01*
X44869000Y-60104922D01*
X44899013Y-60255809D01*
X44957887Y-60397942D01*
X45043358Y-60525859D01*
X45152141Y-60634642D01*
X45280058Y-60720113D01*
X45422191Y-60778987D01*
X45573078Y-60809000D01*
X45726922Y-60809000D01*
X45877809Y-60778987D01*
X46019942Y-60720113D01*
X46147859Y-60634642D01*
X46256642Y-60525859D01*
X46342113Y-60397942D01*
X46400987Y-60255809D01*
X46431000Y-60104922D01*
X46431000Y-59951078D01*
X46400987Y-59800191D01*
X46342113Y-59658058D01*
X46256642Y-59530141D01*
X46147859Y-59421358D01*
X46019942Y-59335887D01*
X45877809Y-59277013D01*
X45726922Y-59247000D01*
X45573078Y-59247000D01*
X45422191Y-59277013D01*
X45280058Y-59335887D01*
X45152141Y-59421358D01*
X45043358Y-59530141D01*
X44957887Y-59658058D01*
X44899013Y-59800191D01*
X44869000Y-59951078D01*
X44778418Y-59951078D01*
X44778418Y-52827896D01*
X45229790Y-52376524D01*
X45541574Y-52376524D01*
X45541574Y-52530368D01*
X45571587Y-52681255D01*
X45630461Y-52823388D01*
X45715932Y-52951305D01*
X45824715Y-53060088D01*
X45952632Y-53145559D01*
X46094765Y-53204433D01*
X46245652Y-53234446D01*
X46399496Y-53234446D01*
X46550383Y-53204433D01*
X46692516Y-53145559D01*
X46820433Y-53060088D01*
X46929216Y-52951305D01*
X47014687Y-52823388D01*
X47073561Y-52681255D01*
X47103574Y-52530368D01*
X47103574Y-52376524D01*
X47073561Y-52225637D01*
X47014687Y-52083504D01*
X46929216Y-51955587D01*
X46820433Y-51846804D01*
X46692516Y-51761333D01*
X46550383Y-51702459D01*
X46399496Y-51672446D01*
X46245652Y-51672446D01*
X46094765Y-51702459D01*
X45952632Y-51761333D01*
X45824715Y-51846804D01*
X45715932Y-51955587D01*
X45630461Y-52083504D01*
X45571587Y-52225637D01*
X45541574Y-52376524D01*
X45229790Y-52376524D01*
X48183236Y-49423078D01*
X49951522Y-49423078D01*
X49951522Y-49576922D01*
X49981535Y-49727809D01*
X50040409Y-49869942D01*
X50125880Y-49997859D01*
X50234663Y-50106642D01*
X50362580Y-50192113D01*
X50504713Y-50250987D01*
X50655600Y-50281000D01*
X50809444Y-50281000D01*
X50960331Y-50250987D01*
X51102464Y-50192113D01*
X51230381Y-50106642D01*
X51339164Y-49997859D01*
X51424635Y-49869942D01*
X51483509Y-49727809D01*
X51513522Y-49576922D01*
X51513522Y-49423078D01*
X51483509Y-49272191D01*
X51424635Y-49130058D01*
X51339164Y-49002141D01*
X51230381Y-48893358D01*
X51102464Y-48807887D01*
X50960331Y-48749013D01*
X50809444Y-48719000D01*
X50655600Y-48719000D01*
X50504713Y-48749013D01*
X50362580Y-48807887D01*
X50234663Y-48893358D01*
X50125880Y-49002141D01*
X50040409Y-49130058D01*
X49981535Y-49272191D01*
X49951522Y-49423078D01*
X48183236Y-49423078D01*
X51041571Y-46564744D01*
X51060948Y-46548842D01*
X51116844Y-46480732D01*
X51124429Y-46471490D01*
X51149643Y-46424318D01*
X51171601Y-46383237D01*
X51200649Y-46287479D01*
X51208000Y-46212841D01*
X51208000Y-46212839D01*
X51209785Y-46194716D01*
X51306642Y-46097859D01*
X51392113Y-45969942D01*
X51450987Y-45827809D01*
X51481000Y-45676922D01*
X51481000Y-45613229D01*
X52319000Y-45613229D01*
X52319000Y-45786771D01*
X52352856Y-45956978D01*
X52419268Y-46117310D01*
X52515682Y-46261605D01*
X52638395Y-46384318D01*
X52782690Y-46480732D01*
X52943022Y-46547144D01*
X52996411Y-46557764D01*
X52949013Y-46672191D01*
X52919000Y-46823078D01*
X52919000Y-46976922D01*
X52949013Y-47127809D01*
X53007887Y-47269942D01*
X53093358Y-47397859D01*
X53202141Y-47506642D01*
X53330058Y-47592113D01*
X53472191Y-47650987D01*
X53623078Y-47681000D01*
X53776922Y-47681000D01*
X53927809Y-47650987D01*
X54069942Y-47592113D01*
X54197859Y-47506642D01*
X54306642Y-47397859D01*
X54392113Y-47269942D01*
X54450987Y-47127809D01*
X54481000Y-46976922D01*
X54481000Y-46823078D01*
X54450987Y-46672191D01*
X54392113Y-46530058D01*
X54306642Y-46402141D01*
X54197859Y-46293358D01*
X54069942Y-46207887D01*
X53952669Y-46159310D01*
X53980732Y-46117310D01*
X54047144Y-45956978D01*
X54081000Y-45786771D01*
X54081000Y-45613229D01*
X54047144Y-45443022D01*
X53980732Y-45282690D01*
X53884318Y-45138395D01*
X53761605Y-45015682D01*
X53617310Y-44919268D01*
X53456978Y-44852856D01*
X53286771Y-44819000D01*
X53113229Y-44819000D01*
X52943022Y-44852856D01*
X52782690Y-44919268D01*
X52638395Y-45015682D01*
X52515682Y-45138395D01*
X52419268Y-45282690D01*
X52352856Y-45443022D01*
X52319000Y-45613229D01*
X51481000Y-45613229D01*
X51481000Y-45523078D01*
X51450987Y-45372191D01*
X51392113Y-45230058D01*
X51306642Y-45102141D01*
X51197859Y-44993358D01*
X51069942Y-44907887D01*
X50927809Y-44849013D01*
X50776922Y-44819000D01*
X50623078Y-44819000D01*
X50472191Y-44849013D01*
X50330058Y-44907887D01*
X50202141Y-44993358D01*
X50093358Y-45102141D01*
X50007887Y-45230058D01*
X49983409Y-45289153D01*
X49980732Y-45282690D01*
X49884318Y-45138395D01*
X49761605Y-45015682D01*
X49617310Y-44919268D01*
X49456978Y-44852856D01*
X49286771Y-44819000D01*
X49113229Y-44819000D01*
X48943022Y-44852856D01*
X48782690Y-44919268D01*
X48638395Y-45015682D01*
X48515682Y-45138395D01*
X48419268Y-45282690D01*
X48352856Y-45443022D01*
X48319000Y-45613229D01*
X48319000Y-45786771D01*
X48352856Y-45956978D01*
X48419268Y-46117310D01*
X48495305Y-46231108D01*
X48402141Y-46293358D01*
X48293358Y-46402141D01*
X48207887Y-46530058D01*
X48149013Y-46672191D01*
X48119000Y-46823078D01*
X48119000Y-46976922D01*
X48149013Y-47127809D01*
X48207887Y-47269942D01*
X48293358Y-47397859D01*
X48402141Y-47506642D01*
X48530058Y-47592113D01*
X48563506Y-47605968D01*
X43928853Y-52240621D01*
X43909470Y-52256528D01*
X43845989Y-52333881D01*
X43798817Y-52422134D01*
X43769769Y-52517892D01*
X43762459Y-52592113D01*
X43759961Y-52617476D01*
X43762418Y-52642420D01*
X43762419Y-61695639D01*
X41438370Y-64019689D01*
X41412039Y-63993358D01*
X41284122Y-63907887D01*
X41141989Y-63849013D01*
X40991102Y-63819000D01*
X40837258Y-63819000D01*
X40686371Y-63849013D01*
X40544238Y-63907887D01*
X40416321Y-63993358D01*
X40307538Y-64102141D01*
X40222067Y-64230058D01*
X40163193Y-64372191D01*
X40133180Y-64523078D01*
X40133180Y-64676922D01*
X40163193Y-64827809D01*
X40222067Y-64969942D01*
X40307538Y-65097859D01*
X40416321Y-65206642D01*
X40544238Y-65292113D01*
X40686371Y-65350987D01*
X40837258Y-65381000D01*
X40991102Y-65381000D01*
X41141989Y-65350987D01*
X41284122Y-65292113D01*
X41412039Y-65206642D01*
X41510681Y-65108000D01*
X41551535Y-65108000D01*
X41576479Y-65110457D01*
X41601423Y-65108000D01*
X41601426Y-65108000D01*
X41676064Y-65100649D01*
X41771822Y-65071601D01*
X41860074Y-65024429D01*
X41937427Y-64960948D01*
X41953334Y-64941565D01*
X44129620Y-62765280D01*
X44201452Y-62872784D01*
X44310235Y-62981567D01*
X44438152Y-63067038D01*
X44580285Y-63125912D01*
X44731172Y-63155925D01*
X44885016Y-63155925D01*
X45035903Y-63125912D01*
X45178036Y-63067038D01*
X45305953Y-62981567D01*
X45414736Y-62872784D01*
X45500207Y-62744867D01*
X45559081Y-62602734D01*
X45570854Y-62543548D01*
X45576402Y-62556942D01*
X45661873Y-62684859D01*
X45770656Y-62793642D01*
X45898573Y-62879113D01*
X45900351Y-62879849D01*
X42656201Y-66124000D01*
X41510681Y-66124000D01*
X41412039Y-66025358D01*
X41284122Y-65939887D01*
X41141989Y-65881013D01*
X40991102Y-65851000D01*
X40837258Y-65851000D01*
X40686371Y-65881013D01*
X40544238Y-65939887D01*
X40416321Y-66025358D01*
X40307538Y-66134141D01*
X40222067Y-66262058D01*
X40163193Y-66404191D01*
X40133180Y-66555078D01*
X40133180Y-66708922D01*
X40163193Y-66859809D01*
X40222067Y-67001942D01*
X40307538Y-67129859D01*
X40416321Y-67238642D01*
X40544238Y-67324113D01*
X40686371Y-67382987D01*
X40837258Y-67413000D01*
X40991102Y-67413000D01*
X41141989Y-67382987D01*
X41284122Y-67324113D01*
X41412039Y-67238642D01*
X41510681Y-67140000D01*
X42364469Y-67140000D01*
X42356501Y-67166266D01*
X42350464Y-67227567D01*
X42346693Y-67265850D01*
X42349150Y-67290795D01*
X42349151Y-68195648D01*
X42250508Y-68294291D01*
X42165037Y-68422208D01*
X42106163Y-68564341D01*
X42076150Y-68715228D01*
X42076150Y-68869072D01*
X42105783Y-69018046D01*
X42081706Y-69025350D01*
X41993454Y-69072522D01*
X41916101Y-69136003D01*
X41900194Y-69155386D01*
X41775580Y-69280000D01*
X41636078Y-69280000D01*
X41485191Y-69310013D01*
X41343058Y-69368887D01*
X41215141Y-69454358D01*
X41106358Y-69563141D01*
X41020887Y-69691058D01*
X40962013Y-69833191D01*
X40932000Y-69984078D01*
X40932000Y-70137922D01*
X40962013Y-70288809D01*
X41020887Y-70430942D01*
X41106358Y-70558859D01*
X41215141Y-70667642D01*
X41283587Y-70713376D01*
X41201911Y-70757032D01*
X41027867Y-70899867D01*
X40885032Y-71073911D01*
X40778897Y-71272477D01*
X40713539Y-71487933D01*
X40691470Y-71712000D01*
X40713539Y-71936067D01*
X40778897Y-72151523D01*
X40885032Y-72350089D01*
X41027867Y-72524133D01*
X41201911Y-72666968D01*
X41400477Y-72773103D01*
X41615933Y-72838461D01*
X41783854Y-72855000D01*
X43420146Y-72855000D01*
X43588067Y-72838461D01*
X43803523Y-72773103D01*
X44002089Y-72666968D01*
X44176133Y-72524133D01*
X44318968Y-72350089D01*
X44425103Y-72151523D01*
X44490461Y-71936067D01*
X44512530Y-71712000D01*
X44507279Y-71658685D01*
X47148600Y-74300006D01*
X47148600Y-74823887D01*
X47075358Y-74897129D01*
X46989887Y-75025046D01*
X46931013Y-75167179D01*
X46901000Y-75318066D01*
X46901000Y-75471910D01*
X46931013Y-75622797D01*
X46989887Y-75764930D01*
X47075358Y-75892847D01*
X47184141Y-76001630D01*
X47312058Y-76087101D01*
X47454191Y-76145975D01*
X47605078Y-76175988D01*
X47758922Y-76175988D01*
X47909809Y-76145975D01*
X48051942Y-76087101D01*
X48179859Y-76001630D01*
X48250925Y-75930564D01*
X48255012Y-75930967D01*
X48281199Y-75928388D01*
X48281207Y-75928388D01*
X48359577Y-75920669D01*
X48460123Y-75890169D01*
X48552787Y-75840639D01*
X48634007Y-75773983D01*
X48650708Y-75753633D01*
X51488224Y-72916117D01*
X51591805Y-72916117D01*
X51606177Y-72913258D01*
X54990078Y-76297159D01*
X54847308Y-76268760D01*
X54644172Y-76268760D01*
X54444938Y-76308390D01*
X54257265Y-76386127D01*
X54088363Y-76498983D01*
X53944723Y-76642623D01*
X53831867Y-76811525D01*
X53754130Y-76999198D01*
X53719641Y-77172585D01*
X53714342Y-77114602D01*
X53659581Y-76929398D01*
X53569740Y-76758437D01*
X53562039Y-76746911D01*
X53407074Y-76684587D01*
X52791661Y-77300000D01*
X52805804Y-77314143D01*
X52760903Y-77359044D01*
X52746760Y-77344901D01*
X52732618Y-77359044D01*
X52687717Y-77314143D01*
X52701859Y-77300000D01*
X52086446Y-76684587D01*
X51931481Y-76746911D01*
X51839244Y-76916592D01*
X51781882Y-77101007D01*
X51773288Y-77182386D01*
X51736850Y-76999198D01*
X51659113Y-76811525D01*
X51546257Y-76642623D01*
X51543320Y-76639686D01*
X52131347Y-76639686D01*
X52746760Y-77255099D01*
X53362173Y-76639686D01*
X53299849Y-76484721D01*
X53130168Y-76392484D01*
X52945753Y-76335122D01*
X52753691Y-76314840D01*
X52561362Y-76332418D01*
X52376158Y-76387179D01*
X52205197Y-76477020D01*
X52193671Y-76484721D01*
X52131347Y-76639686D01*
X51543320Y-76639686D01*
X51402617Y-76498983D01*
X51233715Y-76386127D01*
X51046042Y-76308390D01*
X50846808Y-76268760D01*
X50643672Y-76268760D01*
X50444438Y-76308390D01*
X50256765Y-76386127D01*
X50087863Y-76498983D01*
X49944223Y-76642623D01*
X49831367Y-76811525D01*
X49753630Y-76999198D01*
X49745750Y-77038814D01*
X49737870Y-76999198D01*
X49660133Y-76811525D01*
X49547277Y-76642623D01*
X49403637Y-76498983D01*
X49234735Y-76386127D01*
X49047062Y-76308390D01*
X48847828Y-76268760D01*
X48644692Y-76268760D01*
X48445458Y-76308390D01*
X48257785Y-76386127D01*
X48088883Y-76498983D01*
X47945243Y-76642623D01*
X47832387Y-76811525D01*
X47754650Y-76999198D01*
X47745500Y-77045198D01*
X47736350Y-76999198D01*
X47658613Y-76811525D01*
X47545757Y-76642623D01*
X47402117Y-76498983D01*
X47233215Y-76386127D01*
X47045542Y-76308390D01*
X46846308Y-76268760D01*
X46643172Y-76268760D01*
X46443938Y-76308390D01*
X46256265Y-76386127D01*
X46087363Y-76498983D01*
X46031000Y-76555346D01*
X46031000Y-75438659D01*
X46035300Y-75394999D01*
X46031000Y-75351339D01*
X46031000Y-75351333D01*
X46018136Y-75220726D01*
X46018136Y-75220724D01*
X45980669Y-75097213D01*
X45967303Y-75053149D01*
X45884753Y-74898709D01*
X45773659Y-74763341D01*
X45739741Y-74735505D01*
X44658499Y-73654264D01*
X44630659Y-73620341D01*
X44495291Y-73509247D01*
X44340851Y-73426697D01*
X44173274Y-73375864D01*
X44087899Y-73367455D01*
X44002089Y-73297032D01*
X43803523Y-73190897D01*
X43588067Y-73125539D01*
X43420146Y-73109000D01*
X41783854Y-73109000D01*
X41615933Y-73125539D01*
X41400477Y-73190897D01*
X41201911Y-73297032D01*
X41027867Y-73439867D01*
X40885032Y-73613911D01*
X40778897Y-73812477D01*
X40713539Y-74027933D01*
X40691470Y-74252000D01*
X40713539Y-74476067D01*
X40778897Y-74691523D01*
X40885032Y-74890089D01*
X41027867Y-75064133D01*
X41201911Y-75206968D01*
X41400477Y-75313103D01*
X41615933Y-75378461D01*
X41783854Y-75395000D01*
X43420146Y-75395000D01*
X43588067Y-75378461D01*
X43803020Y-75313256D01*
X44253001Y-75763237D01*
X44253001Y-76164046D01*
X44158754Y-76042149D01*
X43997194Y-75901508D01*
X43811301Y-75795089D01*
X43608218Y-75726980D01*
X43395750Y-75699800D01*
X42633750Y-75699800D01*
X42633750Y-76760250D01*
X42653750Y-76760250D01*
X42653750Y-76823750D01*
X42633750Y-76823750D01*
X42633750Y-77884200D01*
X43395750Y-77884200D01*
X43608218Y-77857020D01*
X43811301Y-77788911D01*
X43997194Y-77682492D01*
X44158754Y-77541851D01*
X44253000Y-77419954D01*
X44253000Y-77891340D01*
X44248700Y-77935000D01*
X44253000Y-77978660D01*
X44253000Y-77978666D01*
X44254973Y-77998697D01*
X44265864Y-78109274D01*
X44279600Y-78154555D01*
X44316697Y-78276850D01*
X44399247Y-78431290D01*
X44510341Y-78566659D01*
X44544263Y-78594499D01*
X45371505Y-79421741D01*
X45399341Y-79455659D01*
X45534709Y-79566753D01*
X45689149Y-79649303D01*
X45783758Y-79678002D01*
X45856725Y-79700136D01*
X45873325Y-79701771D01*
X45987333Y-79713000D01*
X45987340Y-79713000D01*
X46031000Y-79717300D01*
X46074660Y-79713000D01*
X57798340Y-79713000D01*
X57842000Y-79717300D01*
X57885660Y-79713000D01*
X57885667Y-79713000D01*
X58016274Y-79700136D01*
X58183851Y-79649303D01*
X58338291Y-79566753D01*
X58473659Y-79455659D01*
X58501499Y-79421736D01*
X59734236Y-78189000D01*
X60034705Y-78189000D01*
X60060729Y-78220711D01*
X60118744Y-78268322D01*
X60184932Y-78303701D01*
X60256751Y-78325487D01*
X60331440Y-78332843D01*
X61631440Y-78332843D01*
X61706129Y-78325487D01*
X61777948Y-78303701D01*
X61844136Y-78268322D01*
X61902151Y-78220711D01*
X61949762Y-78162696D01*
X61985141Y-78096508D01*
X62006927Y-78024689D01*
X62014283Y-77950000D01*
X62014283Y-77655542D01*
X62069299Y-77788362D01*
X62182130Y-77957224D01*
X62325736Y-78100830D01*
X62494598Y-78213661D01*
X62682228Y-78291380D01*
X62881415Y-78331000D01*
X63084505Y-78331000D01*
X63283692Y-78291380D01*
X63471322Y-78213661D01*
X63640184Y-78100830D01*
X63780870Y-77960144D01*
X64369238Y-77960144D01*
X64431532Y-78115083D01*
X64601172Y-78207296D01*
X64785542Y-78264643D01*
X64977557Y-78284918D01*
X65169837Y-78267344D01*
X65354995Y-78212595D01*
X65525914Y-78122775D01*
X65537428Y-78115083D01*
X65599722Y-77960144D01*
X64984480Y-77344901D01*
X64369238Y-77960144D01*
X63780870Y-77960144D01*
X63783790Y-77957224D01*
X63896621Y-77788362D01*
X63974340Y-77600732D01*
X64010888Y-77416992D01*
X64017136Y-77485357D01*
X64071885Y-77670515D01*
X64161705Y-77841434D01*
X64169397Y-77852948D01*
X64324336Y-77915242D01*
X64939579Y-77300000D01*
X64925436Y-77285858D01*
X64970338Y-77240956D01*
X64984480Y-77255099D01*
X64998622Y-77240956D01*
X65043524Y-77285858D01*
X65029381Y-77300000D01*
X65644624Y-77915242D01*
X65799563Y-77852948D01*
X65891776Y-77683308D01*
X65949123Y-77498938D01*
X65956998Y-77424359D01*
X65992080Y-77600732D01*
X66069799Y-77788362D01*
X66182630Y-77957224D01*
X66326236Y-78100830D01*
X66495098Y-78213661D01*
X66682728Y-78291380D01*
X66881915Y-78331000D01*
X67085005Y-78331000D01*
X67284192Y-78291380D01*
X67471822Y-78213661D01*
X67640684Y-78100830D01*
X67646208Y-78095306D01*
X67660435Y-78106981D01*
X68211023Y-78657570D01*
X68226926Y-78676948D01*
X68246303Y-78692850D01*
X68304278Y-78740429D01*
X68341460Y-78760303D01*
X68392531Y-78787601D01*
X68488289Y-78816649D01*
X68562927Y-78824000D01*
X68562930Y-78824000D01*
X68587874Y-78826457D01*
X68612818Y-78824000D01*
X68873000Y-78824000D01*
X68873000Y-79873000D01*
X40127000Y-79873000D01*
X40127000Y-76994145D01*
X40766670Y-76994145D01*
X40818787Y-77180633D01*
X40914228Y-77372394D01*
X41045246Y-77541851D01*
X41206806Y-77682492D01*
X41392699Y-77788911D01*
X41595782Y-77857020D01*
X41808250Y-77884200D01*
X42570250Y-77884200D01*
X42570250Y-76823750D01*
X40830849Y-76823750D01*
X40766670Y-76994145D01*
X40127000Y-76994145D01*
X40127000Y-76589855D01*
X40766670Y-76589855D01*
X40830849Y-76760250D01*
X42570250Y-76760250D01*
X42570250Y-75699800D01*
X41808250Y-75699800D01*
X41595782Y-75726980D01*
X41392699Y-75795089D01*
X41206806Y-75901508D01*
X41045246Y-76042149D01*
X40914228Y-76211606D01*
X40818787Y-76403367D01*
X40766670Y-76589855D01*
X40127000Y-76589855D01*
X40127000Y-58554078D01*
X41059000Y-58554078D01*
X41059000Y-58707922D01*
X41089013Y-58858809D01*
X41147887Y-59000942D01*
X41233358Y-59128859D01*
X41342141Y-59237642D01*
X41470058Y-59323113D01*
X41612191Y-59381987D01*
X41763078Y-59412000D01*
X41916922Y-59412000D01*
X42067809Y-59381987D01*
X42209942Y-59323113D01*
X42337859Y-59237642D01*
X42446642Y-59128859D01*
X42532113Y-59000942D01*
X42590987Y-58858809D01*
X42621000Y-58707922D01*
X42621000Y-58554078D01*
X42590987Y-58403191D01*
X42532113Y-58261058D01*
X42446642Y-58133141D01*
X42337859Y-58024358D01*
X42209942Y-57938887D01*
X42067809Y-57880013D01*
X41916922Y-57850000D01*
X41763078Y-57850000D01*
X41612191Y-57880013D01*
X41470058Y-57938887D01*
X41342141Y-58024358D01*
X41233358Y-58133141D01*
X41147887Y-58261058D01*
X41089013Y-58403191D01*
X41059000Y-58554078D01*
X40127000Y-58554078D01*
X40127000Y-56395078D01*
X40678000Y-56395078D01*
X40678000Y-56548922D01*
X40708013Y-56699809D01*
X40766887Y-56841942D01*
X40852358Y-56969859D01*
X40961141Y-57078642D01*
X41089058Y-57164113D01*
X41231191Y-57222987D01*
X41382078Y-57253000D01*
X41535922Y-57253000D01*
X41686809Y-57222987D01*
X41828942Y-57164113D01*
X41956859Y-57078642D01*
X42065642Y-56969859D01*
X42151113Y-56841942D01*
X42209987Y-56699809D01*
X42240000Y-56548922D01*
X42240000Y-56395078D01*
X42209987Y-56244191D01*
X42151113Y-56102058D01*
X42105242Y-56033407D01*
X42170602Y-56014081D01*
X42341563Y-55924240D01*
X42353089Y-55916539D01*
X42415413Y-55761574D01*
X41800000Y-55146161D01*
X41785858Y-55160304D01*
X41740957Y-55115403D01*
X41755099Y-55101260D01*
X41844901Y-55101260D01*
X42460314Y-55716673D01*
X42615279Y-55654349D01*
X42707516Y-55484668D01*
X42764878Y-55300253D01*
X42785160Y-55108191D01*
X42767582Y-54915862D01*
X42712821Y-54730658D01*
X42622980Y-54559697D01*
X42615279Y-54548171D01*
X42460314Y-54485847D01*
X41844901Y-55101260D01*
X41755099Y-55101260D01*
X41139686Y-54485847D01*
X40984721Y-54548171D01*
X40892484Y-54717852D01*
X40835122Y-54902267D01*
X40814840Y-55094329D01*
X40832418Y-55286658D01*
X40887179Y-55471862D01*
X40977020Y-55642823D01*
X40984721Y-55654349D01*
X41139684Y-55716672D01*
X41081353Y-55775003D01*
X41087367Y-55781017D01*
X40961141Y-55865358D01*
X40852358Y-55974141D01*
X40766887Y-56102058D01*
X40708013Y-56244191D01*
X40678000Y-56395078D01*
X40127000Y-56395078D01*
X40127000Y-41627000D01*
X51082859Y-41627000D01*
X50972191Y-41649013D01*
X50972191Y-41649013D01*
G37*
X50972191Y-41649013D02*
X50830058Y-41707887D01*
X50702141Y-41793358D01*
X50593358Y-41902141D01*
X50507887Y-42030058D01*
X50449013Y-42172191D01*
X50419000Y-42323078D01*
X50419000Y-42476922D01*
X50423988Y-42502000D01*
X45331902Y-42502000D01*
X45282000Y-42497085D01*
X45232098Y-42502000D01*
X45082829Y-42516702D01*
X44891313Y-42574798D01*
X44714810Y-42669140D01*
X44560104Y-42796104D01*
X44528292Y-42834867D01*
X43276698Y-44086461D01*
X41980460Y-44083192D01*
X41901568Y-44067500D01*
X41698432Y-44067500D01*
X41499198Y-44107130D01*
X41311525Y-44184867D01*
X41142623Y-44297723D01*
X40998983Y-44441363D01*
X40886127Y-44610265D01*
X40808390Y-44797938D01*
X40768760Y-44997172D01*
X40768760Y-45200308D01*
X40808390Y-45399542D01*
X40886127Y-45587215D01*
X40998983Y-45756117D01*
X41142623Y-45899757D01*
X41311525Y-46012613D01*
X41499198Y-46090350D01*
X41545198Y-46099500D01*
X41499198Y-46108650D01*
X41311525Y-46186387D01*
X41142623Y-46299243D01*
X40998983Y-46442883D01*
X40886127Y-46611785D01*
X40808390Y-46799458D01*
X40768760Y-46998692D01*
X40768760Y-47201828D01*
X40808390Y-47401062D01*
X40886127Y-47588735D01*
X40998983Y-47757637D01*
X41142623Y-47901277D01*
X41311525Y-48014133D01*
X41499198Y-48091870D01*
X41538814Y-48099750D01*
X41499198Y-48107630D01*
X41311525Y-48185367D01*
X41142623Y-48298223D01*
X40998983Y-48441863D01*
X40886127Y-48610765D01*
X40808390Y-48798438D01*
X40768760Y-48997672D01*
X40768760Y-49200808D01*
X40808390Y-49400042D01*
X40886127Y-49587715D01*
X40998983Y-49756617D01*
X41142623Y-49900257D01*
X41311525Y-50013113D01*
X41499198Y-50090850D01*
X41545198Y-50100000D01*
X41499198Y-50109150D01*
X41311525Y-50186887D01*
X41142623Y-50299743D01*
X40998983Y-50443383D01*
X40886127Y-50612285D01*
X40808390Y-50799958D01*
X40768760Y-50999192D01*
X40768760Y-51202328D01*
X40808390Y-51401562D01*
X40886127Y-51589235D01*
X40998983Y-51758137D01*
X41142623Y-51901777D01*
X41311525Y-52014633D01*
X41499198Y-52092370D01*
X41538814Y-52100250D01*
X41499198Y-52108130D01*
X41311525Y-52185867D01*
X41142623Y-52298723D01*
X40998983Y-52442363D01*
X40886127Y-52611265D01*
X40808390Y-52798938D01*
X40768760Y-52998172D01*
X40768760Y-53201308D01*
X40808390Y-53400542D01*
X40886127Y-53588215D01*
X40998983Y-53757117D01*
X41142623Y-53900757D01*
X41311525Y-54013613D01*
X41499198Y-54091350D01*
X41681334Y-54127579D01*
X41614602Y-54133678D01*
X41429398Y-54188439D01*
X41258437Y-54278280D01*
X41246911Y-54285981D01*
X41184587Y-54440946D01*
X41800000Y-55056359D01*
X42415413Y-54440946D01*
X42353089Y-54285981D01*
X42183408Y-54193744D01*
X41998993Y-54136382D01*
X41917614Y-54127788D01*
X42100802Y-54091350D01*
X42288475Y-54013613D01*
X42457377Y-53900757D01*
X42601017Y-53757117D01*
X42713873Y-53588215D01*
X42791610Y-53400542D01*
X42831240Y-53201308D01*
X42831240Y-52998172D01*
X42791610Y-52798938D01*
X42713873Y-52611265D01*
X42601017Y-52442363D01*
X42457377Y-52298723D01*
X42288475Y-52185867D01*
X42100802Y-52108130D01*
X42061186Y-52100250D01*
X42100802Y-52092370D01*
X42288475Y-52014633D01*
X42457377Y-51901777D01*
X42601017Y-51758137D01*
X42713873Y-51589235D01*
X42791610Y-51401562D01*
X42831240Y-51202328D01*
X42831240Y-50999192D01*
X42791610Y-50799958D01*
X42713873Y-50612285D01*
X42601017Y-50443383D01*
X42457377Y-50299743D01*
X42288475Y-50186887D01*
X42100802Y-50109150D01*
X42054802Y-50100000D01*
X42100802Y-50090850D01*
X42288475Y-50013113D01*
X42457377Y-49900257D01*
X42601017Y-49756617D01*
X42713873Y-49587715D01*
X42791610Y-49400042D01*
X42831240Y-49200808D01*
X42831240Y-48997672D01*
X42791610Y-48798438D01*
X42713873Y-48610765D01*
X42601017Y-48441863D01*
X42457377Y-48298223D01*
X42288475Y-48185367D01*
X42100802Y-48107630D01*
X42061186Y-48099750D01*
X42100802Y-48091870D01*
X42288475Y-48014133D01*
X42457377Y-47901277D01*
X42535576Y-47823078D01*
X45619000Y-47823078D01*
X45619000Y-47976922D01*
X45649013Y-48127809D01*
X45707887Y-48269942D01*
X45793358Y-48397859D01*
X45902141Y-48506642D01*
X46030058Y-48592113D01*
X46172191Y-48650987D01*
X46323078Y-48681000D01*
X46476922Y-48681000D01*
X46627809Y-48650987D01*
X46769942Y-48592113D01*
X46897859Y-48506642D01*
X47006642Y-48397859D01*
X47092113Y-48269942D01*
X47150987Y-48127809D01*
X47181000Y-47976922D01*
X47181000Y-47823078D01*
X47150987Y-47672191D01*
X47092113Y-47530058D01*
X47006642Y-47402141D01*
X46897859Y-47293358D01*
X46769942Y-47207887D01*
X46627809Y-47149013D01*
X46476922Y-47119000D01*
X46323078Y-47119000D01*
X46172191Y-47149013D01*
X46030058Y-47207887D01*
X45902141Y-47293358D01*
X45793358Y-47402141D01*
X45707887Y-47530058D01*
X45649013Y-47672191D01*
X45619000Y-47823078D01*
X42535576Y-47823078D01*
X42601017Y-47757637D01*
X42713873Y-47588735D01*
X42791610Y-47401062D01*
X42831240Y-47201828D01*
X42831240Y-46998692D01*
X42791610Y-46799458D01*
X42713873Y-46611785D01*
X42601017Y-46442883D01*
X42457377Y-46299243D01*
X42288475Y-46186387D01*
X42117443Y-46115543D01*
X43645151Y-46119396D01*
X43646435Y-46119522D01*
X43646576Y-46119522D01*
X43696478Y-46124437D01*
X43746380Y-46119522D01*
X43800287Y-46114213D01*
X43892982Y-46105319D01*
X43894151Y-46104968D01*
X43895649Y-46104820D01*
X44005673Y-46071444D01*
X44084644Y-46047706D01*
X44085597Y-46047200D01*
X44087165Y-46046724D01*
X44197639Y-45987675D01*
X44261384Y-45953809D01*
X44262115Y-45953212D01*
X44263668Y-45952382D01*
X44367506Y-45867164D01*
X44416410Y-45827236D01*
X44416937Y-45826598D01*
X44418374Y-45825418D01*
X44450190Y-45786650D01*
X45702841Y-44534000D01*
X54881160Y-44534000D01*
X60255000Y-49907841D01*
X60255001Y-51119000D01*
X60123078Y-51119000D01*
X59972191Y-51149013D01*
X59830058Y-51207887D01*
X59702141Y-51293358D01*
X59593358Y-51402141D01*
X59507887Y-51530058D01*
X59449013Y-51672191D01*
X59419000Y-51823078D01*
X59419000Y-51976922D01*
X59449013Y-52127809D01*
X59507887Y-52269942D01*
X59593358Y-52397859D01*
X59702141Y-52506642D01*
X59830058Y-52592113D01*
X59972191Y-52650987D01*
X60123078Y-52681000D01*
X60276922Y-52681000D01*
X60427809Y-52650987D01*
X60536150Y-52606110D01*
X60549105Y-52621896D01*
X60703811Y-52748860D01*
X60880314Y-52843202D01*
X61071830Y-52901298D01*
X61271000Y-52920915D01*
X61470171Y-52901298D01*
X61661687Y-52843202D01*
X61838190Y-52748860D01*
X61992896Y-52621896D01*
X62119860Y-52467190D01*
X62214202Y-52290687D01*
X62272298Y-52099171D01*
X62287000Y-51949902D01*
X62287000Y-49536902D01*
X62291915Y-49487000D01*
X62280496Y-49371058D01*
X62272298Y-49287829D01*
X62214202Y-49096313D01*
X62119860Y-48919810D01*
X62105308Y-48902078D01*
X63284000Y-48902078D01*
X63284000Y-49055922D01*
X63314013Y-49206809D01*
X63372887Y-49348942D01*
X63458358Y-49476859D01*
X63567141Y-49585642D01*
X63695058Y-49671113D01*
X63837191Y-49729987D01*
X63988078Y-49760000D01*
X64141922Y-49760000D01*
X64292809Y-49729987D01*
X64434942Y-49671113D01*
X64562859Y-49585642D01*
X64671642Y-49476859D01*
X64757113Y-49348942D01*
X64815987Y-49206809D01*
X64846000Y-49055922D01*
X64846000Y-48902078D01*
X64815987Y-48751191D01*
X64757113Y-48609058D01*
X64671642Y-48481141D01*
X64562859Y-48372358D01*
X64434942Y-48286887D01*
X64292809Y-48228013D01*
X64141922Y-48198000D01*
X63988078Y-48198000D01*
X63837191Y-48228013D01*
X63695058Y-48286887D01*
X63567141Y-48372358D01*
X63458358Y-48481141D01*
X63372887Y-48609058D01*
X63314013Y-48751191D01*
X63284000Y-48902078D01*
X62105308Y-48902078D01*
X61992896Y-48765104D01*
X61954133Y-48733292D01*
X57520471Y-44299630D01*
X58340482Y-44299630D01*
X58346857Y-44364361D01*
X58365739Y-44426604D01*
X58396400Y-44483967D01*
X58437663Y-44534247D01*
X58487943Y-44575510D01*
X58545306Y-44606171D01*
X58607549Y-44625053D01*
X58672280Y-44631428D01*
X59157420Y-44629830D01*
X59239970Y-44547280D01*
X59239970Y-43481750D01*
X59303470Y-43481750D01*
X59303470Y-44547280D01*
X59386020Y-44629830D01*
X59871160Y-44631428D01*
X59935891Y-44625053D01*
X59998134Y-44606171D01*
X60055497Y-44575510D01*
X60105777Y-44534247D01*
X60147040Y-44483967D01*
X60177701Y-44426604D01*
X60196583Y-44364361D01*
X60202958Y-44299630D01*
X60201360Y-43564300D01*
X60118810Y-43481750D01*
X59303470Y-43481750D01*
X59239970Y-43481750D01*
X58424630Y-43481750D01*
X58342080Y-43564300D01*
X58340482Y-44299630D01*
X57520471Y-44299630D01*
X56055712Y-42834872D01*
X56023896Y-42796104D01*
X55869190Y-42669140D01*
X55740530Y-42600370D01*
X58340482Y-42600370D01*
X58342080Y-43335700D01*
X58424630Y-43418250D01*
X59239970Y-43418250D01*
X59239970Y-42352720D01*
X59303470Y-42352720D01*
X59303470Y-43418250D01*
X60118810Y-43418250D01*
X60201360Y-43335700D01*
X60201759Y-43151654D01*
X60292800Y-43151654D01*
X60292800Y-43748347D01*
X60306987Y-43892390D01*
X60363050Y-44077203D01*
X60454091Y-44247528D01*
X60576611Y-44396820D01*
X60725903Y-44519340D01*
X60896228Y-44610380D01*
X61081041Y-44666443D01*
X61273240Y-44685373D01*
X61465440Y-44666443D01*
X61650253Y-44610380D01*
X61820578Y-44519340D01*
X61969870Y-44396820D01*
X62092390Y-44247528D01*
X62183430Y-44077203D01*
X62239493Y-43892389D01*
X62253680Y-43748346D01*
X62253680Y-43151654D01*
X62294320Y-43151654D01*
X62294320Y-43748347D01*
X62308507Y-43892390D01*
X62364570Y-44077203D01*
X62455611Y-44247528D01*
X62578131Y-44396820D01*
X62727423Y-44519340D01*
X62897748Y-44610380D01*
X63082561Y-44666443D01*
X63274760Y-44685373D01*
X63466960Y-44666443D01*
X63651773Y-44610380D01*
X63822098Y-44519340D01*
X63971390Y-44396820D01*
X64093910Y-44247528D01*
X64184950Y-44077203D01*
X64241013Y-43892389D01*
X64255200Y-43748346D01*
X64255200Y-43151654D01*
X64293300Y-43151654D01*
X64293300Y-43748347D01*
X64307487Y-43892390D01*
X64363550Y-44077203D01*
X64454591Y-44247528D01*
X64577111Y-44396820D01*
X64726403Y-44519340D01*
X64896728Y-44610380D01*
X65081541Y-44666443D01*
X65273740Y-44685373D01*
X65465940Y-44666443D01*
X65650753Y-44610380D01*
X65821078Y-44519340D01*
X65970370Y-44396820D01*
X66092890Y-44247528D01*
X66183930Y-44077203D01*
X66239993Y-43892389D01*
X66254180Y-43748346D01*
X66254180Y-43151653D01*
X66239993Y-43007610D01*
X66183930Y-42822797D01*
X66092890Y-42652472D01*
X65970370Y-42503180D01*
X65821078Y-42380660D01*
X65650752Y-42289620D01*
X65465939Y-42233557D01*
X65273740Y-42214627D01*
X65081540Y-42233557D01*
X64896727Y-42289620D01*
X64726402Y-42380660D01*
X64577110Y-42503180D01*
X64454590Y-42652472D01*
X64363550Y-42822798D01*
X64307487Y-43007611D01*
X64293300Y-43151654D01*
X64255200Y-43151654D01*
X64255200Y-43151653D01*
X64241013Y-43007610D01*
X64184950Y-42822797D01*
X64093910Y-42652472D01*
X63971390Y-42503180D01*
X63822098Y-42380660D01*
X63651772Y-42289620D01*
X63466959Y-42233557D01*
X63274760Y-42214627D01*
X63082560Y-42233557D01*
X62897747Y-42289620D01*
X62727422Y-42380660D01*
X62578130Y-42503180D01*
X62455610Y-42652472D01*
X62364570Y-42822798D01*
X62308507Y-43007611D01*
X62294320Y-43151654D01*
X62253680Y-43151654D01*
X62253680Y-43151653D01*
X62239493Y-43007610D01*
X62183430Y-42822797D01*
X62092390Y-42652472D01*
X61969870Y-42503180D01*
X61820578Y-42380660D01*
X61650252Y-42289620D01*
X61465439Y-42233557D01*
X61273240Y-42214627D01*
X61081040Y-42233557D01*
X60896227Y-42289620D01*
X60725902Y-42380660D01*
X60576610Y-42503180D01*
X60454090Y-42652472D01*
X60363050Y-42822798D01*
X60306987Y-43007611D01*
X60292800Y-43151654D01*
X60201759Y-43151654D01*
X60202958Y-42600370D01*
X60196583Y-42535639D01*
X60177701Y-42473396D01*
X60147040Y-42416033D01*
X60105777Y-42365753D01*
X60055497Y-42324490D01*
X59998134Y-42293829D01*
X59935891Y-42274947D01*
X59871160Y-42268572D01*
X59386020Y-42270170D01*
X59303470Y-42352720D01*
X59239970Y-42352720D01*
X59157420Y-42270170D01*
X58672280Y-42268572D01*
X58607549Y-42274947D01*
X58545306Y-42293829D01*
X58487943Y-42324490D01*
X58437663Y-42365753D01*
X58396400Y-42416033D01*
X58365739Y-42473396D01*
X58346857Y-42535639D01*
X58340482Y-42600370D01*
X55740530Y-42600370D01*
X55692687Y-42574798D01*
X55501171Y-42516702D01*
X55351902Y-42502000D01*
X55302000Y-42497085D01*
X55252098Y-42502000D01*
X51976012Y-42502000D01*
X51981000Y-42476922D01*
X51981000Y-42323078D01*
X51950987Y-42172191D01*
X51892113Y-42030058D01*
X51806642Y-41902141D01*
X51697859Y-41793358D01*
X51569942Y-41707887D01*
X51427809Y-41649013D01*
X51317141Y-41627000D01*
X68873000Y-41627000D01*
X68873000Y-42047592D01*
X68797413Y-41997087D01*
X68589401Y-41910925D01*
X68368576Y-41867000D01*
X68143424Y-41867000D01*
X67922599Y-41910925D01*
X67714587Y-41997087D01*
X67527380Y-42122174D01*
X67368174Y-42281380D01*
X67243087Y-42468587D01*
X67156925Y-42676599D01*
X67113000Y-42897424D01*
X67113000Y-43122576D01*
X67156925Y-43343401D01*
X67243087Y-43551413D01*
X67368174Y-43738620D01*
X67527380Y-43897826D01*
X67529137Y-43899000D01*
X67527380Y-43900174D01*
X67368174Y-44059380D01*
X67243087Y-44246587D01*
X67156925Y-44454599D01*
X67113000Y-44675424D01*
X67113000Y-44900576D01*
X67156925Y-45121401D01*
X67243087Y-45329413D01*
X67368174Y-45516620D01*
X67527380Y-45675826D01*
X67529137Y-45677000D01*
X67527380Y-45678174D01*
X67368174Y-45837380D01*
X67243087Y-46024587D01*
X67156925Y-46232599D01*
X67113000Y-46453424D01*
X67113000Y-46678576D01*
X67156925Y-46899401D01*
X67243087Y-47107413D01*
X67368174Y-47294620D01*
X67527380Y-47453826D01*
X67714587Y-47578913D01*
X67922599Y-47665075D01*
X68143424Y-47709000D01*
X68368576Y-47709000D01*
X68589401Y-47665075D01*
X68797413Y-47578913D01*
X68873000Y-47528408D01*
X68873000Y-55121173D01*
X68040344Y-55953829D01*
X68013697Y-55975698D01*
X67991829Y-56002344D01*
X67991826Y-56002347D01*
X67926409Y-56082057D01*
X67863902Y-56199000D01*
X67861548Y-56203404D01*
X67821607Y-56335071D01*
X67811500Y-56437692D01*
X67811500Y-56437702D01*
X67808122Y-56472000D01*
X67811500Y-56506298D01*
X67811501Y-58957931D01*
X66381004Y-57527435D01*
X66365097Y-57508052D01*
X66287744Y-57444571D01*
X66236269Y-57417057D01*
X66281113Y-57349942D01*
X66339987Y-57207809D01*
X66370000Y-57056922D01*
X66370000Y-56903078D01*
X66339987Y-56752191D01*
X66281113Y-56610058D01*
X66195642Y-56482141D01*
X66086859Y-56373358D01*
X65958942Y-56287887D01*
X65816809Y-56229013D01*
X65665922Y-56199000D01*
X65512078Y-56199000D01*
X65361191Y-56229013D01*
X65219058Y-56287887D01*
X65091141Y-56373358D01*
X64982358Y-56482141D01*
X64896887Y-56610058D01*
X64838013Y-56752191D01*
X64808000Y-56903078D01*
X64808000Y-57056922D01*
X64838013Y-57207809D01*
X64896887Y-57349942D01*
X64904276Y-57361000D01*
X61838081Y-57361000D01*
X59441942Y-54964861D01*
X59523078Y-54981000D01*
X59676922Y-54981000D01*
X59827809Y-54950987D01*
X59969942Y-54892113D01*
X60097859Y-54806642D01*
X60206642Y-54697859D01*
X60292113Y-54569942D01*
X60350987Y-54427809D01*
X60381000Y-54276922D01*
X60381000Y-54123078D01*
X60350987Y-53972191D01*
X60292113Y-53830058D01*
X60223973Y-53728078D01*
X63284000Y-53728078D01*
X63284000Y-53881922D01*
X63314013Y-54032809D01*
X63372887Y-54174942D01*
X63458358Y-54302859D01*
X63531999Y-54376500D01*
X63458358Y-54450141D01*
X63372887Y-54578058D01*
X63314013Y-54720191D01*
X63284000Y-54871078D01*
X63284000Y-55024922D01*
X63314013Y-55175809D01*
X63372887Y-55317942D01*
X63458358Y-55445859D01*
X63567141Y-55554642D01*
X63695058Y-55640113D01*
X63837191Y-55698987D01*
X63988078Y-55729000D01*
X64141922Y-55729000D01*
X64292809Y-55698987D01*
X64434942Y-55640113D01*
X64562859Y-55554642D01*
X64671642Y-55445859D01*
X64757113Y-55317942D01*
X64815987Y-55175809D01*
X64846000Y-55024922D01*
X64846000Y-54871078D01*
X64815987Y-54720191D01*
X64757113Y-54578058D01*
X64671642Y-54450141D01*
X64598001Y-54376500D01*
X64671642Y-54302859D01*
X64757113Y-54174942D01*
X64815987Y-54032809D01*
X64846000Y-53881922D01*
X64846000Y-53728078D01*
X64815987Y-53577191D01*
X64757113Y-53435058D01*
X64671642Y-53307141D01*
X64562859Y-53198358D01*
X64434942Y-53112887D01*
X64292809Y-53054013D01*
X64141922Y-53024000D01*
X63988078Y-53024000D01*
X63837191Y-53054013D01*
X63695058Y-53112887D01*
X63567141Y-53198358D01*
X63458358Y-53307141D01*
X63372887Y-53435058D01*
X63314013Y-53577191D01*
X63284000Y-53728078D01*
X60223973Y-53728078D01*
X60206642Y-53702141D01*
X60097859Y-53593358D01*
X59969942Y-53507887D01*
X59827809Y-53449013D01*
X59676922Y-53419000D01*
X59523078Y-53419000D01*
X59372191Y-53449013D01*
X59230058Y-53507887D01*
X59102141Y-53593358D01*
X58993358Y-53702141D01*
X58907887Y-53830058D01*
X58849013Y-53972191D01*
X58819000Y-54123078D01*
X58819000Y-54276922D01*
X58835139Y-54358058D01*
X56445909Y-51968829D01*
X56445909Y-50708853D01*
X56448366Y-50683909D01*
X56445909Y-50658962D01*
X56438558Y-50584324D01*
X56409510Y-50488566D01*
X56362338Y-50400314D01*
X56298857Y-50322961D01*
X56279474Y-50307054D01*
X55371855Y-49399435D01*
X55355948Y-49380052D01*
X55278595Y-49316571D01*
X55190343Y-49269399D01*
X55094585Y-49240351D01*
X55019947Y-49233000D01*
X55019944Y-49233000D01*
X54995000Y-49230543D01*
X54970056Y-49233000D01*
X54501501Y-49233000D01*
X54402859Y-49134358D01*
X54274942Y-49048887D01*
X54132809Y-48990013D01*
X53981922Y-48960000D01*
X53828078Y-48960000D01*
X53677191Y-48990013D01*
X53535058Y-49048887D01*
X53407141Y-49134358D01*
X53298358Y-49243141D01*
X53212887Y-49371058D01*
X53154013Y-49513191D01*
X53124000Y-49664078D01*
X53124000Y-49817922D01*
X53154013Y-49968809D01*
X53212887Y-50110942D01*
X53298358Y-50238859D01*
X53407141Y-50347642D01*
X53535058Y-50433113D01*
X53677191Y-50491987D01*
X53828078Y-50522000D01*
X53981922Y-50522000D01*
X54132809Y-50491987D01*
X54274942Y-50433113D01*
X54402859Y-50347642D01*
X54501501Y-50249000D01*
X54784580Y-50249000D01*
X54882535Y-50346955D01*
X54872191Y-50349013D01*
X54730058Y-50407887D01*
X54602141Y-50493358D01*
X54493358Y-50602141D01*
X54407887Y-50730058D01*
X54385325Y-50784526D01*
X49944211Y-50784526D01*
X49845569Y-50685884D01*
X49717652Y-50600413D01*
X49575519Y-50541539D01*
X49424632Y-50511526D01*
X49270788Y-50511526D01*
X49119901Y-50541539D01*
X48977768Y-50600413D01*
X48849851Y-50685884D01*
X48741068Y-50794667D01*
X48655597Y-50922584D01*
X48596723Y-51064717D01*
X48566710Y-51215604D01*
X48566710Y-51369448D01*
X48596723Y-51520335D01*
X48655597Y-51662468D01*
X48741068Y-51790385D01*
X48849851Y-51899168D01*
X48977768Y-51984639D01*
X49119901Y-52043513D01*
X49270788Y-52073526D01*
X49424632Y-52073526D01*
X49575519Y-52043513D01*
X49717652Y-51984639D01*
X49845569Y-51899168D01*
X49944211Y-51800526D01*
X50459733Y-51800526D01*
X46913935Y-55346325D01*
X46894552Y-55362232D01*
X46831071Y-55439585D01*
X46783899Y-55527838D01*
X46754851Y-55623596D01*
X46747500Y-55698233D01*
X46745043Y-55723180D01*
X46747500Y-55748124D01*
X46747500Y-55965021D01*
X46669942Y-55913199D01*
X46527809Y-55854325D01*
X46376922Y-55824312D01*
X46223078Y-55824312D01*
X46072191Y-55854325D01*
X45930058Y-55913199D01*
X45802141Y-55998670D01*
X45693358Y-56107453D01*
X45607887Y-56235370D01*
X45549013Y-56377503D01*
X45519000Y-56528390D01*
X45519000Y-56682234D01*
X45549013Y-56833121D01*
X45607887Y-56975254D01*
X45693358Y-57103171D01*
X45802141Y-57211954D01*
X45930058Y-57297425D01*
X46072191Y-57356299D01*
X46223078Y-57386312D01*
X46376922Y-57386312D01*
X46527809Y-57356299D01*
X46669942Y-57297425D01*
X46747500Y-57245602D01*
X46747501Y-61567747D01*
X46638457Y-61494887D01*
X46496324Y-61436013D01*
X46345437Y-61406000D01*
X46191593Y-61406000D01*
X46040706Y-61436013D01*
X45898573Y-61494887D01*
X45770656Y-61580358D01*
X45661873Y-61689141D01*
X45576402Y-61817058D01*
X45517528Y-61959191D01*
X45505755Y-62018377D01*
X45500207Y-62004983D01*
X45414736Y-61877066D01*
X45305953Y-61768283D01*
X45178036Y-61682812D01*
X45035903Y-61623938D01*
X44885016Y-61593925D01*
X44778418Y-61593925D01*
X44778418Y-59951078D01*
X44869000Y-59951078D01*
X44869000Y-60104922D01*
X44899013Y-60255809D01*
X44957887Y-60397942D01*
X45043358Y-60525859D01*
X45152141Y-60634642D01*
X45280058Y-60720113D01*
X45422191Y-60778987D01*
X45573078Y-60809000D01*
X45726922Y-60809000D01*
X45877809Y-60778987D01*
X46019942Y-60720113D01*
X46147859Y-60634642D01*
X46256642Y-60525859D01*
X46342113Y-60397942D01*
X46400987Y-60255809D01*
X46431000Y-60104922D01*
X46431000Y-59951078D01*
X46400987Y-59800191D01*
X46342113Y-59658058D01*
X46256642Y-59530141D01*
X46147859Y-59421358D01*
X46019942Y-59335887D01*
X45877809Y-59277013D01*
X45726922Y-59247000D01*
X45573078Y-59247000D01*
X45422191Y-59277013D01*
X45280058Y-59335887D01*
X45152141Y-59421358D01*
X45043358Y-59530141D01*
X44957887Y-59658058D01*
X44899013Y-59800191D01*
X44869000Y-59951078D01*
X44778418Y-59951078D01*
X44778418Y-52827896D01*
X45229790Y-52376524D01*
X45541574Y-52376524D01*
X45541574Y-52530368D01*
X45571587Y-52681255D01*
X45630461Y-52823388D01*
X45715932Y-52951305D01*
X45824715Y-53060088D01*
X45952632Y-53145559D01*
X46094765Y-53204433D01*
X46245652Y-53234446D01*
X46399496Y-53234446D01*
X46550383Y-53204433D01*
X46692516Y-53145559D01*
X46820433Y-53060088D01*
X46929216Y-52951305D01*
X47014687Y-52823388D01*
X47073561Y-52681255D01*
X47103574Y-52530368D01*
X47103574Y-52376524D01*
X47073561Y-52225637D01*
X47014687Y-52083504D01*
X46929216Y-51955587D01*
X46820433Y-51846804D01*
X46692516Y-51761333D01*
X46550383Y-51702459D01*
X46399496Y-51672446D01*
X46245652Y-51672446D01*
X46094765Y-51702459D01*
X45952632Y-51761333D01*
X45824715Y-51846804D01*
X45715932Y-51955587D01*
X45630461Y-52083504D01*
X45571587Y-52225637D01*
X45541574Y-52376524D01*
X45229790Y-52376524D01*
X48183236Y-49423078D01*
X49951522Y-49423078D01*
X49951522Y-49576922D01*
X49981535Y-49727809D01*
X50040409Y-49869942D01*
X50125880Y-49997859D01*
X50234663Y-50106642D01*
X50362580Y-50192113D01*
X50504713Y-50250987D01*
X50655600Y-50281000D01*
X50809444Y-50281000D01*
X50960331Y-50250987D01*
X51102464Y-50192113D01*
X51230381Y-50106642D01*
X51339164Y-49997859D01*
X51424635Y-49869942D01*
X51483509Y-49727809D01*
X51513522Y-49576922D01*
X51513522Y-49423078D01*
X51483509Y-49272191D01*
X51424635Y-49130058D01*
X51339164Y-49002141D01*
X51230381Y-48893358D01*
X51102464Y-48807887D01*
X50960331Y-48749013D01*
X50809444Y-48719000D01*
X50655600Y-48719000D01*
X50504713Y-48749013D01*
X50362580Y-48807887D01*
X50234663Y-48893358D01*
X50125880Y-49002141D01*
X50040409Y-49130058D01*
X49981535Y-49272191D01*
X49951522Y-49423078D01*
X48183236Y-49423078D01*
X51041571Y-46564744D01*
X51060948Y-46548842D01*
X51116844Y-46480732D01*
X51124429Y-46471490D01*
X51149643Y-46424318D01*
X51171601Y-46383237D01*
X51200649Y-46287479D01*
X51208000Y-46212841D01*
X51208000Y-46212839D01*
X51209785Y-46194716D01*
X51306642Y-46097859D01*
X51392113Y-45969942D01*
X51450987Y-45827809D01*
X51481000Y-45676922D01*
X51481000Y-45613229D01*
X52319000Y-45613229D01*
X52319000Y-45786771D01*
X52352856Y-45956978D01*
X52419268Y-46117310D01*
X52515682Y-46261605D01*
X52638395Y-46384318D01*
X52782690Y-46480732D01*
X52943022Y-46547144D01*
X52996411Y-46557764D01*
X52949013Y-46672191D01*
X52919000Y-46823078D01*
X52919000Y-46976922D01*
X52949013Y-47127809D01*
X53007887Y-47269942D01*
X53093358Y-47397859D01*
X53202141Y-47506642D01*
X53330058Y-47592113D01*
X53472191Y-47650987D01*
X53623078Y-47681000D01*
X53776922Y-47681000D01*
X53927809Y-47650987D01*
X54069942Y-47592113D01*
X54197859Y-47506642D01*
X54306642Y-47397859D01*
X54392113Y-47269942D01*
X54450987Y-47127809D01*
X54481000Y-46976922D01*
X54481000Y-46823078D01*
X54450987Y-46672191D01*
X54392113Y-46530058D01*
X54306642Y-46402141D01*
X54197859Y-46293358D01*
X54069942Y-46207887D01*
X53952669Y-46159310D01*
X53980732Y-46117310D01*
X54047144Y-45956978D01*
X54081000Y-45786771D01*
X54081000Y-45613229D01*
X54047144Y-45443022D01*
X53980732Y-45282690D01*
X53884318Y-45138395D01*
X53761605Y-45015682D01*
X53617310Y-44919268D01*
X53456978Y-44852856D01*
X53286771Y-44819000D01*
X53113229Y-44819000D01*
X52943022Y-44852856D01*
X52782690Y-44919268D01*
X52638395Y-45015682D01*
X52515682Y-45138395D01*
X52419268Y-45282690D01*
X52352856Y-45443022D01*
X52319000Y-45613229D01*
X51481000Y-45613229D01*
X51481000Y-45523078D01*
X51450987Y-45372191D01*
X51392113Y-45230058D01*
X51306642Y-45102141D01*
X51197859Y-44993358D01*
X51069942Y-44907887D01*
X50927809Y-44849013D01*
X50776922Y-44819000D01*
X50623078Y-44819000D01*
X50472191Y-44849013D01*
X50330058Y-44907887D01*
X50202141Y-44993358D01*
X50093358Y-45102141D01*
X50007887Y-45230058D01*
X49983409Y-45289153D01*
X49980732Y-45282690D01*
X49884318Y-45138395D01*
X49761605Y-45015682D01*
X49617310Y-44919268D01*
X49456978Y-44852856D01*
X49286771Y-44819000D01*
X49113229Y-44819000D01*
X48943022Y-44852856D01*
X48782690Y-44919268D01*
X48638395Y-45015682D01*
X48515682Y-45138395D01*
X48419268Y-45282690D01*
X48352856Y-45443022D01*
X48319000Y-45613229D01*
X48319000Y-45786771D01*
X48352856Y-45956978D01*
X48419268Y-46117310D01*
X48495305Y-46231108D01*
X48402141Y-46293358D01*
X48293358Y-46402141D01*
X48207887Y-46530058D01*
X48149013Y-46672191D01*
X48119000Y-46823078D01*
X48119000Y-46976922D01*
X48149013Y-47127809D01*
X48207887Y-47269942D01*
X48293358Y-47397859D01*
X48402141Y-47506642D01*
X48530058Y-47592113D01*
X48563506Y-47605968D01*
X43928853Y-52240621D01*
X43909470Y-52256528D01*
X43845989Y-52333881D01*
X43798817Y-52422134D01*
X43769769Y-52517892D01*
X43762459Y-52592113D01*
X43759961Y-52617476D01*
X43762418Y-52642420D01*
X43762419Y-61695639D01*
X41438370Y-64019689D01*
X41412039Y-63993358D01*
X41284122Y-63907887D01*
X41141989Y-63849013D01*
X40991102Y-63819000D01*
X40837258Y-63819000D01*
X40686371Y-63849013D01*
X40544238Y-63907887D01*
X40416321Y-63993358D01*
X40307538Y-64102141D01*
X40222067Y-64230058D01*
X40163193Y-64372191D01*
X40133180Y-64523078D01*
X40133180Y-64676922D01*
X40163193Y-64827809D01*
X40222067Y-64969942D01*
X40307538Y-65097859D01*
X40416321Y-65206642D01*
X40544238Y-65292113D01*
X40686371Y-65350987D01*
X40837258Y-65381000D01*
X40991102Y-65381000D01*
X41141989Y-65350987D01*
X41284122Y-65292113D01*
X41412039Y-65206642D01*
X41510681Y-65108000D01*
X41551535Y-65108000D01*
X41576479Y-65110457D01*
X41601423Y-65108000D01*
X41601426Y-65108000D01*
X41676064Y-65100649D01*
X41771822Y-65071601D01*
X41860074Y-65024429D01*
X41937427Y-64960948D01*
X41953334Y-64941565D01*
X44129620Y-62765280D01*
X44201452Y-62872784D01*
X44310235Y-62981567D01*
X44438152Y-63067038D01*
X44580285Y-63125912D01*
X44731172Y-63155925D01*
X44885016Y-63155925D01*
X45035903Y-63125912D01*
X45178036Y-63067038D01*
X45305953Y-62981567D01*
X45414736Y-62872784D01*
X45500207Y-62744867D01*
X45559081Y-62602734D01*
X45570854Y-62543548D01*
X45576402Y-62556942D01*
X45661873Y-62684859D01*
X45770656Y-62793642D01*
X45898573Y-62879113D01*
X45900351Y-62879849D01*
X42656201Y-66124000D01*
X41510681Y-66124000D01*
X41412039Y-66025358D01*
X41284122Y-65939887D01*
X41141989Y-65881013D01*
X40991102Y-65851000D01*
X40837258Y-65851000D01*
X40686371Y-65881013D01*
X40544238Y-65939887D01*
X40416321Y-66025358D01*
X40307538Y-66134141D01*
X40222067Y-66262058D01*
X40163193Y-66404191D01*
X40133180Y-66555078D01*
X40133180Y-66708922D01*
X40163193Y-66859809D01*
X40222067Y-67001942D01*
X40307538Y-67129859D01*
X40416321Y-67238642D01*
X40544238Y-67324113D01*
X40686371Y-67382987D01*
X40837258Y-67413000D01*
X40991102Y-67413000D01*
X41141989Y-67382987D01*
X41284122Y-67324113D01*
X41412039Y-67238642D01*
X41510681Y-67140000D01*
X42364469Y-67140000D01*
X42356501Y-67166266D01*
X42350464Y-67227567D01*
X42346693Y-67265850D01*
X42349150Y-67290795D01*
X42349151Y-68195648D01*
X42250508Y-68294291D01*
X42165037Y-68422208D01*
X42106163Y-68564341D01*
X42076150Y-68715228D01*
X42076150Y-68869072D01*
X42105783Y-69018046D01*
X42081706Y-69025350D01*
X41993454Y-69072522D01*
X41916101Y-69136003D01*
X41900194Y-69155386D01*
X41775580Y-69280000D01*
X41636078Y-69280000D01*
X41485191Y-69310013D01*
X41343058Y-69368887D01*
X41215141Y-69454358D01*
X41106358Y-69563141D01*
X41020887Y-69691058D01*
X40962013Y-69833191D01*
X40932000Y-69984078D01*
X40932000Y-70137922D01*
X40962013Y-70288809D01*
X41020887Y-70430942D01*
X41106358Y-70558859D01*
X41215141Y-70667642D01*
X41283587Y-70713376D01*
X41201911Y-70757032D01*
X41027867Y-70899867D01*
X40885032Y-71073911D01*
X40778897Y-71272477D01*
X40713539Y-71487933D01*
X40691470Y-71712000D01*
X40713539Y-71936067D01*
X40778897Y-72151523D01*
X40885032Y-72350089D01*
X41027867Y-72524133D01*
X41201911Y-72666968D01*
X41400477Y-72773103D01*
X41615933Y-72838461D01*
X41783854Y-72855000D01*
X43420146Y-72855000D01*
X43588067Y-72838461D01*
X43803523Y-72773103D01*
X44002089Y-72666968D01*
X44176133Y-72524133D01*
X44318968Y-72350089D01*
X44425103Y-72151523D01*
X44490461Y-71936067D01*
X44512530Y-71712000D01*
X44507279Y-71658685D01*
X47148600Y-74300006D01*
X47148600Y-74823887D01*
X47075358Y-74897129D01*
X46989887Y-75025046D01*
X46931013Y-75167179D01*
X46901000Y-75318066D01*
X46901000Y-75471910D01*
X46931013Y-75622797D01*
X46989887Y-75764930D01*
X47075358Y-75892847D01*
X47184141Y-76001630D01*
X47312058Y-76087101D01*
X47454191Y-76145975D01*
X47605078Y-76175988D01*
X47758922Y-76175988D01*
X47909809Y-76145975D01*
X48051942Y-76087101D01*
X48179859Y-76001630D01*
X48250925Y-75930564D01*
X48255012Y-75930967D01*
X48281199Y-75928388D01*
X48281207Y-75928388D01*
X48359577Y-75920669D01*
X48460123Y-75890169D01*
X48552787Y-75840639D01*
X48634007Y-75773983D01*
X48650708Y-75753633D01*
X51488224Y-72916117D01*
X51591805Y-72916117D01*
X51606177Y-72913258D01*
X54990078Y-76297159D01*
X54847308Y-76268760D01*
X54644172Y-76268760D01*
X54444938Y-76308390D01*
X54257265Y-76386127D01*
X54088363Y-76498983D01*
X53944723Y-76642623D01*
X53831867Y-76811525D01*
X53754130Y-76999198D01*
X53719641Y-77172585D01*
X53714342Y-77114602D01*
X53659581Y-76929398D01*
X53569740Y-76758437D01*
X53562039Y-76746911D01*
X53407074Y-76684587D01*
X52791661Y-77300000D01*
X52805804Y-77314143D01*
X52760903Y-77359044D01*
X52746760Y-77344901D01*
X52732618Y-77359044D01*
X52687717Y-77314143D01*
X52701859Y-77300000D01*
X52086446Y-76684587D01*
X51931481Y-76746911D01*
X51839244Y-76916592D01*
X51781882Y-77101007D01*
X51773288Y-77182386D01*
X51736850Y-76999198D01*
X51659113Y-76811525D01*
X51546257Y-76642623D01*
X51543320Y-76639686D01*
X52131347Y-76639686D01*
X52746760Y-77255099D01*
X53362173Y-76639686D01*
X53299849Y-76484721D01*
X53130168Y-76392484D01*
X52945753Y-76335122D01*
X52753691Y-76314840D01*
X52561362Y-76332418D01*
X52376158Y-76387179D01*
X52205197Y-76477020D01*
X52193671Y-76484721D01*
X52131347Y-76639686D01*
X51543320Y-76639686D01*
X51402617Y-76498983D01*
X51233715Y-76386127D01*
X51046042Y-76308390D01*
X50846808Y-76268760D01*
X50643672Y-76268760D01*
X50444438Y-76308390D01*
X50256765Y-76386127D01*
X50087863Y-76498983D01*
X49944223Y-76642623D01*
X49831367Y-76811525D01*
X49753630Y-76999198D01*
X49745750Y-77038814D01*
X49737870Y-76999198D01*
X49660133Y-76811525D01*
X49547277Y-76642623D01*
X49403637Y-76498983D01*
X49234735Y-76386127D01*
X49047062Y-76308390D01*
X48847828Y-76268760D01*
X48644692Y-76268760D01*
X48445458Y-76308390D01*
X48257785Y-76386127D01*
X48088883Y-76498983D01*
X47945243Y-76642623D01*
X47832387Y-76811525D01*
X47754650Y-76999198D01*
X47745500Y-77045198D01*
X47736350Y-76999198D01*
X47658613Y-76811525D01*
X47545757Y-76642623D01*
X47402117Y-76498983D01*
X47233215Y-76386127D01*
X47045542Y-76308390D01*
X46846308Y-76268760D01*
X46643172Y-76268760D01*
X46443938Y-76308390D01*
X46256265Y-76386127D01*
X46087363Y-76498983D01*
X46031000Y-76555346D01*
X46031000Y-75438659D01*
X46035300Y-75394999D01*
X46031000Y-75351339D01*
X46031000Y-75351333D01*
X46018136Y-75220726D01*
X46018136Y-75220724D01*
X45980669Y-75097213D01*
X45967303Y-75053149D01*
X45884753Y-74898709D01*
X45773659Y-74763341D01*
X45739741Y-74735505D01*
X44658499Y-73654264D01*
X44630659Y-73620341D01*
X44495291Y-73509247D01*
X44340851Y-73426697D01*
X44173274Y-73375864D01*
X44087899Y-73367455D01*
X44002089Y-73297032D01*
X43803523Y-73190897D01*
X43588067Y-73125539D01*
X43420146Y-73109000D01*
X41783854Y-73109000D01*
X41615933Y-73125539D01*
X41400477Y-73190897D01*
X41201911Y-73297032D01*
X41027867Y-73439867D01*
X40885032Y-73613911D01*
X40778897Y-73812477D01*
X40713539Y-74027933D01*
X40691470Y-74252000D01*
X40713539Y-74476067D01*
X40778897Y-74691523D01*
X40885032Y-74890089D01*
X41027867Y-75064133D01*
X41201911Y-75206968D01*
X41400477Y-75313103D01*
X41615933Y-75378461D01*
X41783854Y-75395000D01*
X43420146Y-75395000D01*
X43588067Y-75378461D01*
X43803020Y-75313256D01*
X44253001Y-75763237D01*
X44253001Y-76164046D01*
X44158754Y-76042149D01*
X43997194Y-75901508D01*
X43811301Y-75795089D01*
X43608218Y-75726980D01*
X43395750Y-75699800D01*
X42633750Y-75699800D01*
X42633750Y-76760250D01*
X42653750Y-76760250D01*
X42653750Y-76823750D01*
X42633750Y-76823750D01*
X42633750Y-77884200D01*
X43395750Y-77884200D01*
X43608218Y-77857020D01*
X43811301Y-77788911D01*
X43997194Y-77682492D01*
X44158754Y-77541851D01*
X44253000Y-77419954D01*
X44253000Y-77891340D01*
X44248700Y-77935000D01*
X44253000Y-77978660D01*
X44253000Y-77978666D01*
X44254973Y-77998697D01*
X44265864Y-78109274D01*
X44279600Y-78154555D01*
X44316697Y-78276850D01*
X44399247Y-78431290D01*
X44510341Y-78566659D01*
X44544263Y-78594499D01*
X45371505Y-79421741D01*
X45399341Y-79455659D01*
X45534709Y-79566753D01*
X45689149Y-79649303D01*
X45783758Y-79678002D01*
X45856725Y-79700136D01*
X45873325Y-79701771D01*
X45987333Y-79713000D01*
X45987340Y-79713000D01*
X46031000Y-79717300D01*
X46074660Y-79713000D01*
X57798340Y-79713000D01*
X57842000Y-79717300D01*
X57885660Y-79713000D01*
X57885667Y-79713000D01*
X58016274Y-79700136D01*
X58183851Y-79649303D01*
X58338291Y-79566753D01*
X58473659Y-79455659D01*
X58501499Y-79421736D01*
X59734236Y-78189000D01*
X60034705Y-78189000D01*
X60060729Y-78220711D01*
X60118744Y-78268322D01*
X60184932Y-78303701D01*
X60256751Y-78325487D01*
X60331440Y-78332843D01*
X61631440Y-78332843D01*
X61706129Y-78325487D01*
X61777948Y-78303701D01*
X61844136Y-78268322D01*
X61902151Y-78220711D01*
X61949762Y-78162696D01*
X61985141Y-78096508D01*
X62006927Y-78024689D01*
X62014283Y-77950000D01*
X62014283Y-77655542D01*
X62069299Y-77788362D01*
X62182130Y-77957224D01*
X62325736Y-78100830D01*
X62494598Y-78213661D01*
X62682228Y-78291380D01*
X62881415Y-78331000D01*
X63084505Y-78331000D01*
X63283692Y-78291380D01*
X63471322Y-78213661D01*
X63640184Y-78100830D01*
X63780870Y-77960144D01*
X64369238Y-77960144D01*
X64431532Y-78115083D01*
X64601172Y-78207296D01*
X64785542Y-78264643D01*
X64977557Y-78284918D01*
X65169837Y-78267344D01*
X65354995Y-78212595D01*
X65525914Y-78122775D01*
X65537428Y-78115083D01*
X65599722Y-77960144D01*
X64984480Y-77344901D01*
X64369238Y-77960144D01*
X63780870Y-77960144D01*
X63783790Y-77957224D01*
X63896621Y-77788362D01*
X63974340Y-77600732D01*
X64010888Y-77416992D01*
X64017136Y-77485357D01*
X64071885Y-77670515D01*
X64161705Y-77841434D01*
X64169397Y-77852948D01*
X64324336Y-77915242D01*
X64939579Y-77300000D01*
X64925436Y-77285858D01*
X64970338Y-77240956D01*
X64984480Y-77255099D01*
X64998622Y-77240956D01*
X65043524Y-77285858D01*
X65029381Y-77300000D01*
X65644624Y-77915242D01*
X65799563Y-77852948D01*
X65891776Y-77683308D01*
X65949123Y-77498938D01*
X65956998Y-77424359D01*
X65992080Y-77600732D01*
X66069799Y-77788362D01*
X66182630Y-77957224D01*
X66326236Y-78100830D01*
X66495098Y-78213661D01*
X66682728Y-78291380D01*
X66881915Y-78331000D01*
X67085005Y-78331000D01*
X67284192Y-78291380D01*
X67471822Y-78213661D01*
X67640684Y-78100830D01*
X67646208Y-78095306D01*
X67660435Y-78106981D01*
X68211023Y-78657570D01*
X68226926Y-78676948D01*
X68246303Y-78692850D01*
X68304278Y-78740429D01*
X68341460Y-78760303D01*
X68392531Y-78787601D01*
X68488289Y-78816649D01*
X68562927Y-78824000D01*
X68562930Y-78824000D01*
X68587874Y-78826457D01*
X68612818Y-78824000D01*
X68873000Y-78824000D01*
X68873000Y-79873000D01*
X40127000Y-79873000D01*
X40127000Y-76994145D01*
X40766670Y-76994145D01*
X40818787Y-77180633D01*
X40914228Y-77372394D01*
X41045246Y-77541851D01*
X41206806Y-77682492D01*
X41392699Y-77788911D01*
X41595782Y-77857020D01*
X41808250Y-77884200D01*
X42570250Y-77884200D01*
X42570250Y-76823750D01*
X40830849Y-76823750D01*
X40766670Y-76994145D01*
X40127000Y-76994145D01*
X40127000Y-76589855D01*
X40766670Y-76589855D01*
X40830849Y-76760250D01*
X42570250Y-76760250D01*
X42570250Y-75699800D01*
X41808250Y-75699800D01*
X41595782Y-75726980D01*
X41392699Y-75795089D01*
X41206806Y-75901508D01*
X41045246Y-76042149D01*
X40914228Y-76211606D01*
X40818787Y-76403367D01*
X40766670Y-76589855D01*
X40127000Y-76589855D01*
X40127000Y-58554078D01*
X41059000Y-58554078D01*
X41059000Y-58707922D01*
X41089013Y-58858809D01*
X41147887Y-59000942D01*
X41233358Y-59128859D01*
X41342141Y-59237642D01*
X41470058Y-59323113D01*
X41612191Y-59381987D01*
X41763078Y-59412000D01*
X41916922Y-59412000D01*
X42067809Y-59381987D01*
X42209942Y-59323113D01*
X42337859Y-59237642D01*
X42446642Y-59128859D01*
X42532113Y-59000942D01*
X42590987Y-58858809D01*
X42621000Y-58707922D01*
X42621000Y-58554078D01*
X42590987Y-58403191D01*
X42532113Y-58261058D01*
X42446642Y-58133141D01*
X42337859Y-58024358D01*
X42209942Y-57938887D01*
X42067809Y-57880013D01*
X41916922Y-57850000D01*
X41763078Y-57850000D01*
X41612191Y-57880013D01*
X41470058Y-57938887D01*
X41342141Y-58024358D01*
X41233358Y-58133141D01*
X41147887Y-58261058D01*
X41089013Y-58403191D01*
X41059000Y-58554078D01*
X40127000Y-58554078D01*
X40127000Y-56395078D01*
X40678000Y-56395078D01*
X40678000Y-56548922D01*
X40708013Y-56699809D01*
X40766887Y-56841942D01*
X40852358Y-56969859D01*
X40961141Y-57078642D01*
X41089058Y-57164113D01*
X41231191Y-57222987D01*
X41382078Y-57253000D01*
X41535922Y-57253000D01*
X41686809Y-57222987D01*
X41828942Y-57164113D01*
X41956859Y-57078642D01*
X42065642Y-56969859D01*
X42151113Y-56841942D01*
X42209987Y-56699809D01*
X42240000Y-56548922D01*
X42240000Y-56395078D01*
X42209987Y-56244191D01*
X42151113Y-56102058D01*
X42105242Y-56033407D01*
X42170602Y-56014081D01*
X42341563Y-55924240D01*
X42353089Y-55916539D01*
X42415413Y-55761574D01*
X41800000Y-55146161D01*
X41785858Y-55160304D01*
X41740957Y-55115403D01*
X41755099Y-55101260D01*
X41844901Y-55101260D01*
X42460314Y-55716673D01*
X42615279Y-55654349D01*
X42707516Y-55484668D01*
X42764878Y-55300253D01*
X42785160Y-55108191D01*
X42767582Y-54915862D01*
X42712821Y-54730658D01*
X42622980Y-54559697D01*
X42615279Y-54548171D01*
X42460314Y-54485847D01*
X41844901Y-55101260D01*
X41755099Y-55101260D01*
X41139686Y-54485847D01*
X40984721Y-54548171D01*
X40892484Y-54717852D01*
X40835122Y-54902267D01*
X40814840Y-55094329D01*
X40832418Y-55286658D01*
X40887179Y-55471862D01*
X40977020Y-55642823D01*
X40984721Y-55654349D01*
X41139684Y-55716672D01*
X41081353Y-55775003D01*
X41087367Y-55781017D01*
X40961141Y-55865358D01*
X40852358Y-55974141D01*
X40766887Y-56102058D01*
X40708013Y-56244191D01*
X40678000Y-56395078D01*
X40127000Y-56395078D01*
X40127000Y-41627000D01*
X51082859Y-41627000D01*
X50972191Y-41649013D01*
G36*
X50555410Y-62704450D02*
G01*
X50572106Y-62724794D01*
X50592450Y-62741490D01*
X50592452Y-62741492D01*
X50637633Y-62778571D01*
X50653326Y-62791450D01*
X50688225Y-62810104D01*
X50672887Y-62833058D01*
X50614013Y-62975191D01*
X50584000Y-63126078D01*
X50584000Y-63203000D01*
X49484947Y-63203000D01*
X49460000Y-63200543D01*
X49435053Y-63203000D01*
X49360415Y-63210351D01*
X49264657Y-63239399D01*
X49176405Y-63286571D01*
X49099052Y-63350052D01*
X49083145Y-63369435D01*
X46573150Y-65879430D01*
X46565191Y-65881013D01*
X46423058Y-65939887D01*
X46295141Y-66025358D01*
X46186358Y-66134141D01*
X46100887Y-66262058D01*
X46042013Y-66404191D01*
X46012000Y-66555078D01*
X46012000Y-66708922D01*
X46042013Y-66859809D01*
X46100887Y-67001942D01*
X46130496Y-67046255D01*
X46042058Y-67082887D01*
X45914141Y-67168358D01*
X45805358Y-67277141D01*
X45719887Y-67405058D01*
X45661013Y-67547191D01*
X45631000Y-67698078D01*
X45631000Y-67851922D01*
X45661013Y-68002809D01*
X45719887Y-68144942D01*
X45805358Y-68272859D01*
X45914141Y-68381642D01*
X46042058Y-68467113D01*
X46184191Y-68525987D01*
X46335078Y-68556000D01*
X46474579Y-68556000D01*
X46847961Y-68929381D01*
X46863863Y-68948759D01*
X46883240Y-68964661D01*
X46941215Y-69012240D01*
X47016258Y-69052351D01*
X47029468Y-69059412D01*
X47125226Y-69088460D01*
X47199864Y-69095811D01*
X47199866Y-69095811D01*
X47224810Y-69098268D01*
X47249754Y-69095811D01*
X49046391Y-69095811D01*
X50479046Y-70528466D01*
X50441756Y-70535883D01*
X50299623Y-70594757D01*
X50171706Y-70680228D01*
X50062923Y-70789011D01*
X49977452Y-70916928D01*
X49918578Y-71059061D01*
X49888565Y-71209948D01*
X49888565Y-71363792D01*
X49918578Y-71514679D01*
X49977452Y-71656812D01*
X50062923Y-71784729D01*
X50171706Y-71893512D01*
X50299623Y-71978983D01*
X50441756Y-72037857D01*
X50592643Y-72067870D01*
X50733883Y-72067870D01*
X50733883Y-72161776D01*
X50337086Y-72558573D01*
X50304246Y-72479292D01*
X50218775Y-72351375D01*
X50109992Y-72242592D01*
X49982075Y-72157121D01*
X49839942Y-72098247D01*
X49689055Y-72068234D01*
X49535211Y-72068234D01*
X49384324Y-72098247D01*
X49242191Y-72157121D01*
X49176323Y-72201132D01*
X49136113Y-72104058D01*
X49050642Y-71976141D01*
X48941859Y-71867358D01*
X48813942Y-71781887D01*
X48671809Y-71723013D01*
X48520922Y-71693000D01*
X48367078Y-71693000D01*
X48216191Y-71723013D01*
X48074058Y-71781887D01*
X47946141Y-71867358D01*
X47837358Y-71976141D01*
X47751887Y-72104058D01*
X47693013Y-72246191D01*
X47663000Y-72397078D01*
X47663000Y-72550922D01*
X47693013Y-72701809D01*
X47751887Y-72843942D01*
X47837358Y-72971859D01*
X47946141Y-73080642D01*
X48074058Y-73166113D01*
X48216191Y-73224987D01*
X48367078Y-73255000D01*
X48520922Y-73255000D01*
X48671809Y-73224987D01*
X48813942Y-73166113D01*
X48879810Y-73122102D01*
X48920020Y-73219176D01*
X49005491Y-73347093D01*
X49114274Y-73455876D01*
X49242191Y-73541347D01*
X49321472Y-73574187D01*
X48215400Y-74680259D01*
X48215400Y-74105259D01*
X48217980Y-74079065D01*
X48207681Y-73974501D01*
X48188161Y-73910149D01*
X48177181Y-73873954D01*
X48127651Y-73781290D01*
X48060995Y-73700070D01*
X48040645Y-73683369D01*
X44199132Y-69841856D01*
X44182431Y-69821506D01*
X44101211Y-69754850D01*
X44008547Y-69705320D01*
X43908001Y-69674820D01*
X43829631Y-69667101D01*
X43829623Y-69667101D01*
X43806583Y-69664832D01*
X43761586Y-69619835D01*
X44210644Y-69170776D01*
X44230027Y-69154869D01*
X44293508Y-69077516D01*
X44340680Y-68989264D01*
X44369728Y-68893506D01*
X44377079Y-68818868D01*
X44377079Y-68818865D01*
X44379536Y-68793921D01*
X44377079Y-68768977D01*
X44377079Y-67075012D01*
X48460683Y-62991409D01*
X48480060Y-62975507D01*
X48506023Y-62943871D01*
X48543541Y-62898155D01*
X48590712Y-62809904D01*
X48590713Y-62809902D01*
X48619761Y-62714144D01*
X48627112Y-62639506D01*
X48627112Y-62639504D01*
X48629569Y-62614560D01*
X48627112Y-62589616D01*
X48627112Y-60776151D01*
X50555410Y-62704450D01*
X50555410Y-62704450D01*
G37*
X50555410Y-62704450D02*
X50572106Y-62724794D01*
X50592450Y-62741490D01*
X50592452Y-62741492D01*
X50637633Y-62778571D01*
X50653326Y-62791450D01*
X50688225Y-62810104D01*
X50672887Y-62833058D01*
X50614013Y-62975191D01*
X50584000Y-63126078D01*
X50584000Y-63203000D01*
X49484947Y-63203000D01*
X49460000Y-63200543D01*
X49435053Y-63203000D01*
X49360415Y-63210351D01*
X49264657Y-63239399D01*
X49176405Y-63286571D01*
X49099052Y-63350052D01*
X49083145Y-63369435D01*
X46573150Y-65879430D01*
X46565191Y-65881013D01*
X46423058Y-65939887D01*
X46295141Y-66025358D01*
X46186358Y-66134141D01*
X46100887Y-66262058D01*
X46042013Y-66404191D01*
X46012000Y-66555078D01*
X46012000Y-66708922D01*
X46042013Y-66859809D01*
X46100887Y-67001942D01*
X46130496Y-67046255D01*
X46042058Y-67082887D01*
X45914141Y-67168358D01*
X45805358Y-67277141D01*
X45719887Y-67405058D01*
X45661013Y-67547191D01*
X45631000Y-67698078D01*
X45631000Y-67851922D01*
X45661013Y-68002809D01*
X45719887Y-68144942D01*
X45805358Y-68272859D01*
X45914141Y-68381642D01*
X46042058Y-68467113D01*
X46184191Y-68525987D01*
X46335078Y-68556000D01*
X46474579Y-68556000D01*
X46847961Y-68929381D01*
X46863863Y-68948759D01*
X46883240Y-68964661D01*
X46941215Y-69012240D01*
X47016258Y-69052351D01*
X47029468Y-69059412D01*
X47125226Y-69088460D01*
X47199864Y-69095811D01*
X47199866Y-69095811D01*
X47224810Y-69098268D01*
X47249754Y-69095811D01*
X49046391Y-69095811D01*
X50479046Y-70528466D01*
X50441756Y-70535883D01*
X50299623Y-70594757D01*
X50171706Y-70680228D01*
X50062923Y-70789011D01*
X49977452Y-70916928D01*
X49918578Y-71059061D01*
X49888565Y-71209948D01*
X49888565Y-71363792D01*
X49918578Y-71514679D01*
X49977452Y-71656812D01*
X50062923Y-71784729D01*
X50171706Y-71893512D01*
X50299623Y-71978983D01*
X50441756Y-72037857D01*
X50592643Y-72067870D01*
X50733883Y-72067870D01*
X50733883Y-72161776D01*
X50337086Y-72558573D01*
X50304246Y-72479292D01*
X50218775Y-72351375D01*
X50109992Y-72242592D01*
X49982075Y-72157121D01*
X49839942Y-72098247D01*
X49689055Y-72068234D01*
X49535211Y-72068234D01*
X49384324Y-72098247D01*
X49242191Y-72157121D01*
X49176323Y-72201132D01*
X49136113Y-72104058D01*
X49050642Y-71976141D01*
X48941859Y-71867358D01*
X48813942Y-71781887D01*
X48671809Y-71723013D01*
X48520922Y-71693000D01*
X48367078Y-71693000D01*
X48216191Y-71723013D01*
X48074058Y-71781887D01*
X47946141Y-71867358D01*
X47837358Y-71976141D01*
X47751887Y-72104058D01*
X47693013Y-72246191D01*
X47663000Y-72397078D01*
X47663000Y-72550922D01*
X47693013Y-72701809D01*
X47751887Y-72843942D01*
X47837358Y-72971859D01*
X47946141Y-73080642D01*
X48074058Y-73166113D01*
X48216191Y-73224987D01*
X48367078Y-73255000D01*
X48520922Y-73255000D01*
X48671809Y-73224987D01*
X48813942Y-73166113D01*
X48879810Y-73122102D01*
X48920020Y-73219176D01*
X49005491Y-73347093D01*
X49114274Y-73455876D01*
X49242191Y-73541347D01*
X49321472Y-73574187D01*
X48215400Y-74680259D01*
X48215400Y-74105259D01*
X48217980Y-74079065D01*
X48207681Y-73974501D01*
X48188161Y-73910149D01*
X48177181Y-73873954D01*
X48127651Y-73781290D01*
X48060995Y-73700070D01*
X48040645Y-73683369D01*
X44199132Y-69841856D01*
X44182431Y-69821506D01*
X44101211Y-69754850D01*
X44008547Y-69705320D01*
X43908001Y-69674820D01*
X43829631Y-69667101D01*
X43829623Y-69667101D01*
X43806583Y-69664832D01*
X43761586Y-69619835D01*
X44210644Y-69170776D01*
X44230027Y-69154869D01*
X44293508Y-69077516D01*
X44340680Y-68989264D01*
X44369728Y-68893506D01*
X44377079Y-68818868D01*
X44377079Y-68818865D01*
X44379536Y-68793921D01*
X44377079Y-68768977D01*
X44377079Y-67075012D01*
X48460683Y-62991409D01*
X48480060Y-62975507D01*
X48506023Y-62943871D01*
X48543541Y-62898155D01*
X48590712Y-62809904D01*
X48590713Y-62809902D01*
X48619761Y-62714144D01*
X48627112Y-62639506D01*
X48627112Y-62639504D01*
X48629569Y-62614560D01*
X48627112Y-62589616D01*
X48627112Y-60776151D01*
X50555410Y-62704450D01*
G36*
X55516905Y-71672571D02*
G01*
X55532807Y-71691948D01*
X55552184Y-71707850D01*
X55610159Y-71755429D01*
X55628393Y-71765175D01*
X55698412Y-71802601D01*
X55794170Y-71831649D01*
X55868808Y-71839000D01*
X55868810Y-71839000D01*
X55893754Y-71841457D01*
X55918698Y-71839000D01*
X59468056Y-71839000D01*
X59493000Y-71841457D01*
X59517944Y-71839000D01*
X59517947Y-71839000D01*
X59592585Y-71831649D01*
X59688343Y-71802601D01*
X59776595Y-71755429D01*
X59853948Y-71691948D01*
X59869855Y-71672565D01*
X60700421Y-70842000D01*
X60839922Y-70842000D01*
X60990809Y-70811987D01*
X61132942Y-70753113D01*
X61260859Y-70667642D01*
X61369642Y-70558859D01*
X61455113Y-70430942D01*
X61513987Y-70288809D01*
X61525000Y-70233442D01*
X61525000Y-71414340D01*
X61520700Y-71458000D01*
X61525000Y-71501660D01*
X61525000Y-71501666D01*
X61529623Y-71548600D01*
X61537864Y-71632274D01*
X61555213Y-71689466D01*
X61588697Y-71799850D01*
X61671247Y-71954290D01*
X61782341Y-72089659D01*
X61816264Y-72117499D01*
X64204764Y-74506000D01*
X57749765Y-74506000D01*
X52963320Y-69719555D01*
X53064966Y-69651638D01*
X53173749Y-69542855D01*
X53259220Y-69414938D01*
X53259235Y-69414901D01*
X55516905Y-71672571D01*
X55516905Y-71672571D01*
G37*
X55516905Y-71672571D02*
X55532807Y-71691948D01*
X55552184Y-71707850D01*
X55610159Y-71755429D01*
X55628393Y-71765175D01*
X55698412Y-71802601D01*
X55794170Y-71831649D01*
X55868808Y-71839000D01*
X55868810Y-71839000D01*
X55893754Y-71841457D01*
X55918698Y-71839000D01*
X59468056Y-71839000D01*
X59493000Y-71841457D01*
X59517944Y-71839000D01*
X59517947Y-71839000D01*
X59592585Y-71831649D01*
X59688343Y-71802601D01*
X59776595Y-71755429D01*
X59853948Y-71691948D01*
X59869855Y-71672565D01*
X60700421Y-70842000D01*
X60839922Y-70842000D01*
X60990809Y-70811987D01*
X61132942Y-70753113D01*
X61260859Y-70667642D01*
X61369642Y-70558859D01*
X61455113Y-70430942D01*
X61513987Y-70288809D01*
X61525000Y-70233442D01*
X61525000Y-71414340D01*
X61520700Y-71458000D01*
X61525000Y-71501660D01*
X61525000Y-71501666D01*
X61529623Y-71548600D01*
X61537864Y-71632274D01*
X61555213Y-71689466D01*
X61588697Y-71799850D01*
X61671247Y-71954290D01*
X61782341Y-72089659D01*
X61816264Y-72117499D01*
X64204764Y-74506000D01*
X57749765Y-74506000D01*
X52963320Y-69719555D01*
X53064966Y-69651638D01*
X53173749Y-69542855D01*
X53259220Y-69414938D01*
X53259235Y-69414901D01*
X55516905Y-71672571D01*
G36*
X65037616Y-62240100D02*
G01*
X65096490Y-62382233D01*
X65181961Y-62510150D01*
X65290744Y-62618933D01*
X65418661Y-62704404D01*
X65461255Y-62722047D01*
X65394697Y-62749617D01*
X65266780Y-62835088D01*
X65157997Y-62943871D01*
X65072526Y-63071788D01*
X65013652Y-63213921D01*
X64983639Y-63364808D01*
X64983639Y-63518652D01*
X65013652Y-63669539D01*
X65072526Y-63811672D01*
X65152755Y-63931744D01*
X65109358Y-63975141D01*
X65023887Y-64103058D01*
X64965013Y-64245191D01*
X64935000Y-64396078D01*
X64935000Y-64549922D01*
X64965013Y-64700809D01*
X65023887Y-64842942D01*
X65109358Y-64970859D01*
X65192699Y-65054200D01*
X65148157Y-65098742D01*
X65062686Y-65226659D01*
X65003812Y-65368792D01*
X64973799Y-65519679D01*
X64973799Y-65673523D01*
X65003812Y-65824410D01*
X65062686Y-65966543D01*
X65148157Y-66094460D01*
X65256940Y-66203243D01*
X65384857Y-66288714D01*
X65526990Y-66347588D01*
X65677877Y-66377601D01*
X65831721Y-66377601D01*
X65982608Y-66347588D01*
X66124741Y-66288714D01*
X66160501Y-66264820D01*
X66160501Y-66723671D01*
X65553673Y-67330500D01*
X65242297Y-67330500D01*
X65207999Y-67327122D01*
X65173701Y-67330500D01*
X65173691Y-67330500D01*
X65071070Y-67340607D01*
X64939403Y-67380548D01*
X64939401Y-67380549D01*
X64818056Y-67445409D01*
X64738345Y-67510826D01*
X64738337Y-67510834D01*
X64711697Y-67532697D01*
X64689833Y-67559338D01*
X63595344Y-68653829D01*
X63568697Y-68675698D01*
X63546829Y-68702344D01*
X63546826Y-68702347D01*
X63481409Y-68782057D01*
X63422785Y-68891735D01*
X63416548Y-68903404D01*
X63376607Y-69035071D01*
X63366500Y-69137692D01*
X63366500Y-69137702D01*
X63363122Y-69172000D01*
X63366500Y-69206299D01*
X63366501Y-70915692D01*
X63363122Y-70950000D01*
X63376608Y-71086929D01*
X63409894Y-71196659D01*
X63303000Y-71089765D01*
X63303000Y-63825235D01*
X65012816Y-62115420D01*
X65037616Y-62240100D01*
X65037616Y-62240100D01*
G37*
X65037616Y-62240100D02*
X65096490Y-62382233D01*
X65181961Y-62510150D01*
X65290744Y-62618933D01*
X65418661Y-62704404D01*
X65461255Y-62722047D01*
X65394697Y-62749617D01*
X65266780Y-62835088D01*
X65157997Y-62943871D01*
X65072526Y-63071788D01*
X65013652Y-63213921D01*
X64983639Y-63364808D01*
X64983639Y-63518652D01*
X65013652Y-63669539D01*
X65072526Y-63811672D01*
X65152755Y-63931744D01*
X65109358Y-63975141D01*
X65023887Y-64103058D01*
X64965013Y-64245191D01*
X64935000Y-64396078D01*
X64935000Y-64549922D01*
X64965013Y-64700809D01*
X65023887Y-64842942D01*
X65109358Y-64970859D01*
X65192699Y-65054200D01*
X65148157Y-65098742D01*
X65062686Y-65226659D01*
X65003812Y-65368792D01*
X64973799Y-65519679D01*
X64973799Y-65673523D01*
X65003812Y-65824410D01*
X65062686Y-65966543D01*
X65148157Y-66094460D01*
X65256940Y-66203243D01*
X65384857Y-66288714D01*
X65526990Y-66347588D01*
X65677877Y-66377601D01*
X65831721Y-66377601D01*
X65982608Y-66347588D01*
X66124741Y-66288714D01*
X66160501Y-66264820D01*
X66160501Y-66723671D01*
X65553673Y-67330500D01*
X65242297Y-67330500D01*
X65207999Y-67327122D01*
X65173701Y-67330500D01*
X65173691Y-67330500D01*
X65071070Y-67340607D01*
X64939403Y-67380548D01*
X64939401Y-67380549D01*
X64818056Y-67445409D01*
X64738345Y-67510826D01*
X64738337Y-67510834D01*
X64711697Y-67532697D01*
X64689833Y-67559338D01*
X63595344Y-68653829D01*
X63568697Y-68675698D01*
X63546829Y-68702344D01*
X63546826Y-68702347D01*
X63481409Y-68782057D01*
X63422785Y-68891735D01*
X63416548Y-68903404D01*
X63376607Y-69035071D01*
X63366500Y-69137692D01*
X63366500Y-69137702D01*
X63363122Y-69172000D01*
X63366500Y-69206299D01*
X63366501Y-70915692D01*
X63363122Y-70950000D01*
X63376608Y-71086929D01*
X63409894Y-71196659D01*
X63303000Y-71089765D01*
X63303000Y-63825235D01*
X65012816Y-62115420D01*
X65037616Y-62240100D01*
G36*
X53788753Y-53968489D02*
G01*
X53720887Y-54070058D01*
X53662013Y-54212191D01*
X53632000Y-54363078D01*
X53632000Y-54516922D01*
X53662013Y-54667809D01*
X53720887Y-54809942D01*
X53806358Y-54937859D01*
X53915141Y-55046642D01*
X54043058Y-55132113D01*
X54185191Y-55190987D01*
X54336078Y-55221000D01*
X54489922Y-55221000D01*
X54640809Y-55190987D01*
X54782942Y-55132113D01*
X54910859Y-55046642D01*
X55019642Y-54937859D01*
X55045840Y-54898650D01*
X55172191Y-54950987D01*
X55323078Y-54981000D01*
X55476922Y-54981000D01*
X55627809Y-54950987D01*
X55769942Y-54892113D01*
X55897859Y-54806642D01*
X56006642Y-54697859D01*
X56092113Y-54569942D01*
X56150987Y-54427809D01*
X56174818Y-54308001D01*
X56483581Y-54308001D01*
X60849307Y-58673728D01*
X60722191Y-58699013D01*
X60580058Y-58757887D01*
X60452141Y-58843358D01*
X60343358Y-58952141D01*
X60257887Y-59080058D01*
X60199013Y-59222191D01*
X60169000Y-59373078D01*
X60169000Y-59526922D01*
X60199013Y-59677809D01*
X60257887Y-59819942D01*
X60343358Y-59947859D01*
X60452141Y-60056642D01*
X60580058Y-60142113D01*
X60722191Y-60200987D01*
X60873078Y-60231000D01*
X61026922Y-60231000D01*
X61177809Y-60200987D01*
X61319942Y-60142113D01*
X61447859Y-60056642D01*
X61556642Y-59947859D01*
X61642113Y-59819942D01*
X61700987Y-59677809D01*
X61731000Y-59526922D01*
X61731000Y-59373078D01*
X61700987Y-59222191D01*
X61642113Y-59080058D01*
X61556642Y-58952141D01*
X61489501Y-58885000D01*
X64493719Y-58885000D01*
X64457710Y-58904247D01*
X64322342Y-59015341D01*
X64211248Y-59150709D01*
X64128698Y-59305149D01*
X64077865Y-59472726D01*
X64065001Y-59603333D01*
X64065000Y-60548764D01*
X61816259Y-62797506D01*
X61782342Y-62825341D01*
X61754507Y-62859258D01*
X61754505Y-62859260D01*
X61671248Y-62960709D01*
X61588698Y-63115148D01*
X61572466Y-63168659D01*
X61567257Y-63163450D01*
X61551350Y-63144067D01*
X61473997Y-63080586D01*
X61385745Y-63033414D01*
X61289987Y-63004366D01*
X61221859Y-62997656D01*
X61122576Y-62898373D01*
X60994659Y-62812902D01*
X60852526Y-62754028D01*
X60701639Y-62724015D01*
X60547795Y-62724015D01*
X60396908Y-62754028D01*
X60254775Y-62812902D01*
X60126858Y-62898373D01*
X60018075Y-63007156D01*
X59932604Y-63135073D01*
X59873730Y-63277206D01*
X59843717Y-63428093D01*
X59843717Y-63581937D01*
X59873730Y-63732824D01*
X59932604Y-63874957D01*
X60018075Y-64002874D01*
X60126858Y-64111657D01*
X60254775Y-64197128D01*
X60396908Y-64256002D01*
X60547795Y-64286015D01*
X60701639Y-64286015D01*
X60852526Y-64256002D01*
X60959802Y-64211566D01*
X60959802Y-64777775D01*
X60863809Y-64738013D01*
X60712922Y-64708000D01*
X60559078Y-64708000D01*
X60408191Y-64738013D01*
X60266058Y-64796887D01*
X60138141Y-64882358D01*
X60029358Y-64991141D01*
X59943887Y-65119058D01*
X59885013Y-65261191D01*
X59855000Y-65412078D01*
X59855000Y-65551580D01*
X58520580Y-66886000D01*
X58184501Y-66886000D01*
X58194642Y-66875859D01*
X58280113Y-66747942D01*
X58338987Y-66605809D01*
X58369000Y-66454922D01*
X58369000Y-66301078D01*
X58338987Y-66150191D01*
X58280113Y-66008058D01*
X58194642Y-65880141D01*
X58085859Y-65771358D01*
X57957942Y-65685887D01*
X57815809Y-65627013D01*
X57664922Y-65597000D01*
X57525420Y-65597000D01*
X56537933Y-64609513D01*
X56672809Y-64582685D01*
X56814942Y-64523811D01*
X56942859Y-64438340D01*
X57051642Y-64329557D01*
X57137113Y-64201640D01*
X57195987Y-64059507D01*
X57226000Y-63908620D01*
X57226000Y-63754776D01*
X57195987Y-63603889D01*
X57137113Y-63461756D01*
X57051642Y-63333839D01*
X56942859Y-63225056D01*
X56814942Y-63139585D01*
X56672809Y-63080711D01*
X56521922Y-63050698D01*
X56445830Y-63050698D01*
X56416734Y-62904422D01*
X56357860Y-62762289D01*
X56272389Y-62634372D01*
X56163606Y-62525589D01*
X56035689Y-62440118D01*
X56010126Y-62429530D01*
X56249021Y-62190635D01*
X56329058Y-62244113D01*
X56471191Y-62302987D01*
X56622078Y-62333000D01*
X56775922Y-62333000D01*
X56926809Y-62302987D01*
X57068942Y-62244113D01*
X57196859Y-62158642D01*
X57305642Y-62049859D01*
X57391113Y-61921942D01*
X57449987Y-61779809D01*
X57480000Y-61628922D01*
X57480000Y-61475078D01*
X57449987Y-61324191D01*
X57391113Y-61182058D01*
X57305642Y-61054141D01*
X57196859Y-60945358D01*
X57068942Y-60859887D01*
X56926809Y-60801013D01*
X56775922Y-60771000D01*
X56622078Y-60771000D01*
X56471191Y-60801013D01*
X56329058Y-60859887D01*
X56201141Y-60945358D01*
X56130169Y-61016330D01*
X56107121Y-61018600D01*
X56107120Y-61018600D01*
X56028750Y-61026319D01*
X55928204Y-61056819D01*
X55835540Y-61106349D01*
X55754320Y-61173005D01*
X55737619Y-61193355D01*
X54884173Y-62046801D01*
X53107155Y-62046801D01*
X53131000Y-61926922D01*
X53131000Y-61834470D01*
X53727263Y-61303130D01*
X53757948Y-61277948D01*
X53780424Y-61250561D01*
X53804426Y-61224523D01*
X53812096Y-61211967D01*
X53821429Y-61200595D01*
X53838126Y-61169357D01*
X53856592Y-61139129D01*
X53861664Y-61125321D01*
X53868601Y-61112343D01*
X53878887Y-61078435D01*
X53891096Y-61045198D01*
X53893376Y-61030670D01*
X53897649Y-61016585D01*
X53901121Y-60981328D01*
X53906613Y-60946342D01*
X53905000Y-60906707D01*
X53905000Y-57538078D01*
X57696000Y-57538078D01*
X57696000Y-57691922D01*
X57726013Y-57842809D01*
X57784887Y-57984942D01*
X57870358Y-58112859D01*
X57979141Y-58221642D01*
X58107058Y-58307113D01*
X58249191Y-58365987D01*
X58400078Y-58396000D01*
X58553922Y-58396000D01*
X58704809Y-58365987D01*
X58846942Y-58307113D01*
X58974859Y-58221642D01*
X59083642Y-58112859D01*
X59169113Y-57984942D01*
X59227987Y-57842809D01*
X59258000Y-57691922D01*
X59258000Y-57538078D01*
X59227987Y-57387191D01*
X59169113Y-57245058D01*
X59083642Y-57117141D01*
X58974859Y-57008358D01*
X58846942Y-56922887D01*
X58704809Y-56864013D01*
X58553922Y-56834000D01*
X58400078Y-56834000D01*
X58249191Y-56864013D01*
X58107058Y-56922887D01*
X57979141Y-57008358D01*
X57870358Y-57117141D01*
X57784887Y-57245058D01*
X57726013Y-57387191D01*
X57696000Y-57538078D01*
X53905000Y-57538078D01*
X53905000Y-56623944D01*
X53907457Y-56599000D01*
X53905000Y-56574053D01*
X53897649Y-56499415D01*
X53868601Y-56403657D01*
X53821429Y-56315405D01*
X53757948Y-56238052D01*
X53738565Y-56222145D01*
X52386007Y-54869587D01*
X52360948Y-54839052D01*
X52341565Y-54823145D01*
X52208000Y-54689580D01*
X52208000Y-54653084D01*
X52280191Y-54682987D01*
X52431078Y-54713000D01*
X52584922Y-54713000D01*
X52735809Y-54682987D01*
X52877942Y-54624113D01*
X53005859Y-54538642D01*
X53114642Y-54429859D01*
X53200113Y-54301942D01*
X53258987Y-54159809D01*
X53289000Y-54008922D01*
X53289000Y-53855078D01*
X53258987Y-53704191D01*
X53200113Y-53562058D01*
X53114642Y-53434141D01*
X53016000Y-53335499D01*
X53016000Y-53195736D01*
X53788753Y-53968489D01*
X53788753Y-53968489D01*
G37*
X53788753Y-53968489D02*
X53720887Y-54070058D01*
X53662013Y-54212191D01*
X53632000Y-54363078D01*
X53632000Y-54516922D01*
X53662013Y-54667809D01*
X53720887Y-54809942D01*
X53806358Y-54937859D01*
X53915141Y-55046642D01*
X54043058Y-55132113D01*
X54185191Y-55190987D01*
X54336078Y-55221000D01*
X54489922Y-55221000D01*
X54640809Y-55190987D01*
X54782942Y-55132113D01*
X54910859Y-55046642D01*
X55019642Y-54937859D01*
X55045840Y-54898650D01*
X55172191Y-54950987D01*
X55323078Y-54981000D01*
X55476922Y-54981000D01*
X55627809Y-54950987D01*
X55769942Y-54892113D01*
X55897859Y-54806642D01*
X56006642Y-54697859D01*
X56092113Y-54569942D01*
X56150987Y-54427809D01*
X56174818Y-54308001D01*
X56483581Y-54308001D01*
X60849307Y-58673728D01*
X60722191Y-58699013D01*
X60580058Y-58757887D01*
X60452141Y-58843358D01*
X60343358Y-58952141D01*
X60257887Y-59080058D01*
X60199013Y-59222191D01*
X60169000Y-59373078D01*
X60169000Y-59526922D01*
X60199013Y-59677809D01*
X60257887Y-59819942D01*
X60343358Y-59947859D01*
X60452141Y-60056642D01*
X60580058Y-60142113D01*
X60722191Y-60200987D01*
X60873078Y-60231000D01*
X61026922Y-60231000D01*
X61177809Y-60200987D01*
X61319942Y-60142113D01*
X61447859Y-60056642D01*
X61556642Y-59947859D01*
X61642113Y-59819942D01*
X61700987Y-59677809D01*
X61731000Y-59526922D01*
X61731000Y-59373078D01*
X61700987Y-59222191D01*
X61642113Y-59080058D01*
X61556642Y-58952141D01*
X61489501Y-58885000D01*
X64493719Y-58885000D01*
X64457710Y-58904247D01*
X64322342Y-59015341D01*
X64211248Y-59150709D01*
X64128698Y-59305149D01*
X64077865Y-59472726D01*
X64065001Y-59603333D01*
X64065000Y-60548764D01*
X61816259Y-62797506D01*
X61782342Y-62825341D01*
X61754507Y-62859258D01*
X61754505Y-62859260D01*
X61671248Y-62960709D01*
X61588698Y-63115148D01*
X61572466Y-63168659D01*
X61567257Y-63163450D01*
X61551350Y-63144067D01*
X61473997Y-63080586D01*
X61385745Y-63033414D01*
X61289987Y-63004366D01*
X61221859Y-62997656D01*
X61122576Y-62898373D01*
X60994659Y-62812902D01*
X60852526Y-62754028D01*
X60701639Y-62724015D01*
X60547795Y-62724015D01*
X60396908Y-62754028D01*
X60254775Y-62812902D01*
X60126858Y-62898373D01*
X60018075Y-63007156D01*
X59932604Y-63135073D01*
X59873730Y-63277206D01*
X59843717Y-63428093D01*
X59843717Y-63581937D01*
X59873730Y-63732824D01*
X59932604Y-63874957D01*
X60018075Y-64002874D01*
X60126858Y-64111657D01*
X60254775Y-64197128D01*
X60396908Y-64256002D01*
X60547795Y-64286015D01*
X60701639Y-64286015D01*
X60852526Y-64256002D01*
X60959802Y-64211566D01*
X60959802Y-64777775D01*
X60863809Y-64738013D01*
X60712922Y-64708000D01*
X60559078Y-64708000D01*
X60408191Y-64738013D01*
X60266058Y-64796887D01*
X60138141Y-64882358D01*
X60029358Y-64991141D01*
X59943887Y-65119058D01*
X59885013Y-65261191D01*
X59855000Y-65412078D01*
X59855000Y-65551580D01*
X58520580Y-66886000D01*
X58184501Y-66886000D01*
X58194642Y-66875859D01*
X58280113Y-66747942D01*
X58338987Y-66605809D01*
X58369000Y-66454922D01*
X58369000Y-66301078D01*
X58338987Y-66150191D01*
X58280113Y-66008058D01*
X58194642Y-65880141D01*
X58085859Y-65771358D01*
X57957942Y-65685887D01*
X57815809Y-65627013D01*
X57664922Y-65597000D01*
X57525420Y-65597000D01*
X56537933Y-64609513D01*
X56672809Y-64582685D01*
X56814942Y-64523811D01*
X56942859Y-64438340D01*
X57051642Y-64329557D01*
X57137113Y-64201640D01*
X57195987Y-64059507D01*
X57226000Y-63908620D01*
X57226000Y-63754776D01*
X57195987Y-63603889D01*
X57137113Y-63461756D01*
X57051642Y-63333839D01*
X56942859Y-63225056D01*
X56814942Y-63139585D01*
X56672809Y-63080711D01*
X56521922Y-63050698D01*
X56445830Y-63050698D01*
X56416734Y-62904422D01*
X56357860Y-62762289D01*
X56272389Y-62634372D01*
X56163606Y-62525589D01*
X56035689Y-62440118D01*
X56010126Y-62429530D01*
X56249021Y-62190635D01*
X56329058Y-62244113D01*
X56471191Y-62302987D01*
X56622078Y-62333000D01*
X56775922Y-62333000D01*
X56926809Y-62302987D01*
X57068942Y-62244113D01*
X57196859Y-62158642D01*
X57305642Y-62049859D01*
X57391113Y-61921942D01*
X57449987Y-61779809D01*
X57480000Y-61628922D01*
X57480000Y-61475078D01*
X57449987Y-61324191D01*
X57391113Y-61182058D01*
X57305642Y-61054141D01*
X57196859Y-60945358D01*
X57068942Y-60859887D01*
X56926809Y-60801013D01*
X56775922Y-60771000D01*
X56622078Y-60771000D01*
X56471191Y-60801013D01*
X56329058Y-60859887D01*
X56201141Y-60945358D01*
X56130169Y-61016330D01*
X56107121Y-61018600D01*
X56107120Y-61018600D01*
X56028750Y-61026319D01*
X55928204Y-61056819D01*
X55835540Y-61106349D01*
X55754320Y-61173005D01*
X55737619Y-61193355D01*
X54884173Y-62046801D01*
X53107155Y-62046801D01*
X53131000Y-61926922D01*
X53131000Y-61834470D01*
X53727263Y-61303130D01*
X53757948Y-61277948D01*
X53780424Y-61250561D01*
X53804426Y-61224523D01*
X53812096Y-61211967D01*
X53821429Y-61200595D01*
X53838126Y-61169357D01*
X53856592Y-61139129D01*
X53861664Y-61125321D01*
X53868601Y-61112343D01*
X53878887Y-61078435D01*
X53891096Y-61045198D01*
X53893376Y-61030670D01*
X53897649Y-61016585D01*
X53901121Y-60981328D01*
X53906613Y-60946342D01*
X53905000Y-60906707D01*
X53905000Y-57538078D01*
X57696000Y-57538078D01*
X57696000Y-57691922D01*
X57726013Y-57842809D01*
X57784887Y-57984942D01*
X57870358Y-58112859D01*
X57979141Y-58221642D01*
X58107058Y-58307113D01*
X58249191Y-58365987D01*
X58400078Y-58396000D01*
X58553922Y-58396000D01*
X58704809Y-58365987D01*
X58846942Y-58307113D01*
X58974859Y-58221642D01*
X59083642Y-58112859D01*
X59169113Y-57984942D01*
X59227987Y-57842809D01*
X59258000Y-57691922D01*
X59258000Y-57538078D01*
X59227987Y-57387191D01*
X59169113Y-57245058D01*
X59083642Y-57117141D01*
X58974859Y-57008358D01*
X58846942Y-56922887D01*
X58704809Y-56864013D01*
X58553922Y-56834000D01*
X58400078Y-56834000D01*
X58249191Y-56864013D01*
X58107058Y-56922887D01*
X57979141Y-57008358D01*
X57870358Y-57117141D01*
X57784887Y-57245058D01*
X57726013Y-57387191D01*
X57696000Y-57538078D01*
X53905000Y-57538078D01*
X53905000Y-56623944D01*
X53907457Y-56599000D01*
X53905000Y-56574053D01*
X53897649Y-56499415D01*
X53868601Y-56403657D01*
X53821429Y-56315405D01*
X53757948Y-56238052D01*
X53738565Y-56222145D01*
X52386007Y-54869587D01*
X52360948Y-54839052D01*
X52341565Y-54823145D01*
X52208000Y-54689580D01*
X52208000Y-54653084D01*
X52280191Y-54682987D01*
X52431078Y-54713000D01*
X52584922Y-54713000D01*
X52735809Y-54682987D01*
X52877942Y-54624113D01*
X53005859Y-54538642D01*
X53114642Y-54429859D01*
X53200113Y-54301942D01*
X53258987Y-54159809D01*
X53289000Y-54008922D01*
X53289000Y-53855078D01*
X53258987Y-53704191D01*
X53200113Y-53562058D01*
X53114642Y-53434141D01*
X53016000Y-53335499D01*
X53016000Y-53195736D01*
X53788753Y-53968489D01*
G36*
X51085601Y-56311942D02*
G01*
X51085600Y-57277128D01*
X51083021Y-57303315D01*
X51085600Y-57329502D01*
X51085600Y-57329509D01*
X51093319Y-57407879D01*
X51123819Y-57508425D01*
X51173349Y-57601090D01*
X51240005Y-57682310D01*
X51260354Y-57699010D01*
X51961365Y-58400022D01*
X51907887Y-58480058D01*
X51849013Y-58622191D01*
X51819000Y-58773078D01*
X51819000Y-58926922D01*
X51849013Y-59077809D01*
X51907887Y-59219942D01*
X51993358Y-59347859D01*
X52102141Y-59456642D01*
X52230058Y-59542113D01*
X52304088Y-59572777D01*
X52172191Y-59599013D01*
X52097992Y-59629748D01*
X52057113Y-59531058D01*
X51971642Y-59403141D01*
X51862859Y-59294358D01*
X51734942Y-59208887D01*
X51592809Y-59150013D01*
X51441922Y-59120000D01*
X51288078Y-59120000D01*
X51137191Y-59150013D01*
X50995058Y-59208887D01*
X50867141Y-59294358D01*
X50758358Y-59403141D01*
X50672887Y-59531058D01*
X50614013Y-59673191D01*
X50584000Y-59824078D01*
X50584000Y-59977922D01*
X50614013Y-60128809D01*
X50672887Y-60270942D01*
X50755681Y-60394853D01*
X50629191Y-60420013D01*
X50487058Y-60478887D01*
X50359141Y-60564358D01*
X50250358Y-60673141D01*
X50164887Y-60801058D01*
X50163661Y-60804018D01*
X49660643Y-60301000D01*
X49663922Y-60301000D01*
X49814809Y-60270987D01*
X49956942Y-60212113D01*
X50084859Y-60126642D01*
X50193642Y-60017859D01*
X50279113Y-59889942D01*
X50337987Y-59747809D01*
X50368000Y-59596922D01*
X50368000Y-59443078D01*
X50337987Y-59292191D01*
X50279113Y-59150058D01*
X50193642Y-59022141D01*
X50084859Y-58913358D01*
X49956942Y-58827887D01*
X49814809Y-58769013D01*
X49663922Y-58739000D01*
X49510078Y-58739000D01*
X49359191Y-58769013D01*
X49217058Y-58827887D01*
X49109721Y-58899607D01*
X49109721Y-57443153D01*
X49132608Y-57466040D01*
X49260525Y-57551511D01*
X49402658Y-57610385D01*
X49553545Y-57640398D01*
X49707389Y-57640398D01*
X49858276Y-57610385D01*
X50000409Y-57551511D01*
X50128326Y-57466040D01*
X50237109Y-57357257D01*
X50322580Y-57229340D01*
X50381454Y-57087207D01*
X50411467Y-56936320D01*
X50411467Y-56782476D01*
X50381454Y-56631589D01*
X50322580Y-56489456D01*
X50237109Y-56361539D01*
X50128326Y-56252756D01*
X50088132Y-56225900D01*
X50092113Y-56219942D01*
X50150987Y-56077809D01*
X50181000Y-55926922D01*
X50181000Y-55862400D01*
X50636059Y-55862400D01*
X51085601Y-56311942D01*
X51085601Y-56311942D01*
G37*
X51085601Y-56311942D02*
X51085600Y-57277128D01*
X51083021Y-57303315D01*
X51085600Y-57329502D01*
X51085600Y-57329509D01*
X51093319Y-57407879D01*
X51123819Y-57508425D01*
X51173349Y-57601090D01*
X51240005Y-57682310D01*
X51260354Y-57699010D01*
X51961365Y-58400022D01*
X51907887Y-58480058D01*
X51849013Y-58622191D01*
X51819000Y-58773078D01*
X51819000Y-58926922D01*
X51849013Y-59077809D01*
X51907887Y-59219942D01*
X51993358Y-59347859D01*
X52102141Y-59456642D01*
X52230058Y-59542113D01*
X52304088Y-59572777D01*
X52172191Y-59599013D01*
X52097992Y-59629748D01*
X52057113Y-59531058D01*
X51971642Y-59403141D01*
X51862859Y-59294358D01*
X51734942Y-59208887D01*
X51592809Y-59150013D01*
X51441922Y-59120000D01*
X51288078Y-59120000D01*
X51137191Y-59150013D01*
X50995058Y-59208887D01*
X50867141Y-59294358D01*
X50758358Y-59403141D01*
X50672887Y-59531058D01*
X50614013Y-59673191D01*
X50584000Y-59824078D01*
X50584000Y-59977922D01*
X50614013Y-60128809D01*
X50672887Y-60270942D01*
X50755681Y-60394853D01*
X50629191Y-60420013D01*
X50487058Y-60478887D01*
X50359141Y-60564358D01*
X50250358Y-60673141D01*
X50164887Y-60801058D01*
X50163661Y-60804018D01*
X49660643Y-60301000D01*
X49663922Y-60301000D01*
X49814809Y-60270987D01*
X49956942Y-60212113D01*
X50084859Y-60126642D01*
X50193642Y-60017859D01*
X50279113Y-59889942D01*
X50337987Y-59747809D01*
X50368000Y-59596922D01*
X50368000Y-59443078D01*
X50337987Y-59292191D01*
X50279113Y-59150058D01*
X50193642Y-59022141D01*
X50084859Y-58913358D01*
X49956942Y-58827887D01*
X49814809Y-58769013D01*
X49663922Y-58739000D01*
X49510078Y-58739000D01*
X49359191Y-58769013D01*
X49217058Y-58827887D01*
X49109721Y-58899607D01*
X49109721Y-57443153D01*
X49132608Y-57466040D01*
X49260525Y-57551511D01*
X49402658Y-57610385D01*
X49553545Y-57640398D01*
X49707389Y-57640398D01*
X49858276Y-57610385D01*
X50000409Y-57551511D01*
X50128326Y-57466040D01*
X50237109Y-57357257D01*
X50322580Y-57229340D01*
X50381454Y-57087207D01*
X50411467Y-56936320D01*
X50411467Y-56782476D01*
X50381454Y-56631589D01*
X50322580Y-56489456D01*
X50237109Y-56361539D01*
X50128326Y-56252756D01*
X50088132Y-56225900D01*
X50092113Y-56219942D01*
X50150987Y-56077809D01*
X50181000Y-55926922D01*
X50181000Y-55862400D01*
X50636059Y-55862400D01*
X51085601Y-56311942D01*
G36*
X98863128Y-51265000D02*
G01*
X93275000Y-51265000D01*
X93250224Y-51267440D01*
X93226399Y-51274667D01*
X93204443Y-51286403D01*
X93185197Y-51302197D01*
X93169403Y-51321443D01*
X93157667Y-51343399D01*
X93150440Y-51367224D01*
X93148000Y-51392000D01*
X93148000Y-52660172D01*
X92172175Y-51684348D01*
X92150303Y-51657697D01*
X92043943Y-51570409D01*
X91922597Y-51505548D01*
X91790930Y-51465607D01*
X91688309Y-51455500D01*
X91688298Y-51455500D01*
X91654000Y-51452122D01*
X91619702Y-51455500D01*
X79627000Y-51455500D01*
X79627000Y-41627000D01*
X98872871Y-41627000D01*
X98863128Y-51265000D01*
X98863128Y-51265000D01*
G37*
X98863128Y-51265000D02*
X93275000Y-51265000D01*
X93250224Y-51267440D01*
X93226399Y-51274667D01*
X93204443Y-51286403D01*
X93185197Y-51302197D01*
X93169403Y-51321443D01*
X93157667Y-51343399D01*
X93150440Y-51367224D01*
X93148000Y-51392000D01*
X93148000Y-52660172D01*
X92172175Y-51684348D01*
X92150303Y-51657697D01*
X92043943Y-51570409D01*
X91922597Y-51505548D01*
X91790930Y-51465607D01*
X91688309Y-51455500D01*
X91688298Y-51455500D01*
X91654000Y-51452122D01*
X91619702Y-51455500D01*
X79627000Y-51455500D01*
X79627000Y-41627000D01*
X98872871Y-41627000D01*
X98863128Y-51265000D01*
G36*
X92591500Y-67140000D02*
G01*
X88094304Y-67140000D01*
X88037548Y-67002979D01*
X87947208Y-66867775D01*
X87832225Y-66752792D01*
X87697021Y-66662452D01*
X87546789Y-66600224D01*
X87387305Y-66568500D01*
X87224695Y-66568500D01*
X87065211Y-66600224D01*
X86914979Y-66662452D01*
X86779775Y-66752792D01*
X86664792Y-66867775D01*
X86574452Y-67002979D01*
X86517696Y-67140000D01*
X82734000Y-67140000D01*
X82734000Y-61933000D01*
X82731560Y-61908224D01*
X82724333Y-61884399D01*
X82712597Y-61862443D01*
X82704840Y-61852029D01*
X80257500Y-58894826D01*
X80257500Y-57396327D01*
X81372328Y-56281500D01*
X90954702Y-56281500D01*
X90989000Y-56284878D01*
X91023298Y-56281500D01*
X91023309Y-56281500D01*
X91125930Y-56271393D01*
X91257597Y-56231452D01*
X91378943Y-56166591D01*
X91485303Y-56079303D01*
X91507175Y-56052652D01*
X92314447Y-55245381D01*
X92372789Y-55233776D01*
X92523021Y-55171548D01*
X92591501Y-55125791D01*
X92591500Y-67140000D01*
X92591500Y-67140000D01*
G37*
X92591500Y-67140000D02*
X88094304Y-67140000D01*
X88037548Y-67002979D01*
X87947208Y-66867775D01*
X87832225Y-66752792D01*
X87697021Y-66662452D01*
X87546789Y-66600224D01*
X87387305Y-66568500D01*
X87224695Y-66568500D01*
X87065211Y-66600224D01*
X86914979Y-66662452D01*
X86779775Y-66752792D01*
X86664792Y-66867775D01*
X86574452Y-67002979D01*
X86517696Y-67140000D01*
X82734000Y-67140000D01*
X82734000Y-61933000D01*
X82731560Y-61908224D01*
X82724333Y-61884399D01*
X82712597Y-61862443D01*
X82704840Y-61852029D01*
X80257500Y-58894826D01*
X80257500Y-57396327D01*
X81372328Y-56281500D01*
X90954702Y-56281500D01*
X90989000Y-56284878D01*
X91023298Y-56281500D01*
X91023309Y-56281500D01*
X91125930Y-56271393D01*
X91257597Y-56231452D01*
X91378943Y-56166591D01*
X91485303Y-56079303D01*
X91507175Y-56052652D01*
X92314447Y-55245381D01*
X92372789Y-55233776D01*
X92523021Y-55171548D01*
X92591501Y-55125791D01*
X92591500Y-67140000D01*
G36*
X98863000Y-63457000D02*
G01*
X93988500Y-63457000D01*
X93988500Y-57996000D01*
X98863000Y-57996000D01*
X98863000Y-63457000D01*
X98863000Y-63457000D01*
G37*
X98863000Y-63457000D02*
X93988500Y-63457000D01*
X93988500Y-57996000D01*
X98863000Y-57996000D01*
X98863000Y-63457000D01*
G36*
X93148000Y-69680000D02*
G01*
X93150440Y-69704776D01*
X93157667Y-69728601D01*
X93169403Y-69750557D01*
X93185197Y-69769803D01*
X93204443Y-69785597D01*
X93226399Y-69797333D01*
X93250224Y-69804560D01*
X93275000Y-69807000D01*
X98863123Y-69807000D01*
X98872877Y-79873000D01*
X80084544Y-79873000D01*
X80182291Y-79820753D01*
X80317659Y-79709659D01*
X80428753Y-79574291D01*
X80511303Y-79419851D01*
X80562136Y-79252274D01*
X80579301Y-79078000D01*
X80562136Y-78903726D01*
X80511303Y-78736149D01*
X80428753Y-78581709D01*
X80367030Y-78506500D01*
X96644519Y-78506500D01*
X96693979Y-78539548D01*
X96844211Y-78601776D01*
X97003695Y-78633500D01*
X97166305Y-78633500D01*
X97325789Y-78601776D01*
X97476021Y-78539548D01*
X97611225Y-78449208D01*
X97726208Y-78334225D01*
X97816548Y-78199021D01*
X97878776Y-78048789D01*
X97910500Y-77889305D01*
X97910500Y-77726695D01*
X97878776Y-77567211D01*
X97816548Y-77416979D01*
X97726208Y-77281775D01*
X97611225Y-77166792D01*
X97476021Y-77076452D01*
X97325789Y-77014224D01*
X97166305Y-76982500D01*
X97003695Y-76982500D01*
X96844211Y-77014224D01*
X96693979Y-77076452D01*
X96644519Y-77109500D01*
X80588970Y-77109500D01*
X80014918Y-76535448D01*
X82694952Y-73962616D01*
X82711135Y-73943697D01*
X82723317Y-73921985D01*
X82731028Y-73898313D01*
X82734000Y-73871000D01*
X82734000Y-70798500D01*
X86343702Y-70798500D01*
X86378000Y-70801878D01*
X86412298Y-70798500D01*
X86412309Y-70798500D01*
X86514930Y-70788393D01*
X86646597Y-70748452D01*
X86767943Y-70683591D01*
X86874303Y-70596303D01*
X86896175Y-70569652D01*
X89690828Y-67775000D01*
X93148000Y-67775000D01*
X93148000Y-69680000D01*
X93148000Y-69680000D01*
G37*
X93148000Y-69680000D02*
X93150440Y-69704776D01*
X93157667Y-69728601D01*
X93169403Y-69750557D01*
X93185197Y-69769803D01*
X93204443Y-69785597D01*
X93226399Y-69797333D01*
X93250224Y-69804560D01*
X93275000Y-69807000D01*
X98863123Y-69807000D01*
X98872877Y-79873000D01*
X80084544Y-79873000D01*
X80182291Y-79820753D01*
X80317659Y-79709659D01*
X80428753Y-79574291D01*
X80511303Y-79419851D01*
X80562136Y-79252274D01*
X80579301Y-79078000D01*
X80562136Y-78903726D01*
X80511303Y-78736149D01*
X80428753Y-78581709D01*
X80367030Y-78506500D01*
X96644519Y-78506500D01*
X96693979Y-78539548D01*
X96844211Y-78601776D01*
X97003695Y-78633500D01*
X97166305Y-78633500D01*
X97325789Y-78601776D01*
X97476021Y-78539548D01*
X97611225Y-78449208D01*
X97726208Y-78334225D01*
X97816548Y-78199021D01*
X97878776Y-78048789D01*
X97910500Y-77889305D01*
X97910500Y-77726695D01*
X97878776Y-77567211D01*
X97816548Y-77416979D01*
X97726208Y-77281775D01*
X97611225Y-77166792D01*
X97476021Y-77076452D01*
X97325789Y-77014224D01*
X97166305Y-76982500D01*
X97003695Y-76982500D01*
X96844211Y-77014224D01*
X96693979Y-77076452D01*
X96644519Y-77109500D01*
X80588970Y-77109500D01*
X80014918Y-76535448D01*
X82694952Y-73962616D01*
X82711135Y-73943697D01*
X82723317Y-73921985D01*
X82731028Y-73898313D01*
X82734000Y-73871000D01*
X82734000Y-70798500D01*
X86343702Y-70798500D01*
X86378000Y-70801878D01*
X86412298Y-70798500D01*
X86412309Y-70798500D01*
X86514930Y-70788393D01*
X86646597Y-70748452D01*
X86767943Y-70683591D01*
X86874303Y-70596303D01*
X86896175Y-70569652D01*
X89690828Y-67775000D01*
X93148000Y-67775000D01*
X93148000Y-69680000D01*
G36*
X76066501Y-58631000D02*
G01*
X72256500Y-58631000D01*
X72256500Y-55837000D01*
X76066500Y-55837000D01*
X76066501Y-58631000D01*
X76066501Y-58631000D01*
G37*
X76066501Y-58631000D02*
X72256500Y-58631000D01*
X72256500Y-55837000D01*
X76066500Y-55837000D01*
X76066501Y-58631000D01*
M02*
