G04 #@! TF.GenerationSoftware,KiCad,Pcbnew,(5.1.0)-1*
G04 #@! TF.CreationDate,2020-02-16T21:22:29+11:00*
G04 #@! TF.ProjectId,BLDC_4,424c4443-5f34-42e6-9b69-6361645f7063,A*
G04 #@! TF.SameCoordinates,Original*
G04 #@! TF.FileFunction,Paste,Bot*
G04 #@! TF.FilePolarity,Positive*
%FSLAX46Y46*%
G04 Gerber Fmt 4.6, Leading zero omitted, Abs format (unit mm)*
G04 Created by KiCad (PCBNEW (5.1.0)-1) date 2020-02-16 21:22:29*
%MOMM*%
%LPD*%
G04 APERTURE LIST*
%ADD10R,1.800860X3.500120*%
%ADD11R,0.889000X2.540000*%
%ADD12R,5.588000X2.540000*%
%ADD13R,1.699260X2.540000*%
%ADD14R,1.198880X1.800860*%
%ADD15R,1.950720X2.499360*%
%ADD16R,1.849120X5.499100*%
%ADD17R,0.797560X0.797560*%
%ADD18R,5.000000X4.000000*%
%ADD19R,3.200400X0.899160*%
%ADD20R,8.150860X10.800080*%
%ADD21R,2.032000X1.524000*%
%ADD22R,0.635000X1.143000*%
%ADD23R,1.143000X0.635000*%
%ADD24R,1.016000X2.032000*%
%ADD25R,3.657600X2.032000*%
%ADD26C,0.635000*%
%ADD27C,0.150000*%
G04 APERTURE END LIST*
D10*
X65970000Y-47495640D03*
X65970000Y-52494360D03*
D11*
X69208500Y-70442000D03*
X69208500Y-65362000D03*
D12*
X73336000Y-70442000D03*
X73336000Y-65362000D03*
D11*
X69462500Y-55710000D03*
X69462500Y-50630000D03*
D12*
X73590000Y-55710000D03*
X73590000Y-50630000D03*
D13*
X45904000Y-75092740D03*
X45904000Y-71633260D03*
D14*
X44146320Y-63832920D03*
X46645680Y-63832920D03*
X46645680Y-60033080D03*
X44146320Y-60033080D03*
D15*
X56826000Y-43391000D03*
X53778000Y-43391000D03*
X59176000Y-46000000D03*
X62224000Y-46000000D03*
D16*
X63719560Y-73490000D03*
X58568440Y-73490000D03*
D17*
X56559300Y-74887000D03*
X55060700Y-74887000D03*
X56549300Y-73450000D03*
X55050700Y-73450000D03*
X56549300Y-72050000D03*
X55050700Y-72050000D03*
D18*
X70923000Y-44661000D03*
X73336000Y-60536000D03*
D19*
X78413460Y-69934000D03*
X78413460Y-71204000D03*
X78413460Y-72474000D03*
X78413460Y-75014000D03*
X78413460Y-76284000D03*
X78413460Y-77554000D03*
D20*
X89015420Y-73744000D03*
D19*
X78413460Y-57107000D03*
X78413460Y-58377000D03*
X78413460Y-59647000D03*
X78413460Y-62187000D03*
X78413460Y-63457000D03*
X78413460Y-64727000D03*
D20*
X89015420Y-60917000D03*
D19*
X78413460Y-44026000D03*
X78413460Y-45296000D03*
X78413460Y-46566000D03*
X78413460Y-49106000D03*
X78413460Y-50376000D03*
X78413460Y-51646000D03*
D20*
X89015420Y-47836000D03*
D21*
X62700000Y-68851000D03*
X62700000Y-65549000D03*
X67240000Y-71839000D03*
X67240000Y-68537000D03*
X66732000Y-58631000D03*
X66732000Y-55329000D03*
X62795000Y-60790000D03*
X62795000Y-57488000D03*
X60382000Y-60790000D03*
X60382000Y-57488000D03*
D22*
X52138000Y-48200000D03*
X53662000Y-48200000D03*
X50762000Y-48200000D03*
X49238000Y-48200000D03*
X45904000Y-69426000D03*
X47428000Y-69426000D03*
D23*
X49700000Y-42488000D03*
X49700000Y-44012000D03*
D22*
X45396000Y-46312000D03*
X43872000Y-46312000D03*
X45396000Y-49360000D03*
X43872000Y-49360000D03*
X45396000Y-52408000D03*
X43872000Y-52408000D03*
X45396000Y-55456000D03*
X43872000Y-55456000D03*
X45396000Y-53932000D03*
X43872000Y-53932000D03*
X45396000Y-50884000D03*
X43872000Y-50884000D03*
X45396000Y-47836000D03*
X43872000Y-47836000D03*
D23*
X57334000Y-57996000D03*
X57334000Y-56472000D03*
D22*
X52238000Y-72100000D03*
X53762000Y-72100000D03*
D23*
X50476000Y-52027000D03*
X50476000Y-50503000D03*
X50950000Y-54938000D03*
X50950000Y-56462000D03*
X52000000Y-52027000D03*
X52000000Y-50503000D03*
X52450000Y-54938000D03*
X52450000Y-56462000D03*
X75876000Y-76284000D03*
X75876000Y-77808000D03*
D22*
X83623000Y-67394000D03*
X82099000Y-67394000D03*
D23*
X53550000Y-52012000D03*
X53550000Y-50488000D03*
X53950000Y-54938000D03*
X53950000Y-56462000D03*
D22*
X76892000Y-67394000D03*
X78416000Y-67394000D03*
X79432000Y-67394000D03*
X80956000Y-67394000D03*
X52238000Y-75100000D03*
X53762000Y-75100000D03*
X52238000Y-73600000D03*
X53762000Y-73600000D03*
X77400000Y-54186000D03*
X78924000Y-54186000D03*
X80194000Y-54186000D03*
X81718000Y-54186000D03*
D23*
X46666000Y-44788000D03*
X46666000Y-46312000D03*
D24*
X58350000Y-48598000D03*
X62922000Y-48598000D03*
X60636000Y-48598000D03*
D25*
X60636000Y-55202000D03*
D23*
X59112000Y-64727000D03*
X59112000Y-63203000D03*
D22*
X56953000Y-70442000D03*
X55429000Y-70442000D03*
D23*
X48190000Y-62568000D03*
X48190000Y-64092000D03*
X43237000Y-56726000D03*
X43237000Y-58250000D03*
X45142000Y-67775000D03*
X45142000Y-66251000D03*
D22*
X56826000Y-48090000D03*
X55302000Y-48090000D03*
X56953000Y-68918000D03*
X55429000Y-68918000D03*
D23*
X57715000Y-64727000D03*
X57715000Y-63203000D03*
D22*
X54921000Y-60663000D03*
X53397000Y-60663000D03*
X53762000Y-70600000D03*
X52238000Y-70600000D03*
D23*
X48190000Y-61298000D03*
X48190000Y-59774000D03*
D22*
X53397000Y-59012000D03*
X54921000Y-59012000D03*
X47962000Y-49350000D03*
X46438000Y-49350000D03*
X47962000Y-53900000D03*
X46438000Y-53900000D03*
X47936000Y-55456000D03*
X46412000Y-55456000D03*
X43872000Y-44788000D03*
X45396000Y-44788000D03*
D26*
X49175185Y-74475185D03*
D27*
G36*
X49803803Y-74295580D02*
G01*
X48995580Y-75103803D01*
X48546567Y-74654790D01*
X49354790Y-73846567D01*
X49803803Y-74295580D01*
X49803803Y-74295580D01*
G37*
D26*
X50252815Y-75552815D03*
D27*
G36*
X50881433Y-75373210D02*
G01*
X50073210Y-76181433D01*
X49624197Y-75732420D01*
X50432420Y-74924197D01*
X50881433Y-75373210D01*
X50881433Y-75373210D01*
G37*
D22*
X50476000Y-46693000D03*
X52000000Y-46693000D03*
M02*
