M48
; DRILL file {KiCad (5.1.0)-1} date 2/16/2020 9:22:36 PM
; FORMAT={-:-/ absolute / inch / decimal}
; #@! TF.CreationDate,2020-02-16T21:22:36+11:00
; #@! TF.GenerationSoftware,Kicad,Pcbnew,(5.1.0)-1
FMAT,2
INCH
T1C0.0197
T2C0.0299
T3C0.0300
T4C0.0315
T5C0.0400
T6C0.0551
T7C0.0760
T8C0.0394
T9C0.1181
T10C0.1280
T11C0.1575
%
G90
G05
T1
X0.05Y-0.65
X1.6108Y-2.5433
X1.6108Y-2.6233
X1.6322Y-2.2233
X1.6422Y-2.7583
X1.6472Y-2.3083
X1.6873Y-2.7084
X1.7023Y-2.7638
X1.7092Y-2.4218
X1.7641Y-2.4557
X1.7972Y-2.3633
X1.8172Y-2.5933
X1.8216Y-2.4483
X1.8228Y-2.2286
X1.8237Y-2.0651
X1.8268Y-1.8858
X1.8272Y-2.6683
X1.8422Y-2.6233
X1.8622Y-2.0133
X1.8633Y-2.0967
X1.8772Y-2.9683
X1.8856Y-1.8869
X1.8922Y-2.6133
X1.9038Y-2.65
X1.9072Y-2.8533
X1.9252Y-1.8465
X1.9428Y-2.0194
X1.9449Y-2.1988
X1.9522Y-2.3433
X1.9532Y-2.8681
X1.954Y-2.2386
X1.9851Y-2.5383
X1.9861Y-2.2174
X1.9949Y-2.8066
X1.9961Y-1.7953
X1.9973Y-1.9488
X1.998Y-2.1378
X2.0017Y-2.5783
X2.0022Y-2.4083
X2.0122Y-2.6233
X2.0157Y-1.6693
X2.0222Y-2.3583
X2.0222Y-2.4883
X2.0269Y-2.6631
X2.0281Y-2.84
X2.0354Y-2.0945
X2.061Y-2.435
X2.0611Y-2.6807
X2.0622Y-2.5033
X2.063Y-2.376
X2.0672Y-2.1233
X2.0696Y-2.7183
X2.0709Y-2.3169
X2.0787Y-1.9409
X2.1142Y-1.8465
X2.1158Y-2.6843
X2.1222Y-1.9583
X2.1411Y-2.7881
X2.1422Y-2.1433
X2.1693Y-2.0118
X2.1811Y-2.1339
X2.1916Y-2.4855
X2.2022Y-2.3633
X2.2172Y-2.1584
X2.2222Y-2.5131
X2.2261Y-2.8654
X2.2322Y-2.4233
X2.248Y-1.7165
X2.2622Y-2.6983
X2.2672Y-2.6133
X2.3022Y-2.2683
X2.3465Y-2.1339
X2.3472Y-2.9083
X2.3701Y-2.0433
X2.3868Y-2.5002
X2.3872Y-2.5783
X2.3872Y-2.6333
X2.3872Y-2.6733
X2.3872Y-2.9083
X2.3922Y-2.5383
X2.3922Y-2.7583
X2.3996Y-2.3406
X2.4122Y-2.0433
X2.4222Y-2.4533
X2.4472Y-2.4233
X2.5122Y-2.6283
X2.5222Y-1.9283
X2.5222Y-2.1183
X2.5222Y-2.1633
X2.5572Y-2.3483
X2.5822Y-2.2433
X2.5822Y-2.9183
X2.5869Y-2.7579
X2.5872Y-2.5383
X2.5888Y-2.5825
X2.5892Y-2.4977
X2.5897Y-2.6264
X2.5901Y-2.4414
X2.6063Y-1.7638
X2.6893Y-2.9153
X2.6972Y-2.1083
X2.6972Y-2.4883
X2.7Y-3.2149
X2.7335Y-2.6923
X2.7472Y-2.1033
X2.7772Y-2.0783
X2.8Y-3.2
X2.8407Y-2.6886
X2.8525Y-2.9146
X2.8792Y-2.6876
X2.9172Y-2.9333
X2.9203Y-2.6877
X2.9482Y-2.9718
X2.9527Y-2.6575
X2.9636Y-2.7954
X2.9672Y-2.6933
X3.0115Y-2.6983
X3.0322Y-2.1433
X3.0327Y-2.6353
X3.0591Y-3.1142
X3.0972Y-3.1133
X3.1372Y-3.1133
X3.4372Y-2.6533
X3.4522Y-2.1433
X3.4972Y-2.1383
X3.6272Y-2.1433
X3.8222Y-3.0633
T2
X1.2596Y-3.1098
X1.2596Y-3.2098
X1.2596Y-3.3098
X1.2596Y-3.4098
X1.3596Y-3.1598
X1.3596Y-3.2598
X1.3596Y-3.3598
X1.3596Y-3.4598
T3
X2.6872Y-1.6933
X2.6872Y-1.7633
X2.6872Y-1.8333
X2.7572Y-1.6933
X2.7572Y-1.7633
X2.7572Y-1.8333
X2.8272Y-1.6933
X2.8272Y-1.7633
X2.8272Y-1.8333
X2.8622Y-2.2233
X2.8622Y-2.2833
X2.8972Y-1.6933
X2.8972Y-1.7633
X2.8972Y-1.8333
X2.9222Y-2.2233
X2.9222Y-2.2833
X2.9822Y-2.2233
X2.9822Y-2.2833
X3.4672Y-1.7333
X3.4672Y-1.8033
X3.4672Y-1.8733
X3.4672Y-1.9433
X3.4772Y-2.2433
X3.4772Y-2.3133
X3.4772Y-2.3933
X3.4772Y-2.4733
X3.4872Y-2.7533
X3.4872Y-2.8333
X3.4872Y-2.9033
X3.4872Y-2.9733
X3.5372Y-1.7333
X3.5372Y-1.8033
X3.5372Y-1.8733
X3.5372Y-1.9433
X3.5472Y-2.2433
X3.5472Y-2.3133
X3.5472Y-2.3933
X3.5472Y-2.4733
X3.5572Y-2.7533
X3.5572Y-2.8333
X3.5572Y-2.9033
X3.5572Y-2.9733
X3.6172Y-1.7333
X3.6172Y-1.8033
X3.6172Y-1.8733
X3.6172Y-1.9433
X3.6172Y-2.2433
X3.6172Y-2.3133
X3.6172Y-2.3933
X3.6172Y-2.4733
X3.6272Y-2.7533
X3.6272Y-2.8333
X3.6272Y-2.9033
X3.6272Y-2.9733
X3.8372Y-1.8233
X3.8372Y-1.8933
X3.8372Y-1.9633
X3.8372Y-2.3283
X3.8372Y-2.3933
X3.8372Y-2.4583
X3.8372Y-2.7833
X3.8372Y-2.8533
X3.8372Y-2.9233
T4
X2.4008Y-3.0433
X2.4796Y-3.0433
X2.5584Y-3.0433
X2.6371Y-3.0433
X2.7159Y-3.0433
X2.7947Y-3.0433
X2.8734Y-3.0433
X1.6457Y-1.7755
X1.6457Y-1.8543
X1.6457Y-1.933
X1.6457Y-2.0118
X1.6457Y-2.0905
X1.6457Y-2.1693
X2.3335Y-1.7106
X2.4123Y-1.7106
X2.4911Y-1.7106
X2.5698Y-1.7106
X1.8403Y-3.0433
X1.9191Y-3.0433
X1.9978Y-3.0433
X2.0766Y-3.0433
X2.1553Y-3.0433
X2.2341Y-3.0433
T5
X1.6772Y-2.8233
X1.6772Y-2.9233
X1.6772Y-3.0233
T6
X1.0335Y-2.55
X1.25Y-2.55
X1.0335Y-1.95
X1.25Y-1.95
T7
X0.8896Y-2.965
X0.8896Y-3.6047
T8
X1.937Y-1.7992
X2.0945Y-1.7992
T9
X1.0516Y-2.365
X1.0516Y-2.735
X1.0516Y-1.765
X1.0516Y-2.135
T10
X1.0096Y-3.0598
X1.0096Y-3.5098
T11
X4.4Y-1.75
X4.4Y-3.5
X0.85Y-1.75
T0
M30
