G04 #@! TF.GenerationSoftware,KiCad,Pcbnew,(5.1.0)-1*
G04 #@! TF.CreationDate,2020-02-16T21:22:29+11:00*
G04 #@! TF.ProjectId,BLDC_4,424c4443-5f34-42e6-9b69-6361645f7063,A*
G04 #@! TF.SameCoordinates,Original*
G04 #@! TF.FileFunction,Legend,Top*
G04 #@! TF.FilePolarity,Positive*
%FSLAX46Y46*%
G04 Gerber Fmt 4.6, Leading zero omitted, Abs format (unit mm)*
G04 Created by KiCad (PCBNEW (5.1.0)-1) date 2020-02-16 21:22:29*
%MOMM*%
%LPD*%
G04 APERTURE LIST*
%ADD10C,0.250000*%
%ADD11C,0.150000*%
%ADD12C,0.127000*%
%ADD13C,0.200000*%
%ADD14C,0.381000*%
%ADD15C,0.152400*%
%ADD16C,0.066040*%
%ADD17C,0.099060*%
%ADD18C,0.119380*%
%ADD19C,0.120000*%
%ADD20C,0.015000*%
%ADD21C,0.175000*%
%ADD22C,0.304800*%
%ADD23C,0.149860*%
%ADD24C,0.114300*%
%ADD25C,4.000000*%
%ADD26C,3.250000*%
%ADD27C,2.895000*%
%ADD28C,1.268000*%
%ADD29R,1.268000X1.268000*%
%ADD30C,1.300480*%
%ADD31O,1.198880X1.699260*%
%ADD32R,1.198880X1.699260*%
%ADD33R,3.200400X0.899160*%
%ADD34R,8.150860X10.800080*%
%ADD35O,3.048000X1.524000*%
%ADD36R,5.499100X1.849120*%
%ADD37R,7.498080X2.997200*%
%ADD38R,4.000000X5.000000*%
%ADD39R,0.300000X1.300480*%
%ADD40R,1.300480X0.300000*%
%ADD41R,3.599180X7.000240*%
%ADD42R,1.501140X0.299720*%
%ADD43R,2.032000X1.524000*%
%ADD44R,1.524000X2.032000*%
%ADD45R,1.143000X0.635000*%
%ADD46R,0.635000X1.143000*%
%ADD47R,0.599440X1.399540*%
%ADD48C,1.000000*%
%ADD49R,2.000000X2.200000*%
%ADD50R,2.400000X2.200000*%
%ADD51R,0.500000X1.500000*%
%ADD52R,1.300000X1.300000*%
%ADD53C,1.300000*%
%ADD54C,0.635000*%
%ADD55C,3.000000*%
%ADD56O,3.300000X2.700000*%
%ADD57C,2.700000*%
%ADD58C,0.254000*%
G04 APERTURE END LIST*
D10*
X90384761Y-88429761D02*
X90527619Y-88477380D01*
X90765714Y-88477380D01*
X90860952Y-88429761D01*
X90908571Y-88382142D01*
X90956190Y-88286904D01*
X90956190Y-88191666D01*
X90908571Y-88096428D01*
X90860952Y-88048809D01*
X90765714Y-88001190D01*
X90575238Y-87953571D01*
X90480000Y-87905952D01*
X90432380Y-87858333D01*
X90384761Y-87763095D01*
X90384761Y-87667857D01*
X90432380Y-87572619D01*
X90480000Y-87525000D01*
X90575238Y-87477380D01*
X90813333Y-87477380D01*
X90956190Y-87525000D01*
X91384761Y-87953571D02*
X91718095Y-87953571D01*
X91860952Y-88477380D02*
X91384761Y-88477380D01*
X91384761Y-87477380D01*
X91860952Y-87477380D01*
X92289523Y-88477380D02*
X92289523Y-87477380D01*
X92622857Y-88191666D01*
X92956190Y-87477380D01*
X92956190Y-88477380D01*
X94146666Y-87572619D02*
X94194285Y-87525000D01*
X94289523Y-87477380D01*
X94527619Y-87477380D01*
X94622857Y-87525000D01*
X94670476Y-87572619D01*
X94718095Y-87667857D01*
X94718095Y-87763095D01*
X94670476Y-87905952D01*
X94099047Y-88477380D01*
X94718095Y-88477380D01*
X95337142Y-87477380D02*
X95432380Y-87477380D01*
X95527619Y-87525000D01*
X95575238Y-87572619D01*
X95622857Y-87667857D01*
X95670476Y-87858333D01*
X95670476Y-88096428D01*
X95622857Y-88286904D01*
X95575238Y-88382142D01*
X95527619Y-88429761D01*
X95432380Y-88477380D01*
X95337142Y-88477380D01*
X95241904Y-88429761D01*
X95194285Y-88382142D01*
X95146666Y-88286904D01*
X95099047Y-88096428D01*
X95099047Y-87858333D01*
X95146666Y-87667857D01*
X95194285Y-87572619D01*
X95241904Y-87525000D01*
X95337142Y-87477380D01*
X96051428Y-87572619D02*
X96099047Y-87525000D01*
X96194285Y-87477380D01*
X96432380Y-87477380D01*
X96527619Y-87525000D01*
X96575238Y-87572619D01*
X96622857Y-87667857D01*
X96622857Y-87763095D01*
X96575238Y-87905952D01*
X96003809Y-88477380D01*
X96622857Y-88477380D01*
X97241904Y-87477380D02*
X97337142Y-87477380D01*
X97432380Y-87525000D01*
X97480000Y-87572619D01*
X97527619Y-87667857D01*
X97575238Y-87858333D01*
X97575238Y-88096428D01*
X97527619Y-88286904D01*
X97480000Y-88382142D01*
X97432380Y-88429761D01*
X97337142Y-88477380D01*
X97241904Y-88477380D01*
X97146666Y-88429761D01*
X97099047Y-88382142D01*
X97051428Y-88286904D01*
X97003809Y-88096428D01*
X97003809Y-87858333D01*
X97051428Y-87667857D01*
X97099047Y-87572619D01*
X97146666Y-87525000D01*
X97241904Y-87477380D01*
X85480000Y-89275000D02*
X85384761Y-89227380D01*
X85241904Y-89227380D01*
X85099047Y-89275000D01*
X85003809Y-89370238D01*
X84956190Y-89465476D01*
X84908571Y-89655952D01*
X84908571Y-89798809D01*
X84956190Y-89989285D01*
X85003809Y-90084523D01*
X85099047Y-90179761D01*
X85241904Y-90227380D01*
X85337142Y-90227380D01*
X85480000Y-90179761D01*
X85527619Y-90132142D01*
X85527619Y-89798809D01*
X85337142Y-89798809D01*
X85956190Y-90227380D02*
X85956190Y-89560714D01*
X85956190Y-89227380D02*
X85908571Y-89275000D01*
X85956190Y-89322619D01*
X86003809Y-89275000D01*
X85956190Y-89227380D01*
X85956190Y-89322619D01*
X86432380Y-90227380D02*
X86432380Y-89560714D01*
X86432380Y-89751190D02*
X86480000Y-89655952D01*
X86527619Y-89608333D01*
X86622857Y-89560714D01*
X86718095Y-89560714D01*
X86908571Y-89560714D02*
X87289523Y-89560714D01*
X87051428Y-89227380D02*
X87051428Y-90084523D01*
X87099047Y-90179761D01*
X87194285Y-90227380D01*
X87289523Y-90227380D01*
X87765714Y-90227380D02*
X87670476Y-90179761D01*
X87622857Y-90132142D01*
X87575238Y-90036904D01*
X87575238Y-89751190D01*
X87622857Y-89655952D01*
X87670476Y-89608333D01*
X87765714Y-89560714D01*
X87908571Y-89560714D01*
X88003809Y-89608333D01*
X88051428Y-89655952D01*
X88099047Y-89751190D01*
X88099047Y-90036904D01*
X88051428Y-90132142D01*
X88003809Y-90179761D01*
X87908571Y-90227380D01*
X87765714Y-90227380D01*
X88527619Y-89560714D02*
X88527619Y-90227380D01*
X88527619Y-89655952D02*
X88575238Y-89608333D01*
X88670476Y-89560714D01*
X88813333Y-89560714D01*
X88908571Y-89608333D01*
X88956190Y-89703571D01*
X88956190Y-90227380D01*
X90718095Y-89275000D02*
X90622857Y-89227380D01*
X90480000Y-89227380D01*
X90337142Y-89275000D01*
X90241904Y-89370238D01*
X90194285Y-89465476D01*
X90146666Y-89655952D01*
X90146666Y-89798809D01*
X90194285Y-89989285D01*
X90241904Y-90084523D01*
X90337142Y-90179761D01*
X90480000Y-90227380D01*
X90575238Y-90227380D01*
X90718095Y-90179761D01*
X90765714Y-90132142D01*
X90765714Y-89798809D01*
X90575238Y-89798809D01*
X91194285Y-90227380D02*
X91194285Y-89560714D01*
X91194285Y-89751190D02*
X91241904Y-89655952D01*
X91289523Y-89608333D01*
X91384761Y-89560714D01*
X91480000Y-89560714D01*
X92241904Y-90227380D02*
X92241904Y-89703571D01*
X92194285Y-89608333D01*
X92099047Y-89560714D01*
X91908571Y-89560714D01*
X91813333Y-89608333D01*
X92241904Y-90179761D02*
X92146666Y-90227380D01*
X91908571Y-90227380D01*
X91813333Y-90179761D01*
X91765714Y-90084523D01*
X91765714Y-89989285D01*
X91813333Y-89894047D01*
X91908571Y-89846428D01*
X92146666Y-89846428D01*
X92241904Y-89798809D01*
X92718095Y-90227380D02*
X92718095Y-89560714D01*
X92718095Y-89655952D02*
X92765714Y-89608333D01*
X92860952Y-89560714D01*
X93003809Y-89560714D01*
X93099047Y-89608333D01*
X93146666Y-89703571D01*
X93146666Y-90227380D01*
X93146666Y-89703571D02*
X93194285Y-89608333D01*
X93289523Y-89560714D01*
X93432380Y-89560714D01*
X93527619Y-89608333D01*
X93575238Y-89703571D01*
X93575238Y-90227380D01*
X94051428Y-90227380D02*
X94051428Y-89560714D01*
X94051428Y-89655952D02*
X94099047Y-89608333D01*
X94194285Y-89560714D01*
X94337142Y-89560714D01*
X94432380Y-89608333D01*
X94480000Y-89703571D01*
X94480000Y-90227380D01*
X94480000Y-89703571D02*
X94527619Y-89608333D01*
X94622857Y-89560714D01*
X94765714Y-89560714D01*
X94860952Y-89608333D01*
X94908571Y-89703571D01*
X94908571Y-90227380D01*
X95813333Y-90227380D02*
X95813333Y-89703571D01*
X95765714Y-89608333D01*
X95670476Y-89560714D01*
X95480000Y-89560714D01*
X95384761Y-89608333D01*
X95813333Y-90179761D02*
X95718095Y-90227380D01*
X95480000Y-90227380D01*
X95384761Y-90179761D01*
X95337142Y-90084523D01*
X95337142Y-89989285D01*
X95384761Y-89894047D01*
X95480000Y-89846428D01*
X95718095Y-89846428D01*
X95813333Y-89798809D01*
X96289523Y-90227380D02*
X96289523Y-89560714D01*
X96289523Y-89751190D02*
X96337142Y-89655952D01*
X96384761Y-89608333D01*
X96480000Y-89560714D01*
X96575238Y-89560714D01*
X97622857Y-90179761D02*
X97765714Y-90227380D01*
X98003809Y-90227380D01*
X98099047Y-90179761D01*
X98146666Y-90132142D01*
X98194285Y-90036904D01*
X98194285Y-89941666D01*
X98146666Y-89846428D01*
X98099047Y-89798809D01*
X98003809Y-89751190D01*
X97813333Y-89703571D01*
X97718095Y-89655952D01*
X97670476Y-89608333D01*
X97622857Y-89513095D01*
X97622857Y-89417857D01*
X97670476Y-89322619D01*
X97718095Y-89275000D01*
X97813333Y-89227380D01*
X98051428Y-89227380D01*
X98194285Y-89275000D01*
X99051428Y-90179761D02*
X98956190Y-90227380D01*
X98765714Y-90227380D01*
X98670476Y-90179761D01*
X98622857Y-90132142D01*
X98575238Y-90036904D01*
X98575238Y-89751190D01*
X98622857Y-89655952D01*
X98670476Y-89608333D01*
X98765714Y-89560714D01*
X98956190Y-89560714D01*
X99051428Y-89608333D01*
X99480000Y-90227380D02*
X99480000Y-89227380D01*
X99908571Y-90227380D02*
X99908571Y-89703571D01*
X99860952Y-89608333D01*
X99765714Y-89560714D01*
X99622857Y-89560714D01*
X99527619Y-89608333D01*
X99480000Y-89655952D01*
X100527619Y-90227380D02*
X100432380Y-90179761D01*
X100384761Y-90132142D01*
X100337142Y-90036904D01*
X100337142Y-89751190D01*
X100384761Y-89655952D01*
X100432380Y-89608333D01*
X100527619Y-89560714D01*
X100670476Y-89560714D01*
X100765714Y-89608333D01*
X100813333Y-89655952D01*
X100860952Y-89751190D01*
X100860952Y-90036904D01*
X100813333Y-90132142D01*
X100765714Y-90179761D01*
X100670476Y-90227380D01*
X100527619Y-90227380D01*
X101432380Y-90227380D02*
X101337142Y-90179761D01*
X101289523Y-90132142D01*
X101241904Y-90036904D01*
X101241904Y-89751190D01*
X101289523Y-89655952D01*
X101337142Y-89608333D01*
X101432380Y-89560714D01*
X101575238Y-89560714D01*
X101670476Y-89608333D01*
X101718095Y-89655952D01*
X101765714Y-89751190D01*
X101765714Y-90036904D01*
X101718095Y-90132142D01*
X101670476Y-90179761D01*
X101575238Y-90227380D01*
X101432380Y-90227380D01*
X102337142Y-90227380D02*
X102241904Y-90179761D01*
X102194285Y-90084523D01*
X102194285Y-89227380D01*
D11*
X20391428Y-66531904D02*
X20391428Y-65770000D01*
X20772380Y-66150952D02*
X20010476Y-66150952D01*
X20772380Y-64770000D02*
X20772380Y-65341428D01*
X20772380Y-65055714D02*
X19772380Y-65055714D01*
X19915238Y-65150952D01*
X20010476Y-65246190D01*
X20058095Y-65341428D01*
X19867619Y-64389047D02*
X19820000Y-64341428D01*
X19772380Y-64246190D01*
X19772380Y-64008095D01*
X19820000Y-63912857D01*
X19867619Y-63865238D01*
X19962857Y-63817619D01*
X20058095Y-63817619D01*
X20200952Y-63865238D01*
X20772380Y-64436666D01*
X20772380Y-63817619D01*
X19772380Y-63531904D02*
X20772380Y-63198571D01*
X19772380Y-62865238D01*
X20391428Y-52561904D02*
X20391428Y-51800000D01*
X20772380Y-52180952D02*
X20010476Y-52180952D01*
X20105714Y-50895238D02*
X20772380Y-50895238D01*
X19724761Y-51133333D02*
X20439047Y-51371428D01*
X20439047Y-50752380D01*
X20200952Y-50228571D02*
X20153333Y-50323809D01*
X20105714Y-50371428D01*
X20010476Y-50419047D01*
X19962857Y-50419047D01*
X19867619Y-50371428D01*
X19820000Y-50323809D01*
X19772380Y-50228571D01*
X19772380Y-50038095D01*
X19820000Y-49942857D01*
X19867619Y-49895238D01*
X19962857Y-49847619D01*
X20010476Y-49847619D01*
X20105714Y-49895238D01*
X20153333Y-49942857D01*
X20200952Y-50038095D01*
X20200952Y-50228571D01*
X20248571Y-50323809D01*
X20296190Y-50371428D01*
X20391428Y-50419047D01*
X20581904Y-50419047D01*
X20677142Y-50371428D01*
X20724761Y-50323809D01*
X20772380Y-50228571D01*
X20772380Y-50038095D01*
X20724761Y-49942857D01*
X20677142Y-49895238D01*
X20581904Y-49847619D01*
X20391428Y-49847619D01*
X20296190Y-49895238D01*
X20248571Y-49942857D01*
X20200952Y-50038095D01*
X19772380Y-49561904D02*
X20772380Y-49228571D01*
X19772380Y-48895238D01*
X65885714Y-47328571D02*
X66171428Y-47328571D01*
X66200000Y-47042857D01*
X66171428Y-47071428D01*
X66114285Y-47100000D01*
X65971428Y-47100000D01*
X65914285Y-47071428D01*
X65885714Y-47042857D01*
X65857142Y-46985714D01*
X65857142Y-46842857D01*
X65885714Y-46785714D01*
X65914285Y-46757142D01*
X65971428Y-46728571D01*
X66114285Y-46728571D01*
X66171428Y-46757142D01*
X66200000Y-46785714D01*
X65657142Y-47128571D02*
X65514285Y-46728571D01*
X65371428Y-47128571D01*
X64300000Y-46785714D02*
X64328571Y-46757142D01*
X64414285Y-46728571D01*
X64471428Y-46728571D01*
X64557142Y-46757142D01*
X64614285Y-46814285D01*
X64642857Y-46871428D01*
X64671428Y-46985714D01*
X64671428Y-47071428D01*
X64642857Y-47185714D01*
X64614285Y-47242857D01*
X64557142Y-47300000D01*
X64471428Y-47328571D01*
X64414285Y-47328571D01*
X64328571Y-47300000D01*
X64300000Y-47271428D01*
X64071428Y-46900000D02*
X63785714Y-46900000D01*
X64128571Y-46728571D02*
X63928571Y-47328571D01*
X63728571Y-46728571D01*
X63528571Y-46728571D02*
X63528571Y-47328571D01*
X63185714Y-46728571D01*
X63185714Y-47328571D01*
X62900000Y-46728571D02*
X62900000Y-47328571D01*
X62900000Y-47042857D02*
X62557142Y-47042857D01*
X62557142Y-46728571D02*
X62557142Y-47328571D01*
X61428571Y-46785714D02*
X61457142Y-46757142D01*
X61542857Y-46728571D01*
X61600000Y-46728571D01*
X61685714Y-46757142D01*
X61742857Y-46814285D01*
X61771428Y-46871428D01*
X61800000Y-46985714D01*
X61800000Y-47071428D01*
X61771428Y-47185714D01*
X61742857Y-47242857D01*
X61685714Y-47300000D01*
X61600000Y-47328571D01*
X61542857Y-47328571D01*
X61457142Y-47300000D01*
X61428571Y-47271428D01*
X61200000Y-46900000D02*
X60914285Y-46900000D01*
X61257142Y-46728571D02*
X61057142Y-47328571D01*
X60857142Y-46728571D01*
X60657142Y-46728571D02*
X60657142Y-47328571D01*
X60314285Y-46728571D01*
X60314285Y-47328571D01*
X59742857Y-46728571D02*
X60028571Y-46728571D01*
X60028571Y-47328571D01*
X58957142Y-47300000D02*
X59014285Y-47328571D01*
X59100000Y-47328571D01*
X59185714Y-47300000D01*
X59242857Y-47242857D01*
X59271428Y-47185714D01*
X59300000Y-47071428D01*
X59300000Y-46985714D01*
X59271428Y-46871428D01*
X59242857Y-46814285D01*
X59185714Y-46757142D01*
X59100000Y-46728571D01*
X59042857Y-46728571D01*
X58957142Y-46757142D01*
X58928571Y-46785714D01*
X58928571Y-46985714D01*
X59042857Y-46985714D01*
X58671428Y-46728571D02*
X58671428Y-47328571D01*
X58328571Y-46728571D01*
X58328571Y-47328571D01*
X58042857Y-46728571D02*
X58042857Y-47328571D01*
X57900000Y-47328571D01*
X57814285Y-47300000D01*
X57757142Y-47242857D01*
X57728571Y-47185714D01*
X57700000Y-47071428D01*
X57700000Y-46985714D01*
X57728571Y-46871428D01*
X57757142Y-46814285D01*
X57814285Y-46757142D01*
X57900000Y-46728571D01*
X58042857Y-46728571D01*
D10*
X41074000Y-77688095D02*
X41121619Y-77592857D01*
X41121619Y-77450000D01*
X41074000Y-77307142D01*
X40978761Y-77211904D01*
X40883523Y-77164285D01*
X40693047Y-77116666D01*
X40550190Y-77116666D01*
X40359714Y-77164285D01*
X40264476Y-77211904D01*
X40169238Y-77307142D01*
X40121619Y-77450000D01*
X40121619Y-77545238D01*
X40169238Y-77688095D01*
X40216857Y-77735714D01*
X40550190Y-77735714D01*
X40550190Y-77545238D01*
X40121619Y-78164285D02*
X41121619Y-78164285D01*
X40121619Y-78735714D01*
X41121619Y-78735714D01*
X40121619Y-79211904D02*
X41121619Y-79211904D01*
X41121619Y-79450000D01*
X41074000Y-79592857D01*
X40978761Y-79688095D01*
X40883523Y-79735714D01*
X40693047Y-79783333D01*
X40550190Y-79783333D01*
X40359714Y-79735714D01*
X40264476Y-79688095D01*
X40169238Y-79592857D01*
X40121619Y-79450000D01*
X40121619Y-79211904D01*
D11*
X47448561Y-73037571D02*
X47542904Y-73085190D01*
X47574352Y-73132809D01*
X47605800Y-73228047D01*
X47605800Y-73370904D01*
X47574352Y-73466142D01*
X47542904Y-73513761D01*
X47480009Y-73561380D01*
X47228428Y-73561380D01*
X47228428Y-72561380D01*
X47448561Y-72561380D01*
X47511457Y-72609000D01*
X47542904Y-72656619D01*
X47574352Y-72751857D01*
X47574352Y-72847095D01*
X47542904Y-72942333D01*
X47511457Y-72989952D01*
X47448561Y-73037571D01*
X47228428Y-73037571D01*
X48140409Y-73513761D02*
X48077514Y-73561380D01*
X47951723Y-73561380D01*
X47888828Y-73513761D01*
X47857380Y-73418523D01*
X47857380Y-73037571D01*
X47888828Y-72942333D01*
X47951723Y-72894714D01*
X48077514Y-72894714D01*
X48140409Y-72942333D01*
X48171857Y-73037571D01*
X48171857Y-73132809D01*
X47857380Y-73228047D01*
X48454885Y-72894714D02*
X48454885Y-73561380D01*
X48454885Y-72989952D02*
X48486333Y-72942333D01*
X48549228Y-72894714D01*
X48643571Y-72894714D01*
X48706466Y-72942333D01*
X48737914Y-73037571D01*
X48737914Y-73561380D01*
X49052390Y-72894714D02*
X49052390Y-73751857D01*
X49020942Y-73847095D01*
X48958047Y-73894714D01*
X48926600Y-73894714D01*
X49052390Y-72561380D02*
X49020942Y-72609000D01*
X49052390Y-72656619D01*
X49083838Y-72609000D01*
X49052390Y-72561380D01*
X49052390Y-72656619D01*
X49649895Y-73561380D02*
X49649895Y-73037571D01*
X49618447Y-72942333D01*
X49555552Y-72894714D01*
X49429761Y-72894714D01*
X49366866Y-72942333D01*
X49649895Y-73513761D02*
X49587000Y-73561380D01*
X49429761Y-73561380D01*
X49366866Y-73513761D01*
X49335419Y-73418523D01*
X49335419Y-73323285D01*
X49366866Y-73228047D01*
X49429761Y-73180428D01*
X49587000Y-73180428D01*
X49649895Y-73132809D01*
X49964371Y-73561380D02*
X49964371Y-72894714D01*
X49964371Y-72989952D02*
X49995819Y-72942333D01*
X50058714Y-72894714D01*
X50153057Y-72894714D01*
X50215952Y-72942333D01*
X50247400Y-73037571D01*
X50247400Y-73561380D01*
X50247400Y-73037571D02*
X50278847Y-72942333D01*
X50341742Y-72894714D01*
X50436085Y-72894714D01*
X50498980Y-72942333D01*
X50530428Y-73037571D01*
X50530428Y-73561380D01*
X50844904Y-73561380D02*
X50844904Y-72894714D01*
X50844904Y-72561380D02*
X50813457Y-72609000D01*
X50844904Y-72656619D01*
X50876352Y-72609000D01*
X50844904Y-72561380D01*
X50844904Y-72656619D01*
X51159380Y-72894714D02*
X51159380Y-73561380D01*
X51159380Y-72989952D02*
X51190828Y-72942333D01*
X51253723Y-72894714D01*
X51348066Y-72894714D01*
X51410961Y-72942333D01*
X51442409Y-73037571D01*
X51442409Y-73561380D01*
X52165704Y-72561380D02*
X52385838Y-73561380D01*
X52605971Y-72561380D01*
X53077685Y-73513761D02*
X53014790Y-73561380D01*
X52889000Y-73561380D01*
X52826104Y-73513761D01*
X52794657Y-73418523D01*
X52794657Y-73037571D01*
X52826104Y-72942333D01*
X52889000Y-72894714D01*
X53014790Y-72894714D01*
X53077685Y-72942333D01*
X53109133Y-73037571D01*
X53109133Y-73132809D01*
X52794657Y-73228047D01*
X53675190Y-73561380D02*
X53675190Y-72561380D01*
X53675190Y-73513761D02*
X53612295Y-73561380D01*
X53486504Y-73561380D01*
X53423609Y-73513761D01*
X53392161Y-73466142D01*
X53360714Y-73370904D01*
X53360714Y-73085190D01*
X53392161Y-72989952D01*
X53423609Y-72942333D01*
X53486504Y-72894714D01*
X53612295Y-72894714D01*
X53675190Y-72942333D01*
X54272695Y-73561380D02*
X54272695Y-72561380D01*
X54272695Y-73513761D02*
X54209800Y-73561380D01*
X54084009Y-73561380D01*
X54021114Y-73513761D01*
X53989666Y-73466142D01*
X53958219Y-73370904D01*
X53958219Y-73085190D01*
X53989666Y-72989952D01*
X54021114Y-72942333D01*
X54084009Y-72894714D01*
X54209800Y-72894714D01*
X54272695Y-72942333D01*
X54838752Y-73513761D02*
X54775857Y-73561380D01*
X54650066Y-73561380D01*
X54587171Y-73513761D01*
X54555723Y-73418523D01*
X54555723Y-73037571D01*
X54587171Y-72942333D01*
X54650066Y-72894714D01*
X54775857Y-72894714D01*
X54838752Y-72942333D01*
X54870200Y-73037571D01*
X54870200Y-73132809D01*
X54555723Y-73228047D01*
X55153228Y-73561380D02*
X55153228Y-72894714D01*
X55153228Y-73085190D02*
X55184676Y-72989952D01*
X55216123Y-72942333D01*
X55279019Y-72894714D01*
X55341914Y-72894714D01*
X44253380Y-71037380D02*
X44520047Y-72037380D01*
X44786714Y-71037380D01*
X45053380Y-71513571D02*
X45320047Y-71513571D01*
X45434333Y-72037380D02*
X45053380Y-72037380D01*
X45053380Y-71037380D01*
X45434333Y-71037380D01*
X45739095Y-71989761D02*
X45853380Y-72037380D01*
X46043857Y-72037380D01*
X46120047Y-71989761D01*
X46158142Y-71942142D01*
X46196238Y-71846904D01*
X46196238Y-71751666D01*
X46158142Y-71656428D01*
X46120047Y-71608809D01*
X46043857Y-71561190D01*
X45891476Y-71513571D01*
X45815285Y-71465952D01*
X45777190Y-71418333D01*
X45739095Y-71323095D01*
X45739095Y-71227857D01*
X45777190Y-71132619D01*
X45815285Y-71085000D01*
X45891476Y-71037380D01*
X46081952Y-71037380D01*
X46196238Y-71085000D01*
X46996238Y-71942142D02*
X46958142Y-71989761D01*
X46843857Y-72037380D01*
X46767666Y-72037380D01*
X46653380Y-71989761D01*
X46577190Y-71894523D01*
X46539095Y-71799285D01*
X46501000Y-71608809D01*
X46501000Y-71465952D01*
X46539095Y-71275476D01*
X46577190Y-71180238D01*
X46653380Y-71085000D01*
X46767666Y-71037380D01*
X46843857Y-71037380D01*
X46958142Y-71085000D01*
X46996238Y-71132619D01*
X48291476Y-71370714D02*
X48291476Y-72037380D01*
X48101000Y-70989761D02*
X47910523Y-71704047D01*
X48405761Y-71704047D01*
X48710523Y-71942142D02*
X48748619Y-71989761D01*
X48710523Y-72037380D01*
X48672428Y-71989761D01*
X48710523Y-71942142D01*
X48710523Y-72037380D01*
X49510523Y-72037380D02*
X49053380Y-72037380D01*
X49281952Y-72037380D02*
X49281952Y-71037380D01*
X49205761Y-71180238D01*
X49129571Y-71275476D01*
X49053380Y-71323095D01*
X49815285Y-71132619D02*
X49853380Y-71085000D01*
X49929571Y-71037380D01*
X50120047Y-71037380D01*
X50196238Y-71085000D01*
X50234333Y-71132619D01*
X50272428Y-71227857D01*
X50272428Y-71323095D01*
X50234333Y-71465952D01*
X49777190Y-72037380D01*
X50272428Y-72037380D01*
D12*
X36564999Y-74545001D02*
X24374999Y-74545001D01*
X36564999Y-74545001D02*
X36564999Y-92325001D01*
X36564999Y-92325001D02*
X24374999Y-92325001D01*
X20564999Y-74545001D02*
X18534999Y-74545001D01*
X18534999Y-74545001D02*
X18534999Y-92325001D01*
X18534999Y-92325001D02*
X20564999Y-92325001D01*
D13*
X32094999Y-73905001D02*
G75*
G03X32094999Y-73905001I-100000J0D01*
G01*
D14*
X40298860Y-56899580D02*
X40298860Y-54100500D01*
X44599080Y-43300420D02*
X44599080Y-56899580D01*
X40298860Y-46099500D02*
X40298860Y-43300420D01*
X44599080Y-43300420D02*
X42198780Y-43300420D01*
X40298860Y-43300420D02*
X41401220Y-43300420D01*
X44599080Y-56899580D02*
X42198780Y-56899580D01*
X40298860Y-56899580D02*
X41401220Y-56899580D01*
X58672280Y-41550080D02*
X58672280Y-41750740D01*
X58972000Y-41550080D02*
X58672280Y-41550080D01*
X58972000Y-41750740D02*
X58972000Y-41550080D01*
X67275260Y-41750740D02*
X67275260Y-46249080D01*
X57272740Y-41750740D02*
X57272740Y-46249080D01*
X64775900Y-42251120D02*
X64775900Y-41750740D01*
X66774880Y-42251120D02*
X64775900Y-42251120D01*
X66774880Y-45751240D02*
X66774880Y-42251120D01*
X57773120Y-42251120D02*
X57773120Y-45751240D01*
X59772100Y-42251120D02*
X57773120Y-42251120D01*
X59772100Y-41750740D02*
X59772100Y-42251120D01*
X57773120Y-42949620D02*
X57272740Y-42949620D01*
X57773120Y-44250100D02*
X57272740Y-44250100D01*
X66774880Y-44250100D02*
X67275260Y-44250100D01*
X67275260Y-42949620D02*
X66774880Y-42949620D01*
X64372040Y-45250860D02*
X64372040Y-45751240D01*
X64173920Y-45250860D02*
X64372040Y-45250860D01*
X64173920Y-45751240D02*
X64173920Y-45250860D01*
X60173420Y-45751240D02*
X60173420Y-45250860D01*
X60173420Y-45250860D02*
X60371540Y-45250860D01*
X60371540Y-45250860D02*
X60371540Y-45751240D01*
X57272740Y-41750740D02*
X67275260Y-41750740D01*
X66774880Y-45751240D02*
X57773120Y-45751240D01*
X57272740Y-46249080D02*
X67275260Y-46249080D01*
X62174940Y-45751240D02*
X62174940Y-45250860D01*
X62174940Y-45250860D02*
X62373060Y-45250860D01*
X62373060Y-45250860D02*
X62373060Y-45751240D01*
X44946420Y-75798860D02*
X44946420Y-76901220D01*
X44946420Y-80099080D02*
X44946420Y-77698780D01*
X58545580Y-75798860D02*
X58545580Y-76901220D01*
X58545580Y-80099080D02*
X58545580Y-77698780D01*
X55746500Y-75798860D02*
X58545580Y-75798860D01*
X58545580Y-80099080D02*
X44946420Y-80099080D01*
X44946420Y-75798860D02*
X47745500Y-75798860D01*
X78553160Y-42509620D02*
X86350960Y-42509620D01*
X77252680Y-44909920D02*
X78553160Y-42509620D01*
X77252680Y-50508080D02*
X77252680Y-44909920D01*
X78553160Y-52908380D02*
X77252680Y-50508080D01*
X86350960Y-52908380D02*
X78553160Y-52908380D01*
X86350960Y-42509620D02*
X86350960Y-52908380D01*
D15*
X41332000Y-76157000D02*
X41967000Y-75522000D01*
X41332000Y-77427000D02*
X41332000Y-76157000D01*
X41967000Y-78062000D02*
X41332000Y-77427000D01*
X43237000Y-78062000D02*
X41967000Y-78062000D01*
X43872000Y-77427000D02*
X43237000Y-78062000D01*
X43872000Y-76157000D02*
X43872000Y-77427000D01*
X43237000Y-75522000D02*
X43872000Y-76157000D01*
X41332000Y-72347000D02*
X41332000Y-71077000D01*
X41967000Y-70442000D02*
X41332000Y-71077000D01*
X43872000Y-71077000D02*
X43237000Y-70442000D01*
X43237000Y-70442000D02*
X41967000Y-70442000D01*
X41332000Y-73617000D02*
X41967000Y-72982000D01*
X41332000Y-74887000D02*
X41332000Y-73617000D01*
X41967000Y-75522000D02*
X41332000Y-74887000D01*
X43237000Y-75522000D02*
X41967000Y-75522000D01*
X43872000Y-74887000D02*
X43237000Y-75522000D01*
X43872000Y-73617000D02*
X43872000Y-74887000D01*
X43237000Y-72982000D02*
X43872000Y-73617000D01*
X41967000Y-72982000D02*
X41332000Y-72347000D01*
X43237000Y-72982000D02*
X41967000Y-72982000D01*
X43872000Y-72347000D02*
X43237000Y-72982000D01*
X43872000Y-71077000D02*
X43872000Y-72347000D01*
D16*
X42348000Y-76538000D02*
X42856000Y-76538000D01*
X42856000Y-76538000D02*
X42856000Y-77046000D01*
X42348000Y-77046000D02*
X42856000Y-77046000D01*
X42348000Y-76538000D02*
X42348000Y-77046000D01*
X42348000Y-71458000D02*
X42856000Y-71458000D01*
X42856000Y-71458000D02*
X42856000Y-71966000D01*
X42348000Y-71966000D02*
X42856000Y-71966000D01*
X42348000Y-71458000D02*
X42348000Y-71966000D01*
X42348000Y-73998000D02*
X42856000Y-73998000D01*
X42856000Y-73998000D02*
X42856000Y-74506000D01*
X42348000Y-74506000D02*
X42856000Y-74506000D01*
X42348000Y-73998000D02*
X42348000Y-74506000D01*
D12*
X70542000Y-51011000D02*
X75622000Y-51011000D01*
X70542000Y-56599000D02*
X70542000Y-51011000D01*
X75622000Y-56599000D02*
X70542000Y-56599000D01*
X75622000Y-51011000D02*
X75622000Y-56599000D01*
X75622000Y-51646000D02*
X70542000Y-51646000D01*
X75622000Y-55964000D02*
X70542000Y-55964000D01*
D14*
X67938500Y-51900000D02*
G75*
G03X67938500Y-51900000I-4000500J0D01*
G01*
X60737600Y-54201240D02*
X67138400Y-54201240D01*
X67138400Y-49598760D02*
X60737600Y-49598760D01*
X66937740Y-51900000D02*
G75*
G03X66937740Y-51900000I-2999740J0D01*
G01*
D11*
X93896000Y-50890000D02*
X93896000Y-45290000D01*
X98496000Y-50890000D02*
X93896000Y-50890000D01*
X98496000Y-45290000D02*
X98496000Y-50890000D01*
X93896000Y-45290000D02*
X98496000Y-45290000D01*
X93896000Y-63590000D02*
X93896000Y-57990000D01*
X98496000Y-63590000D02*
X93896000Y-63590000D01*
X98496000Y-57990000D02*
X98496000Y-63590000D01*
X93896000Y-57990000D02*
X98496000Y-57990000D01*
X93896000Y-75274000D02*
X93896000Y-69674000D01*
X98496000Y-75274000D02*
X93896000Y-75274000D01*
X98496000Y-69674000D02*
X98496000Y-75274000D01*
X93896000Y-69674000D02*
X98496000Y-69674000D01*
D14*
X78553160Y-68544620D02*
X86350960Y-68544620D01*
X77252680Y-70944920D02*
X78553160Y-68544620D01*
X77252680Y-76543080D02*
X77252680Y-70944920D01*
X78553160Y-78943380D02*
X77252680Y-76543080D01*
X86350960Y-78943380D02*
X78553160Y-78943380D01*
X86350960Y-68544620D02*
X86350960Y-78943380D01*
X78553160Y-55717620D02*
X86350960Y-55717620D01*
X77252680Y-58117920D02*
X78553160Y-55717620D01*
X77252680Y-63716080D02*
X77252680Y-58117920D01*
X78553160Y-66116380D02*
X77252680Y-63716080D01*
X86350960Y-66116380D02*
X78553160Y-66116380D01*
X86350960Y-55717620D02*
X86350960Y-66116380D01*
D12*
X52431800Y-58834200D02*
X52939800Y-59342200D01*
X52939800Y-68333800D02*
X52431800Y-68841800D01*
X43440200Y-68841800D02*
X42932200Y-68333800D01*
X42932200Y-59342200D02*
X43440200Y-58834200D01*
X44329200Y-59850200D02*
G75*
G03X44329200Y-59850200I-381000J0D01*
G01*
X43440200Y-58834200D02*
X52431800Y-58834200D01*
X52939800Y-59342200D02*
X52939800Y-68333800D01*
X43440200Y-68841800D02*
X52431800Y-68841800D01*
X42932200Y-68333800D02*
X42932200Y-59342200D01*
X61225478Y-57973140D02*
G75*
G03X61225478Y-57973140I-406598J0D01*
G01*
X60176260Y-57457520D02*
X66175740Y-57457520D01*
X66175740Y-72456220D02*
X60176260Y-72456220D01*
X66175740Y-72456220D02*
X66175740Y-57457520D01*
X60176260Y-57457520D02*
X60176260Y-72456220D01*
X74098000Y-59647000D02*
X74098000Y-57996000D01*
X71812000Y-63076000D02*
X71812000Y-61425000D01*
X74098000Y-63076000D02*
X71812000Y-63076000D01*
X74098000Y-61425000D02*
X74098000Y-63076000D01*
X71812000Y-57996000D02*
X71812000Y-59647000D01*
X74098000Y-57996000D02*
X71812000Y-57996000D01*
X76638000Y-59647000D02*
X76638000Y-57996000D01*
X74352000Y-63076000D02*
X74352000Y-61425000D01*
X76638000Y-63076000D02*
X74352000Y-63076000D01*
X76638000Y-61425000D02*
X76638000Y-63076000D01*
X74352000Y-57996000D02*
X74352000Y-59647000D01*
X76638000Y-57996000D02*
X74352000Y-57996000D01*
X62414000Y-72855000D02*
X60763000Y-72855000D01*
X65843000Y-75141000D02*
X64192000Y-75141000D01*
X65843000Y-72855000D02*
X65843000Y-75141000D01*
X64192000Y-72855000D02*
X65843000Y-72855000D01*
X60763000Y-75141000D02*
X62414000Y-75141000D01*
X60763000Y-72855000D02*
X60763000Y-75141000D01*
X75431500Y-79268500D02*
X75431500Y-78562380D01*
X76828500Y-79268500D02*
X75431500Y-79268500D01*
X76828500Y-79268500D02*
X76828500Y-78562380D01*
X75431500Y-76855500D02*
X75431500Y-77561620D01*
X76828500Y-76855500D02*
X75431500Y-76855500D01*
X76828500Y-77561620D02*
X76828500Y-76855500D01*
X51174500Y-75458500D02*
X50468380Y-75458500D01*
X51174500Y-74061500D02*
X51174500Y-75458500D01*
X51174500Y-74061500D02*
X50468380Y-74061500D01*
X48761500Y-75458500D02*
X49467620Y-75458500D01*
X48761500Y-74061500D02*
X48761500Y-75458500D01*
X49467620Y-74061500D02*
X48761500Y-74061500D01*
X57905500Y-51328500D02*
X57905500Y-50622380D01*
X59302500Y-51328500D02*
X57905500Y-51328500D01*
X59302500Y-51328500D02*
X59302500Y-50622380D01*
X57905500Y-48915500D02*
X57905500Y-49621620D01*
X59302500Y-48915500D02*
X57905500Y-48915500D01*
X59302500Y-49621620D02*
X59302500Y-48915500D01*
X57905500Y-53868500D02*
X57905500Y-53162380D01*
X59302500Y-53868500D02*
X57905500Y-53868500D01*
X59302500Y-53868500D02*
X59302500Y-53162380D01*
X57905500Y-51455500D02*
X57905500Y-52161620D01*
X59302500Y-51455500D02*
X57905500Y-51455500D01*
X59302500Y-52161620D02*
X59302500Y-51455500D01*
X54603500Y-59202500D02*
X54603500Y-58496380D01*
X56000500Y-59202500D02*
X54603500Y-59202500D01*
X56000500Y-59202500D02*
X56000500Y-58496380D01*
X54603500Y-56789500D02*
X54603500Y-57495620D01*
X56000500Y-56789500D02*
X54603500Y-56789500D01*
X56000500Y-57495620D02*
X56000500Y-56789500D01*
X55111500Y-59329500D02*
X55817620Y-59329500D01*
X55111500Y-60726500D02*
X55111500Y-59329500D01*
X55111500Y-60726500D02*
X55817620Y-60726500D01*
X57524500Y-59329500D02*
X56818380Y-59329500D01*
X57524500Y-60726500D02*
X57524500Y-59329500D01*
X56818380Y-60726500D02*
X57524500Y-60726500D01*
X68065500Y-57297500D02*
X68065500Y-56591380D01*
X69462500Y-57297500D02*
X68065500Y-57297500D01*
X69462500Y-57297500D02*
X69462500Y-56591380D01*
X68065500Y-54884500D02*
X68065500Y-55590620D01*
X69462500Y-54884500D02*
X68065500Y-54884500D01*
X69462500Y-55590620D02*
X69462500Y-54884500D01*
X96386500Y-78506500D02*
X95680380Y-78506500D01*
X96386500Y-77109500D02*
X96386500Y-78506500D01*
X96386500Y-77109500D02*
X95680380Y-77109500D01*
X93973500Y-78506500D02*
X94679620Y-78506500D01*
X93973500Y-77109500D02*
X93973500Y-78506500D01*
X94679620Y-77109500D02*
X93973500Y-77109500D01*
X87877500Y-66695500D02*
X88583620Y-66695500D01*
X87877500Y-68092500D02*
X87877500Y-66695500D01*
X87877500Y-68092500D02*
X88583620Y-68092500D01*
X90290500Y-66695500D02*
X89584380Y-66695500D01*
X90290500Y-68092500D02*
X90290500Y-66695500D01*
X89584380Y-68092500D02*
X90290500Y-68092500D01*
X89020500Y-53741500D02*
X89726620Y-53741500D01*
X89020500Y-55138500D02*
X89020500Y-53741500D01*
X89020500Y-55138500D02*
X89726620Y-55138500D01*
X91433500Y-53741500D02*
X90727380Y-53741500D01*
X91433500Y-55138500D02*
X91433500Y-53741500D01*
X90727380Y-55138500D02*
X91433500Y-55138500D01*
X71113500Y-69108500D02*
X71819620Y-69108500D01*
X71113500Y-70505500D02*
X71113500Y-69108500D01*
X71113500Y-70505500D02*
X71819620Y-70505500D01*
X73526500Y-69108500D02*
X72820380Y-69108500D01*
X73526500Y-70505500D02*
X73526500Y-69108500D01*
X72820380Y-70505500D02*
X73526500Y-70505500D01*
X71113500Y-70632500D02*
X71819620Y-70632500D01*
X71113500Y-72029500D02*
X71113500Y-70632500D01*
X71113500Y-72029500D02*
X71819620Y-72029500D01*
X73526500Y-70632500D02*
X72820380Y-70632500D01*
X73526500Y-72029500D02*
X73526500Y-70632500D01*
X72820380Y-72029500D02*
X73526500Y-72029500D01*
X71113500Y-72156500D02*
X71819620Y-72156500D01*
X71113500Y-73553500D02*
X71113500Y-72156500D01*
X71113500Y-73553500D02*
X71819620Y-73553500D01*
X73526500Y-72156500D02*
X72820380Y-72156500D01*
X73526500Y-73553500D02*
X73526500Y-72156500D01*
X72820380Y-73553500D02*
X73526500Y-73553500D01*
X71113500Y-73680500D02*
X71819620Y-73680500D01*
X71113500Y-75077500D02*
X71113500Y-73680500D01*
X71113500Y-75077500D02*
X71819620Y-75077500D01*
X73526500Y-73680500D02*
X72820380Y-73680500D01*
X73526500Y-75077500D02*
X73526500Y-73680500D01*
X72820380Y-75077500D02*
X73526500Y-75077500D01*
X52148500Y-50193500D02*
X52148500Y-50899620D01*
X50751500Y-50193500D02*
X52148500Y-50193500D01*
X50751500Y-50193500D02*
X50751500Y-50899620D01*
X52148500Y-52606500D02*
X52148500Y-51900380D01*
X50751500Y-52606500D02*
X52148500Y-52606500D01*
X50751500Y-51900380D02*
X50751500Y-52606500D01*
X53698500Y-50193500D02*
X53698500Y-50899620D01*
X52301500Y-50193500D02*
X53698500Y-50193500D01*
X52301500Y-50193500D02*
X52301500Y-50899620D01*
X53698500Y-52606500D02*
X53698500Y-51900380D01*
X52301500Y-52606500D02*
X53698500Y-52606500D01*
X52301500Y-51900380D02*
X52301500Y-52606500D01*
X57198500Y-47793500D02*
X57198500Y-48499620D01*
X55801500Y-47793500D02*
X57198500Y-47793500D01*
X55801500Y-47793500D02*
X55801500Y-48499620D01*
X57198500Y-50206500D02*
X57198500Y-49500380D01*
X55801500Y-50206500D02*
X57198500Y-50206500D01*
X55801500Y-49500380D02*
X55801500Y-50206500D01*
X50617000Y-49895000D02*
X50617000Y-53705000D01*
X45791000Y-52308000D02*
X45283000Y-52308000D01*
X45791000Y-51292000D02*
X45791000Y-52308000D01*
X45283000Y-51292000D02*
X45791000Y-51292000D01*
X45283000Y-49895000D02*
X45283000Y-53578000D01*
X50617000Y-49895000D02*
X45283000Y-49895000D01*
X45283000Y-53705000D02*
X50617000Y-53705000D01*
X45283000Y-53578000D02*
X45283000Y-53705000D01*
D17*
X55200000Y-41450000D02*
X47200000Y-41450000D01*
D14*
X58985000Y-75600740D02*
X74987000Y-75600740D01*
X74486620Y-79601240D02*
X59485380Y-79601240D01*
X58985000Y-80099080D02*
X74987000Y-80099080D01*
X71883120Y-79601240D02*
X71883120Y-79100860D01*
X71883120Y-79100860D02*
X72081240Y-79100860D01*
X72081240Y-79100860D02*
X72081240Y-79601240D01*
X67882620Y-79601240D02*
X67882620Y-79100860D01*
X67882620Y-79100860D02*
X68080740Y-79100860D01*
X68080740Y-79100860D02*
X68080740Y-79601240D01*
X70082260Y-79100860D02*
X70082260Y-79601240D01*
X69884140Y-79100860D02*
X70082260Y-79100860D01*
X69884140Y-79601240D02*
X69884140Y-79100860D01*
X64082780Y-79100860D02*
X64082780Y-79601240D01*
X63884660Y-79100860D02*
X64082780Y-79100860D01*
X63884660Y-79601240D02*
X63884660Y-79100860D01*
X62081260Y-79100860D02*
X62081260Y-79601240D01*
X61883140Y-79100860D02*
X62081260Y-79100860D01*
X61883140Y-79601240D02*
X61883140Y-79100860D01*
X65883640Y-79601240D02*
X65883640Y-79100860D01*
X65883640Y-79100860D02*
X66081760Y-79100860D01*
X66081760Y-79100860D02*
X66081760Y-79601240D01*
X74984460Y-76799620D02*
X74484080Y-76799620D01*
X74484080Y-78100100D02*
X74984460Y-78100100D01*
X59482840Y-78100100D02*
X58982460Y-78100100D01*
X59482840Y-76799620D02*
X58982460Y-76799620D01*
X61481820Y-75600740D02*
X61481820Y-76101120D01*
X61481820Y-76101120D02*
X59482840Y-76101120D01*
X59482840Y-76101120D02*
X59482840Y-79601240D01*
X74484080Y-79601240D02*
X74484080Y-76101120D01*
X74484080Y-76101120D02*
X72485100Y-76101120D01*
X72485100Y-76101120D02*
X72485100Y-75600740D01*
X58982460Y-75600740D02*
X58982460Y-80099080D01*
X74984460Y-75600740D02*
X74984460Y-80099080D01*
X60681720Y-75600740D02*
X60681720Y-75400080D01*
X60681720Y-75400080D02*
X60382000Y-75400080D01*
X60382000Y-75400080D02*
X60382000Y-75600740D01*
D18*
X49248880Y-55365000D02*
X49248880Y-56635000D01*
X46851120Y-56635000D02*
X46851120Y-55365000D01*
X49248880Y-56650240D02*
X48550380Y-56650240D01*
X47549620Y-56650240D02*
X46851120Y-56650240D01*
X48550380Y-55349760D02*
X49248880Y-55349760D01*
X47549620Y-55349760D02*
X46851120Y-55349760D01*
X53706880Y-74125000D02*
X53706880Y-75395000D01*
X51309120Y-75395000D02*
X51309120Y-74125000D01*
X53706880Y-75410240D02*
X53008380Y-75410240D01*
X52007620Y-75410240D02*
X51309120Y-75410240D01*
X53008380Y-74109760D02*
X53706880Y-74109760D01*
X52007620Y-74109760D02*
X51309120Y-74109760D01*
X69653000Y-72291120D02*
X70923000Y-72291120D01*
X70923000Y-74688880D02*
X69653000Y-74688880D01*
X70938240Y-72291120D02*
X70938240Y-72989620D01*
X70938240Y-73990380D02*
X70938240Y-74688880D01*
X69637760Y-72989620D02*
X69637760Y-72291120D01*
X69637760Y-73990380D02*
X69637760Y-74688880D01*
X41205000Y-57178120D02*
X42475000Y-57178120D01*
X42475000Y-59575880D02*
X41205000Y-59575880D01*
X42490240Y-57178120D02*
X42490240Y-57876620D01*
X42490240Y-58877380D02*
X42490240Y-59575880D01*
X41189760Y-57876620D02*
X41189760Y-57178120D01*
X41189760Y-58877380D02*
X41189760Y-59575880D01*
X69653000Y-69497120D02*
X70923000Y-69497120D01*
X70923000Y-71894880D02*
X69653000Y-71894880D01*
X70938240Y-69497120D02*
X70938240Y-70195620D01*
X70938240Y-71196380D02*
X70938240Y-71894880D01*
X69637760Y-70195620D02*
X69637760Y-69497120D01*
X69637760Y-71196380D02*
X69637760Y-71894880D01*
X71558000Y-68338880D02*
X70288000Y-68338880D01*
X70288000Y-65941120D02*
X71558000Y-65941120D01*
X70272760Y-68338880D02*
X70272760Y-67640380D01*
X70272760Y-66639620D02*
X70272760Y-65941120D01*
X71573240Y-67640380D02*
X71573240Y-68338880D01*
X71573240Y-66639620D02*
X71573240Y-65941120D01*
X74225000Y-65925880D02*
X72955000Y-65925880D01*
X72955000Y-63528120D02*
X74225000Y-63528120D01*
X72939760Y-65925880D02*
X72939760Y-65227380D01*
X72939760Y-64226620D02*
X72939760Y-63528120D01*
X74240240Y-65227380D02*
X74240240Y-65925880D01*
X74240240Y-64226620D02*
X74240240Y-63528120D01*
X71431000Y-63639880D02*
X70161000Y-63639880D01*
X70161000Y-61242120D02*
X71431000Y-61242120D01*
X70145760Y-63639880D02*
X70145760Y-62941380D01*
X70145760Y-61940620D02*
X70145760Y-61242120D01*
X71446240Y-62941380D02*
X71446240Y-63639880D01*
X71446240Y-61940620D02*
X71446240Y-61242120D01*
X70161000Y-60591880D02*
X68891000Y-60591880D01*
X68891000Y-58194120D02*
X70161000Y-58194120D01*
X68875760Y-60591880D02*
X68875760Y-59893380D01*
X68875760Y-58892620D02*
X68875760Y-58194120D01*
X70176240Y-59893380D02*
X70176240Y-60591880D01*
X70176240Y-58892620D02*
X70176240Y-58194120D01*
X57715000Y-73799880D02*
X56445000Y-73799880D01*
X56445000Y-71402120D02*
X57715000Y-71402120D01*
X56429760Y-73799880D02*
X56429760Y-73101380D01*
X56429760Y-72100620D02*
X56429760Y-71402120D01*
X57730240Y-73101380D02*
X57730240Y-73799880D01*
X57730240Y-72100620D02*
X57730240Y-71402120D01*
X55683000Y-64290120D02*
X56953000Y-64290120D01*
X56953000Y-66687880D02*
X55683000Y-66687880D01*
X56968240Y-64290120D02*
X56968240Y-64988620D01*
X56968240Y-65989380D02*
X56968240Y-66687880D01*
X55667760Y-64988620D02*
X55667760Y-64290120D01*
X55667760Y-65989380D02*
X55667760Y-66687880D01*
X57262880Y-55329000D02*
X57262880Y-56599000D01*
X54865120Y-56599000D02*
X54865120Y-55329000D01*
X57262880Y-56614240D02*
X56564380Y-56614240D01*
X55563620Y-56614240D02*
X54865120Y-56614240D01*
X56564380Y-55313760D02*
X57262880Y-55313760D01*
X55563620Y-55313760D02*
X54865120Y-55313760D01*
X56191000Y-56797120D02*
X57461000Y-56797120D01*
X57461000Y-59194880D02*
X56191000Y-59194880D01*
X57476240Y-56797120D02*
X57476240Y-57495620D01*
X57476240Y-58496380D02*
X57476240Y-59194880D01*
X56175760Y-57495620D02*
X56175760Y-56797120D01*
X56175760Y-58496380D02*
X56175760Y-59194880D01*
X50547120Y-56726000D02*
X50547120Y-55456000D01*
X52944880Y-55456000D02*
X52944880Y-56726000D01*
X50547120Y-55440760D02*
X51245620Y-55440760D01*
X52246380Y-55440760D02*
X52944880Y-55440760D01*
X51245620Y-56741240D02*
X50547120Y-56741240D01*
X52246380Y-56741240D02*
X52944880Y-56741240D01*
X55119120Y-62187000D02*
X55119120Y-60917000D01*
X57516880Y-60917000D02*
X57516880Y-62187000D01*
X55119120Y-60901760D02*
X55817620Y-60901760D01*
X56818380Y-60901760D02*
X57516880Y-60901760D01*
X55817620Y-62202240D02*
X55119120Y-62202240D01*
X56818380Y-62202240D02*
X57516880Y-62202240D01*
X45115251Y-73726277D02*
X46013277Y-72828251D01*
X47708749Y-74523723D02*
X46810723Y-75421749D01*
X46024053Y-72817475D02*
X46517967Y-73311389D01*
X47225611Y-74019033D02*
X47719525Y-74512947D01*
X45598389Y-74230967D02*
X45104475Y-73737053D01*
X46306033Y-74938611D02*
X46799947Y-75432525D01*
X54087880Y-70696000D02*
X54087880Y-71966000D01*
X51690120Y-71966000D02*
X51690120Y-70696000D01*
X54087880Y-71981240D02*
X53389380Y-71981240D01*
X52388620Y-71981240D02*
X51690120Y-71981240D01*
X53389380Y-70680760D02*
X54087880Y-70680760D01*
X52388620Y-70680760D02*
X51690120Y-70680760D01*
D19*
X34350000Y-61720000D02*
X31500000Y-61720000D01*
X34350000Y-64570000D02*
X34350000Y-61720000D01*
X22890000Y-66580000D02*
X22890000Y-64770000D01*
X24290000Y-66580000D02*
X22890000Y-66580000D01*
X24290000Y-67580000D02*
X24290000Y-66580000D01*
X34110000Y-67580000D02*
X24290000Y-67580000D01*
X34110000Y-64770000D02*
X34110000Y-67580000D01*
X22890000Y-62960000D02*
X22890000Y-64770000D01*
X24290000Y-62960000D02*
X22890000Y-62960000D01*
X24290000Y-61960000D02*
X24290000Y-62960000D01*
X34110000Y-61960000D02*
X24290000Y-61960000D01*
X34110000Y-64770000D02*
X34110000Y-61960000D01*
X24950000Y-69470000D02*
X24950000Y-67580000D01*
X28470000Y-69470000D02*
X28470000Y-67580000D01*
X24950000Y-60070000D02*
X24950000Y-61960000D01*
X28470000Y-60070000D02*
X28470000Y-61960000D01*
X24950000Y-69470000D02*
G75*
G03X28470000Y-69470000I1760000J0D01*
G01*
X28470000Y-60070000D02*
G75*
G03X24950000Y-60070000I-1760000J0D01*
G01*
X28470000Y-44830000D02*
G75*
G03X24950000Y-44830000I-1760000J0D01*
G01*
X24950000Y-54230000D02*
G75*
G03X28470000Y-54230000I1760000J0D01*
G01*
X28470000Y-44830000D02*
X28470000Y-46720000D01*
X24950000Y-44830000D02*
X24950000Y-46720000D01*
X28470000Y-54230000D02*
X28470000Y-52340000D01*
X24950000Y-54230000D02*
X24950000Y-52340000D01*
X34110000Y-49530000D02*
X34110000Y-46720000D01*
X34110000Y-46720000D02*
X24290000Y-46720000D01*
X24290000Y-46720000D02*
X24290000Y-47720000D01*
X24290000Y-47720000D02*
X22890000Y-47720000D01*
X22890000Y-47720000D02*
X22890000Y-49530000D01*
X34110000Y-49530000D02*
X34110000Y-52340000D01*
X34110000Y-52340000D02*
X24290000Y-52340000D01*
X24290000Y-52340000D02*
X24290000Y-51340000D01*
X24290000Y-51340000D02*
X22890000Y-51340000D01*
X22890000Y-51340000D02*
X22890000Y-49530000D01*
X34350000Y-49330000D02*
X34350000Y-46480000D01*
X34350000Y-46480000D02*
X31500000Y-46480000D01*
D11*
D20*
X37104333Y-77800909D02*
X37819058Y-77800909D01*
X37962002Y-77848557D01*
X38057299Y-77943853D01*
X38104947Y-78086798D01*
X38104947Y-78182095D01*
X38104947Y-76800295D02*
X38104947Y-77372074D01*
X38104947Y-77086184D02*
X37104333Y-77086184D01*
X37247278Y-77181481D01*
X37342575Y-77276777D01*
X37390223Y-77372074D01*
D10*
X41561904Y-42752380D02*
X41561904Y-41752380D01*
X41942857Y-41752380D01*
X42038095Y-41800000D01*
X42085714Y-41847619D01*
X42133333Y-41942857D01*
X42133333Y-42085714D01*
X42085714Y-42180952D01*
X42038095Y-42228571D01*
X41942857Y-42276190D01*
X41561904Y-42276190D01*
X43085714Y-42752380D02*
X42514285Y-42752380D01*
X42800000Y-42752380D02*
X42800000Y-41752380D01*
X42704761Y-41895238D01*
X42609523Y-41990476D01*
X42514285Y-42038095D01*
D21*
X67616666Y-42316666D02*
X67616666Y-41616666D01*
X67883333Y-41616666D01*
X67950000Y-41650000D01*
X67983333Y-41683333D01*
X68016666Y-41750000D01*
X68016666Y-41850000D01*
X67983333Y-41916666D01*
X67950000Y-41950000D01*
X67883333Y-41983333D01*
X67616666Y-41983333D01*
X68683333Y-42316666D02*
X68283333Y-42316666D01*
X68483333Y-42316666D02*
X68483333Y-41616666D01*
X68416666Y-41716666D01*
X68350000Y-41783333D01*
X68283333Y-41816666D01*
X69116666Y-41616666D02*
X69183333Y-41616666D01*
X69250000Y-41650000D01*
X69283333Y-41683333D01*
X69316666Y-41750000D01*
X69350000Y-41883333D01*
X69350000Y-42050000D01*
X69316666Y-42183333D01*
X69283333Y-42250000D01*
X69250000Y-42283333D01*
X69183333Y-42316666D01*
X69116666Y-42316666D01*
X69050000Y-42283333D01*
X69016666Y-42250000D01*
X68983333Y-42183333D01*
X68950000Y-42050000D01*
X68950000Y-41883333D01*
X68983333Y-41750000D01*
X69016666Y-41683333D01*
X69050000Y-41650000D01*
X69116666Y-41616666D01*
X70016666Y-42316666D02*
X69616666Y-42316666D01*
X69816666Y-42316666D02*
X69816666Y-41616666D01*
X69750000Y-41716666D01*
X69683333Y-41783333D01*
X69616666Y-41816666D01*
D10*
X43061904Y-79752380D02*
X43061904Y-78752380D01*
X43442857Y-78752380D01*
X43538095Y-78800000D01*
X43585714Y-78847619D01*
X43633333Y-78942857D01*
X43633333Y-79085714D01*
X43585714Y-79180952D01*
X43538095Y-79228571D01*
X43442857Y-79276190D01*
X43061904Y-79276190D01*
X44014285Y-78847619D02*
X44061904Y-78800000D01*
X44157142Y-78752380D01*
X44395238Y-78752380D01*
X44490476Y-78800000D01*
X44538095Y-78847619D01*
X44585714Y-78942857D01*
X44585714Y-79038095D01*
X44538095Y-79180952D01*
X43966666Y-79752380D01*
X44585714Y-79752380D01*
D21*
X41013666Y-70831666D02*
X40313666Y-70831666D01*
X41013666Y-70431666D02*
X40613666Y-70731666D01*
X40313666Y-70431666D02*
X40713666Y-70831666D01*
X41013666Y-69765000D02*
X41013666Y-70165000D01*
X41013666Y-69965000D02*
X40313666Y-69965000D01*
X40413666Y-70031666D01*
X40480333Y-70098333D01*
X40513666Y-70165000D01*
D18*
X76562707Y-53491672D02*
X76586534Y-53515500D01*
X76610362Y-53586983D01*
X76610362Y-53634638D01*
X76586534Y-53706121D01*
X76538879Y-53753776D01*
X76491224Y-53777604D01*
X76395913Y-53801431D01*
X76324430Y-53801431D01*
X76229120Y-53777604D01*
X76181465Y-53753776D01*
X76133810Y-53706121D01*
X76109982Y-53634638D01*
X76109982Y-53586983D01*
X76133810Y-53515500D01*
X76157637Y-53491672D01*
X76109982Y-53324879D02*
X76109982Y-53015120D01*
X76300603Y-53181913D01*
X76300603Y-53110430D01*
X76324430Y-53062775D01*
X76348258Y-53038948D01*
X76395913Y-53015120D01*
X76515051Y-53015120D01*
X76562707Y-53038948D01*
X76586534Y-53062775D01*
X76610362Y-53110430D01*
X76610362Y-53253396D01*
X76586534Y-53301051D01*
X76562707Y-53324879D01*
X76109982Y-52848327D02*
X76109982Y-52514740D01*
X76610362Y-52729189D01*
D22*
X69589428Y-49754000D02*
X69589428Y-50479714D01*
X68065428Y-50479714D01*
X69589428Y-48447714D02*
X69589428Y-49318571D01*
X69589428Y-48883142D02*
X68065428Y-48883142D01*
X68283142Y-49028285D01*
X68428285Y-49173428D01*
X68500857Y-49318571D01*
X95589428Y-44924857D02*
X94065428Y-44924857D01*
X94065428Y-44344285D01*
X94138000Y-44199142D01*
X94210571Y-44126571D01*
X94355714Y-44054000D01*
X94573428Y-44054000D01*
X94718571Y-44126571D01*
X94791142Y-44199142D01*
X94863714Y-44344285D01*
X94863714Y-44924857D01*
X94065428Y-42747714D02*
X94065428Y-43038000D01*
X94138000Y-43183142D01*
X94210571Y-43255714D01*
X94428285Y-43400857D01*
X94718571Y-43473428D01*
X95299142Y-43473428D01*
X95444285Y-43400857D01*
X95516857Y-43328285D01*
X95589428Y-43183142D01*
X95589428Y-42892857D01*
X95516857Y-42747714D01*
X95444285Y-42675142D01*
X95299142Y-42602571D01*
X94936285Y-42602571D01*
X94791142Y-42675142D01*
X94718571Y-42747714D01*
X94646000Y-42892857D01*
X94646000Y-43183142D01*
X94718571Y-43328285D01*
X94791142Y-43400857D01*
X94936285Y-43473428D01*
D11*
X98671428Y-57642857D02*
X98071428Y-57642857D01*
X98071428Y-57414285D01*
X98100000Y-57357142D01*
X98128571Y-57328571D01*
X98185714Y-57300000D01*
X98271428Y-57300000D01*
X98328571Y-57328571D01*
X98357142Y-57357142D01*
X98385714Y-57414285D01*
X98385714Y-57642857D01*
X98071428Y-57100000D02*
X98071428Y-56700000D01*
X98671428Y-56957142D01*
D22*
X98155428Y-77916857D02*
X96631428Y-77916857D01*
X96631428Y-77336285D01*
X96704000Y-77191142D01*
X96776571Y-77118571D01*
X96921714Y-77046000D01*
X97139428Y-77046000D01*
X97284571Y-77118571D01*
X97357142Y-77191142D01*
X97429714Y-77336285D01*
X97429714Y-77916857D01*
X98155428Y-76320285D02*
X98155428Y-76030000D01*
X98082857Y-75884857D01*
X98010285Y-75812285D01*
X97792571Y-75667142D01*
X97502285Y-75594571D01*
X96921714Y-75594571D01*
X96776571Y-75667142D01*
X96704000Y-75739714D01*
X96631428Y-75884857D01*
X96631428Y-76175142D01*
X96704000Y-76320285D01*
X96776571Y-76392857D01*
X96921714Y-76465428D01*
X97284571Y-76465428D01*
X97429714Y-76392857D01*
X97502285Y-76320285D01*
X97574857Y-76175142D01*
X97574857Y-75884857D01*
X97502285Y-75739714D01*
X97429714Y-75667142D01*
X97284571Y-75594571D01*
D23*
X41429669Y-69361895D02*
X42036245Y-69361895D01*
X42107607Y-69326214D01*
X42143288Y-69290533D01*
X42178969Y-69219171D01*
X42178969Y-69076447D01*
X42143288Y-69005085D01*
X42107607Y-68969404D01*
X42036245Y-68933723D01*
X41429669Y-68933723D01*
X42178969Y-68184423D02*
X42178969Y-68612595D01*
X42178969Y-68398509D02*
X41429669Y-68398509D01*
X41536711Y-68469871D01*
X41608073Y-68541233D01*
X41643754Y-68612595D01*
X61495669Y-65424895D02*
X62102245Y-65424895D01*
X62173607Y-65389214D01*
X62209288Y-65353533D01*
X62244969Y-65282171D01*
X62244969Y-65139447D01*
X62209288Y-65068085D01*
X62173607Y-65032404D01*
X62102245Y-64996723D01*
X61495669Y-64996723D01*
X61495669Y-64711276D02*
X61495669Y-64247423D01*
X61781116Y-64497190D01*
X61781116Y-64390147D01*
X61816797Y-64318785D01*
X61852478Y-64283104D01*
X61923840Y-64247423D01*
X62102245Y-64247423D01*
X62173607Y-64283104D01*
X62209288Y-64318785D01*
X62244969Y-64390147D01*
X62244969Y-64604233D01*
X62209288Y-64675595D01*
X62173607Y-64711276D01*
D12*
X71576142Y-60536000D02*
X71612428Y-60572285D01*
X71648714Y-60681142D01*
X71648714Y-60753714D01*
X71612428Y-60862571D01*
X71539857Y-60935142D01*
X71467285Y-60971428D01*
X71322142Y-61007714D01*
X71213285Y-61007714D01*
X71068142Y-60971428D01*
X70995571Y-60935142D01*
X70923000Y-60862571D01*
X70886714Y-60753714D01*
X70886714Y-60681142D01*
X70923000Y-60572285D01*
X70959285Y-60536000D01*
X71648714Y-59810285D02*
X71648714Y-60245714D01*
X71648714Y-60028000D02*
X70886714Y-60028000D01*
X70995571Y-60100571D01*
X71068142Y-60173142D01*
X71104428Y-60245714D01*
X76148142Y-64219000D02*
X76184428Y-64255285D01*
X76220714Y-64364142D01*
X76220714Y-64436714D01*
X76184428Y-64545571D01*
X76111857Y-64618142D01*
X76039285Y-64654428D01*
X75894142Y-64690714D01*
X75785285Y-64690714D01*
X75640142Y-64654428D01*
X75567571Y-64618142D01*
X75495000Y-64545571D01*
X75458714Y-64436714D01*
X75458714Y-64364142D01*
X75495000Y-64255285D01*
X75531285Y-64219000D01*
X75785285Y-63783571D02*
X75749000Y-63856142D01*
X75712714Y-63892428D01*
X75640142Y-63928714D01*
X75603857Y-63928714D01*
X75531285Y-63892428D01*
X75495000Y-63856142D01*
X75458714Y-63783571D01*
X75458714Y-63638428D01*
X75495000Y-63565857D01*
X75531285Y-63529571D01*
X75603857Y-63493285D01*
X75640142Y-63493285D01*
X75712714Y-63529571D01*
X75749000Y-63565857D01*
X75785285Y-63638428D01*
X75785285Y-63783571D01*
X75821571Y-63856142D01*
X75857857Y-63892428D01*
X75930428Y-63928714D01*
X76075571Y-63928714D01*
X76148142Y-63892428D01*
X76184428Y-63856142D01*
X76220714Y-63783571D01*
X76220714Y-63638428D01*
X76184428Y-63565857D01*
X76148142Y-63529571D01*
X76075571Y-63493285D01*
X75930428Y-63493285D01*
X75857857Y-63529571D01*
X75821571Y-63565857D01*
X75785285Y-63638428D01*
X59003142Y-75159142D02*
X58966857Y-75195428D01*
X58858000Y-75231714D01*
X58785428Y-75231714D01*
X58676571Y-75195428D01*
X58604000Y-75122857D01*
X58567714Y-75050285D01*
X58531428Y-74905142D01*
X58531428Y-74796285D01*
X58567714Y-74651142D01*
X58604000Y-74578571D01*
X58676571Y-74506000D01*
X58785428Y-74469714D01*
X58858000Y-74469714D01*
X58966857Y-74506000D01*
X59003142Y-74542285D01*
X59257142Y-74469714D02*
X59728857Y-74469714D01*
X59474857Y-74760000D01*
X59583714Y-74760000D01*
X59656285Y-74796285D01*
X59692571Y-74832571D01*
X59728857Y-74905142D01*
X59728857Y-75086571D01*
X59692571Y-75159142D01*
X59656285Y-75195428D01*
X59583714Y-75231714D01*
X59366000Y-75231714D01*
X59293428Y-75195428D01*
X59257142Y-75159142D01*
X60091714Y-75231714D02*
X60236857Y-75231714D01*
X60309428Y-75195428D01*
X60345714Y-75159142D01*
X60418285Y-75050285D01*
X60454571Y-74905142D01*
X60454571Y-74614857D01*
X60418285Y-74542285D01*
X60382000Y-74506000D01*
X60309428Y-74469714D01*
X60164285Y-74469714D01*
X60091714Y-74506000D01*
X60055428Y-74542285D01*
X60019142Y-74614857D01*
X60019142Y-74796285D01*
X60055428Y-74868857D01*
X60091714Y-74905142D01*
X60164285Y-74941428D01*
X60309428Y-74941428D01*
X60382000Y-74905142D01*
X60418285Y-74868857D01*
X60454571Y-74796285D01*
D24*
X76180800Y-76510362D02*
X76028400Y-76272086D01*
X75919542Y-76510362D02*
X75919542Y-76009982D01*
X76093714Y-76009982D01*
X76137257Y-76033810D01*
X76159028Y-76057637D01*
X76180800Y-76105292D01*
X76180800Y-76176775D01*
X76159028Y-76224430D01*
X76137257Y-76248258D01*
X76093714Y-76272086D01*
X75919542Y-76272086D01*
X76616228Y-76510362D02*
X76354971Y-76510362D01*
X76485600Y-76510362D02*
X76485600Y-76009982D01*
X76442057Y-76081465D01*
X76398514Y-76129120D01*
X76354971Y-76152948D01*
X48416362Y-74836200D02*
X48178086Y-74988600D01*
X48416362Y-75097457D02*
X47915982Y-75097457D01*
X47915982Y-74923285D01*
X47939810Y-74879742D01*
X47963637Y-74857971D01*
X48011292Y-74836200D01*
X48082775Y-74836200D01*
X48130430Y-74857971D01*
X48154258Y-74879742D01*
X48178086Y-74923285D01*
X48178086Y-75097457D01*
X47963637Y-74662028D02*
X47939810Y-74640257D01*
X47915982Y-74596714D01*
X47915982Y-74487857D01*
X47939810Y-74444314D01*
X47963637Y-74422542D01*
X48011292Y-74400771D01*
X48058948Y-74400771D01*
X48130430Y-74422542D01*
X48416362Y-74683800D01*
X48416362Y-74400771D01*
X58286085Y-51983362D02*
X58133685Y-51745086D01*
X58024828Y-51983362D02*
X58024828Y-51482982D01*
X58199000Y-51482982D01*
X58242542Y-51506810D01*
X58264314Y-51530637D01*
X58286085Y-51578292D01*
X58286085Y-51649775D01*
X58264314Y-51697430D01*
X58242542Y-51721258D01*
X58199000Y-51745086D01*
X58024828Y-51745086D01*
X58721514Y-51983362D02*
X58460257Y-51983362D01*
X58590885Y-51983362D02*
X58590885Y-51482982D01*
X58547342Y-51554465D01*
X58503800Y-51602120D01*
X58460257Y-51625948D01*
X58873914Y-51482982D02*
X59178714Y-51482982D01*
X58982771Y-51983362D01*
X58286085Y-54523362D02*
X58133685Y-54285086D01*
X58024828Y-54523362D02*
X58024828Y-54022982D01*
X58199000Y-54022982D01*
X58242542Y-54046810D01*
X58264314Y-54070637D01*
X58286085Y-54118292D01*
X58286085Y-54189775D01*
X58264314Y-54237430D01*
X58242542Y-54261258D01*
X58199000Y-54285086D01*
X58024828Y-54285086D01*
X58721514Y-54523362D02*
X58460257Y-54523362D01*
X58590885Y-54523362D02*
X58590885Y-54022982D01*
X58547342Y-54094465D01*
X58503800Y-54142120D01*
X58460257Y-54165948D01*
X58982771Y-54237430D02*
X58939228Y-54213603D01*
X58917457Y-54189775D01*
X58895685Y-54142120D01*
X58895685Y-54118292D01*
X58917457Y-54070637D01*
X58939228Y-54046810D01*
X58982771Y-54022982D01*
X59069857Y-54022982D01*
X59113400Y-54046810D01*
X59135171Y-54070637D01*
X59156942Y-54118292D01*
X59156942Y-54142120D01*
X59135171Y-54189775D01*
X59113400Y-54213603D01*
X59069857Y-54237430D01*
X58982771Y-54237430D01*
X58939228Y-54261258D01*
X58917457Y-54285086D01*
X58895685Y-54332741D01*
X58895685Y-54428051D01*
X58917457Y-54475707D01*
X58939228Y-54499534D01*
X58982771Y-54523362D01*
X59069857Y-54523362D01*
X59113400Y-54499534D01*
X59135171Y-54475707D01*
X59156942Y-54428051D01*
X59156942Y-54332741D01*
X59135171Y-54285086D01*
X59113400Y-54261258D01*
X59069857Y-54237430D01*
X54258362Y-57908914D02*
X54020086Y-58061314D01*
X54258362Y-58170171D02*
X53757982Y-58170171D01*
X53757982Y-57996000D01*
X53781810Y-57952457D01*
X53805637Y-57930685D01*
X53853292Y-57908914D01*
X53924775Y-57908914D01*
X53972430Y-57930685D01*
X53996258Y-57952457D01*
X54020086Y-57996000D01*
X54020086Y-58170171D01*
X54258362Y-57473485D02*
X54258362Y-57734742D01*
X54258362Y-57604114D02*
X53757982Y-57604114D01*
X53829465Y-57647657D01*
X53877120Y-57691200D01*
X53900948Y-57734742D01*
X54258362Y-57255771D02*
X54258362Y-57168685D01*
X54234534Y-57125142D01*
X54210707Y-57103371D01*
X54139224Y-57059828D01*
X54043913Y-57038057D01*
X53853292Y-57038057D01*
X53805637Y-57059828D01*
X53781810Y-57081600D01*
X53757982Y-57125142D01*
X53757982Y-57212228D01*
X53781810Y-57255771D01*
X53805637Y-57277542D01*
X53853292Y-57299314D01*
X53972430Y-57299314D01*
X54020086Y-57277542D01*
X54043913Y-57255771D01*
X54067741Y-57212228D01*
X54067741Y-57125142D01*
X54043913Y-57081600D01*
X54020086Y-57059828D01*
X53972430Y-57038057D01*
X58195362Y-60194914D02*
X57957086Y-60347314D01*
X58195362Y-60456171D02*
X57694982Y-60456171D01*
X57694982Y-60282000D01*
X57718810Y-60238457D01*
X57742637Y-60216685D01*
X57790292Y-60194914D01*
X57861775Y-60194914D01*
X57909430Y-60216685D01*
X57933258Y-60238457D01*
X57957086Y-60282000D01*
X57957086Y-60456171D01*
X57742637Y-60020742D02*
X57718810Y-59998971D01*
X57694982Y-59955428D01*
X57694982Y-59846571D01*
X57718810Y-59803028D01*
X57742637Y-59781257D01*
X57790292Y-59759485D01*
X57837948Y-59759485D01*
X57909430Y-59781257D01*
X58195362Y-60042514D01*
X58195362Y-59759485D01*
X57694982Y-59476457D02*
X57694982Y-59432914D01*
X57718810Y-59389371D01*
X57742637Y-59367600D01*
X57790292Y-59345828D01*
X57885603Y-59324057D01*
X58004741Y-59324057D01*
X58100051Y-59345828D01*
X58147707Y-59367600D01*
X58171534Y-59389371D01*
X58195362Y-59432914D01*
X58195362Y-59476457D01*
X58171534Y-59520000D01*
X58147707Y-59541771D01*
X58100051Y-59563542D01*
X58004741Y-59585314D01*
X57885603Y-59585314D01*
X57790292Y-59563542D01*
X57742637Y-59541771D01*
X57718810Y-59520000D01*
X57694982Y-59476457D01*
X67720362Y-57400914D02*
X67482086Y-57553314D01*
X67720362Y-57662171D02*
X67219982Y-57662171D01*
X67219982Y-57488000D01*
X67243810Y-57444457D01*
X67267637Y-57422685D01*
X67315292Y-57400914D01*
X67386775Y-57400914D01*
X67434430Y-57422685D01*
X67458258Y-57444457D01*
X67482086Y-57488000D01*
X67482086Y-57662171D01*
X67267637Y-57226742D02*
X67243810Y-57204971D01*
X67219982Y-57161428D01*
X67219982Y-57052571D01*
X67243810Y-57009028D01*
X67267637Y-56987257D01*
X67315292Y-56965485D01*
X67362948Y-56965485D01*
X67434430Y-56987257D01*
X67720362Y-57248514D01*
X67720362Y-56965485D01*
X67219982Y-56551828D02*
X67219982Y-56769542D01*
X67458258Y-56791314D01*
X67434430Y-56769542D01*
X67410603Y-56726000D01*
X67410603Y-56617142D01*
X67434430Y-56573600D01*
X67458258Y-56551828D01*
X67505913Y-56530057D01*
X67625051Y-56530057D01*
X67672707Y-56551828D01*
X67696534Y-56573600D01*
X67720362Y-56617142D01*
X67720362Y-56726000D01*
X67696534Y-56769542D01*
X67672707Y-56791314D01*
X95013085Y-79304362D02*
X94860685Y-79066086D01*
X94751828Y-79304362D02*
X94751828Y-78803982D01*
X94926000Y-78803982D01*
X94969542Y-78827810D01*
X94991314Y-78851637D01*
X95013085Y-78899292D01*
X95013085Y-78970775D01*
X94991314Y-79018430D01*
X94969542Y-79042258D01*
X94926000Y-79066086D01*
X94751828Y-79066086D01*
X95187257Y-78851637D02*
X95209028Y-78827810D01*
X95252571Y-78803982D01*
X95361428Y-78803982D01*
X95404971Y-78827810D01*
X95426742Y-78851637D01*
X95448514Y-78899292D01*
X95448514Y-78946948D01*
X95426742Y-79018430D01*
X95165485Y-79304362D01*
X95448514Y-79304362D01*
X95709771Y-79018430D02*
X95666228Y-78994603D01*
X95644457Y-78970775D01*
X95622685Y-78923120D01*
X95622685Y-78899292D01*
X95644457Y-78851637D01*
X95666228Y-78827810D01*
X95709771Y-78803982D01*
X95796857Y-78803982D01*
X95840400Y-78827810D01*
X95862171Y-78851637D01*
X95883942Y-78899292D01*
X95883942Y-78923120D01*
X95862171Y-78970775D01*
X95840400Y-78994603D01*
X95796857Y-79018430D01*
X95709771Y-79018430D01*
X95666228Y-79042258D01*
X95644457Y-79066086D01*
X95622685Y-79113741D01*
X95622685Y-79209051D01*
X95644457Y-79256707D01*
X95666228Y-79280534D01*
X95709771Y-79304362D01*
X95796857Y-79304362D01*
X95840400Y-79280534D01*
X95862171Y-79256707D01*
X95883942Y-79209051D01*
X95883942Y-79113741D01*
X95862171Y-79066086D01*
X95840400Y-79042258D01*
X95796857Y-79018430D01*
X91088362Y-67687914D02*
X90850086Y-67840314D01*
X91088362Y-67949171D02*
X90587982Y-67949171D01*
X90587982Y-67775000D01*
X90611810Y-67731457D01*
X90635637Y-67709685D01*
X90683292Y-67687914D01*
X90754775Y-67687914D01*
X90802430Y-67709685D01*
X90826258Y-67731457D01*
X90850086Y-67775000D01*
X90850086Y-67949171D01*
X90587982Y-67535514D02*
X90587982Y-67252485D01*
X90778603Y-67404885D01*
X90778603Y-67339571D01*
X90802430Y-67296028D01*
X90826258Y-67274257D01*
X90873913Y-67252485D01*
X90993051Y-67252485D01*
X91040707Y-67274257D01*
X91064534Y-67296028D01*
X91088362Y-67339571D01*
X91088362Y-67470200D01*
X91064534Y-67513742D01*
X91040707Y-67535514D01*
X90754775Y-66860600D02*
X91088362Y-66860600D01*
X90564154Y-66969457D02*
X90921569Y-67078314D01*
X90921569Y-66795285D01*
X92358362Y-53590914D02*
X92120086Y-53743314D01*
X92358362Y-53852171D02*
X91857982Y-53852171D01*
X91857982Y-53678000D01*
X91881810Y-53634457D01*
X91905637Y-53612685D01*
X91953292Y-53590914D01*
X92024775Y-53590914D01*
X92072430Y-53612685D01*
X92096258Y-53634457D01*
X92120086Y-53678000D01*
X92120086Y-53852171D01*
X92024775Y-53199028D02*
X92358362Y-53199028D01*
X91834154Y-53307885D02*
X92191569Y-53416742D01*
X92191569Y-53133714D01*
X91905637Y-52981314D02*
X91881810Y-52959542D01*
X91857982Y-52916000D01*
X91857982Y-52807142D01*
X91881810Y-52763600D01*
X91905637Y-52741828D01*
X91953292Y-52720057D01*
X92000948Y-52720057D01*
X92072430Y-52741828D01*
X92358362Y-53003085D01*
X92358362Y-52720057D01*
X74197362Y-70100914D02*
X73959086Y-70253314D01*
X74197362Y-70362171D02*
X73696982Y-70362171D01*
X73696982Y-70188000D01*
X73720810Y-70144457D01*
X73744637Y-70122685D01*
X73792292Y-70100914D01*
X73863775Y-70100914D01*
X73911430Y-70122685D01*
X73935258Y-70144457D01*
X73959086Y-70188000D01*
X73959086Y-70362171D01*
X73863775Y-69709028D02*
X74197362Y-69709028D01*
X73673154Y-69817885D02*
X74030569Y-69926742D01*
X74030569Y-69643714D01*
X73911430Y-69404228D02*
X73887603Y-69447771D01*
X73863775Y-69469542D01*
X73816120Y-69491314D01*
X73792292Y-69491314D01*
X73744637Y-69469542D01*
X73720810Y-69447771D01*
X73696982Y-69404228D01*
X73696982Y-69317142D01*
X73720810Y-69273600D01*
X73744637Y-69251828D01*
X73792292Y-69230057D01*
X73816120Y-69230057D01*
X73863775Y-69251828D01*
X73887603Y-69273600D01*
X73911430Y-69317142D01*
X73911430Y-69404228D01*
X73935258Y-69447771D01*
X73959086Y-69469542D01*
X74006741Y-69491314D01*
X74102051Y-69491314D01*
X74149707Y-69469542D01*
X74173534Y-69447771D01*
X74197362Y-69404228D01*
X74197362Y-69317142D01*
X74173534Y-69273600D01*
X74149707Y-69251828D01*
X74102051Y-69230057D01*
X74006741Y-69230057D01*
X73959086Y-69251828D01*
X73935258Y-69273600D01*
X73911430Y-69317142D01*
X75213362Y-71624914D02*
X74975086Y-71777314D01*
X75213362Y-71886171D02*
X74712982Y-71886171D01*
X74712982Y-71712000D01*
X74736810Y-71668457D01*
X74760637Y-71646685D01*
X74808292Y-71624914D01*
X74879775Y-71624914D01*
X74927430Y-71646685D01*
X74951258Y-71668457D01*
X74975086Y-71712000D01*
X74975086Y-71886171D01*
X74879775Y-71233028D02*
X75213362Y-71233028D01*
X74689154Y-71341885D02*
X75046569Y-71450742D01*
X75046569Y-71167714D01*
X75213362Y-70971771D02*
X75213362Y-70884685D01*
X75189534Y-70841142D01*
X75165707Y-70819371D01*
X75094224Y-70775828D01*
X74998913Y-70754057D01*
X74808292Y-70754057D01*
X74760637Y-70775828D01*
X74736810Y-70797600D01*
X74712982Y-70841142D01*
X74712982Y-70928228D01*
X74736810Y-70971771D01*
X74760637Y-70993542D01*
X74808292Y-71015314D01*
X74927430Y-71015314D01*
X74975086Y-70993542D01*
X74998913Y-70971771D01*
X75022741Y-70928228D01*
X75022741Y-70841142D01*
X74998913Y-70797600D01*
X74975086Y-70775828D01*
X74927430Y-70754057D01*
X74197362Y-73275914D02*
X73959086Y-73428314D01*
X74197362Y-73537171D02*
X73696982Y-73537171D01*
X73696982Y-73363000D01*
X73720810Y-73319457D01*
X73744637Y-73297685D01*
X73792292Y-73275914D01*
X73863775Y-73275914D01*
X73911430Y-73297685D01*
X73935258Y-73319457D01*
X73959086Y-73363000D01*
X73959086Y-73537171D01*
X73696982Y-72862257D02*
X73696982Y-73079971D01*
X73935258Y-73101742D01*
X73911430Y-73079971D01*
X73887603Y-73036428D01*
X73887603Y-72927571D01*
X73911430Y-72884028D01*
X73935258Y-72862257D01*
X73982913Y-72840485D01*
X74102051Y-72840485D01*
X74149707Y-72862257D01*
X74173534Y-72884028D01*
X74197362Y-72927571D01*
X74197362Y-73036428D01*
X74173534Y-73079971D01*
X74149707Y-73101742D01*
X73696982Y-72557457D02*
X73696982Y-72513914D01*
X73720810Y-72470371D01*
X73744637Y-72448600D01*
X73792292Y-72426828D01*
X73887603Y-72405057D01*
X74006741Y-72405057D01*
X74102051Y-72426828D01*
X74149707Y-72448600D01*
X74173534Y-72470371D01*
X74197362Y-72513914D01*
X74197362Y-72557457D01*
X74173534Y-72601000D01*
X74149707Y-72622771D01*
X74102051Y-72644542D01*
X74006741Y-72666314D01*
X73887603Y-72666314D01*
X73792292Y-72644542D01*
X73744637Y-72622771D01*
X73720810Y-72601000D01*
X73696982Y-72557457D01*
X75213362Y-74672914D02*
X74975086Y-74825314D01*
X75213362Y-74934171D02*
X74712982Y-74934171D01*
X74712982Y-74760000D01*
X74736810Y-74716457D01*
X74760637Y-74694685D01*
X74808292Y-74672914D01*
X74879775Y-74672914D01*
X74927430Y-74694685D01*
X74951258Y-74716457D01*
X74975086Y-74760000D01*
X74975086Y-74934171D01*
X74712982Y-74259257D02*
X74712982Y-74476971D01*
X74951258Y-74498742D01*
X74927430Y-74476971D01*
X74903603Y-74433428D01*
X74903603Y-74324571D01*
X74927430Y-74281028D01*
X74951258Y-74259257D01*
X74998913Y-74237485D01*
X75118051Y-74237485D01*
X75165707Y-74259257D01*
X75189534Y-74281028D01*
X75213362Y-74324571D01*
X75213362Y-74433428D01*
X75189534Y-74476971D01*
X75165707Y-74498742D01*
X75213362Y-73802057D02*
X75213362Y-74063314D01*
X75213362Y-73932685D02*
X74712982Y-73932685D01*
X74784465Y-73976228D01*
X74832120Y-74019771D01*
X74855948Y-74063314D01*
X51718362Y-49617628D02*
X51480086Y-49770028D01*
X51718362Y-49878885D02*
X51217982Y-49878885D01*
X51217982Y-49704714D01*
X51241810Y-49661171D01*
X51265637Y-49639400D01*
X51313292Y-49617628D01*
X51384775Y-49617628D01*
X51432430Y-49639400D01*
X51456258Y-49661171D01*
X51480086Y-49704714D01*
X51480086Y-49878885D01*
X51718362Y-49182200D02*
X51718362Y-49443457D01*
X51718362Y-49312828D02*
X51217982Y-49312828D01*
X51289465Y-49356371D01*
X51337120Y-49399914D01*
X51360948Y-49443457D01*
X51217982Y-48899171D02*
X51217982Y-48855628D01*
X51241810Y-48812085D01*
X51265637Y-48790314D01*
X51313292Y-48768542D01*
X51408603Y-48746771D01*
X51527741Y-48746771D01*
X51623051Y-48768542D01*
X51670707Y-48790314D01*
X51694534Y-48812085D01*
X51718362Y-48855628D01*
X51718362Y-48899171D01*
X51694534Y-48942714D01*
X51670707Y-48964485D01*
X51623051Y-48986257D01*
X51527741Y-49008028D01*
X51408603Y-49008028D01*
X51313292Y-48986257D01*
X51265637Y-48964485D01*
X51241810Y-48942714D01*
X51217982Y-48899171D01*
X51217982Y-48594371D02*
X51217982Y-48311342D01*
X51408603Y-48463742D01*
X51408603Y-48398428D01*
X51432430Y-48354885D01*
X51456258Y-48333114D01*
X51503913Y-48311342D01*
X51623051Y-48311342D01*
X51670707Y-48333114D01*
X51694534Y-48354885D01*
X51718362Y-48398428D01*
X51718362Y-48529057D01*
X51694534Y-48572600D01*
X51670707Y-48594371D01*
X54512362Y-51903628D02*
X54274086Y-52056028D01*
X54512362Y-52164885D02*
X54011982Y-52164885D01*
X54011982Y-51990714D01*
X54035810Y-51947171D01*
X54059637Y-51925400D01*
X54107292Y-51903628D01*
X54178775Y-51903628D01*
X54226430Y-51925400D01*
X54250258Y-51947171D01*
X54274086Y-51990714D01*
X54274086Y-52164885D01*
X54512362Y-51468200D02*
X54512362Y-51729457D01*
X54512362Y-51598828D02*
X54011982Y-51598828D01*
X54083465Y-51642371D01*
X54131120Y-51685914D01*
X54154948Y-51729457D01*
X54011982Y-51185171D02*
X54011982Y-51141628D01*
X54035810Y-51098085D01*
X54059637Y-51076314D01*
X54107292Y-51054542D01*
X54202603Y-51032771D01*
X54321741Y-51032771D01*
X54417051Y-51054542D01*
X54464707Y-51076314D01*
X54488534Y-51098085D01*
X54512362Y-51141628D01*
X54512362Y-51185171D01*
X54488534Y-51228714D01*
X54464707Y-51250485D01*
X54417051Y-51272257D01*
X54321741Y-51294028D01*
X54202603Y-51294028D01*
X54107292Y-51272257D01*
X54059637Y-51250485D01*
X54035810Y-51228714D01*
X54011982Y-51185171D01*
X54178775Y-50640885D02*
X54512362Y-50640885D01*
X53988154Y-50749742D02*
X54345569Y-50858600D01*
X54345569Y-50575571D01*
X56187371Y-50983362D02*
X56034971Y-50745086D01*
X55926114Y-50983362D02*
X55926114Y-50482982D01*
X56100285Y-50482982D01*
X56143828Y-50506810D01*
X56165600Y-50530637D01*
X56187371Y-50578292D01*
X56187371Y-50649775D01*
X56165600Y-50697430D01*
X56143828Y-50721258D01*
X56100285Y-50745086D01*
X55926114Y-50745086D01*
X56579257Y-50649775D02*
X56579257Y-50983362D01*
X56470400Y-50459154D02*
X56361542Y-50816569D01*
X56644571Y-50816569D01*
X56905828Y-50482982D02*
X56949371Y-50482982D01*
X56992914Y-50506810D01*
X57014685Y-50530637D01*
X57036457Y-50578292D01*
X57058228Y-50673603D01*
X57058228Y-50792741D01*
X57036457Y-50888051D01*
X57014685Y-50935707D01*
X56992914Y-50959534D01*
X56949371Y-50983362D01*
X56905828Y-50983362D01*
X56862285Y-50959534D01*
X56840514Y-50935707D01*
X56818742Y-50888051D01*
X56796971Y-50792741D01*
X56796971Y-50673603D01*
X56818742Y-50578292D01*
X56840514Y-50530637D01*
X56862285Y-50506810D01*
X56905828Y-50482982D01*
X57493657Y-50983362D02*
X57232400Y-50983362D01*
X57363028Y-50983362D02*
X57363028Y-50482982D01*
X57319485Y-50554465D01*
X57275942Y-50602120D01*
X57232400Y-50625948D01*
D15*
X44816666Y-49800000D02*
X45383333Y-49800000D01*
X45450000Y-49766666D01*
X45483333Y-49733333D01*
X45516666Y-49666666D01*
X45516666Y-49533333D01*
X45483333Y-49466666D01*
X45450000Y-49433333D01*
X45383333Y-49400000D01*
X44816666Y-49400000D01*
X45050000Y-48766666D02*
X45516666Y-48766666D01*
X44783333Y-48933333D02*
X45283333Y-49100000D01*
X45283333Y-48666666D01*
X44816666Y-48266666D02*
X44816666Y-48200000D01*
X44850000Y-48133333D01*
X44883333Y-48100000D01*
X44950000Y-48066666D01*
X45083333Y-48033333D01*
X45250000Y-48033333D01*
X45383333Y-48066666D01*
X45450000Y-48100000D01*
X45483333Y-48133333D01*
X45516666Y-48200000D01*
X45516666Y-48266666D01*
X45483333Y-48333333D01*
X45450000Y-48366666D01*
X45383333Y-48400000D01*
X45250000Y-48433333D01*
X45083333Y-48433333D01*
X44950000Y-48400000D01*
X44883333Y-48366666D01*
X44850000Y-48333333D01*
X44816666Y-48266666D01*
X45516666Y-47366666D02*
X45516666Y-47766666D01*
X45516666Y-47566666D02*
X44816666Y-47566666D01*
X44916666Y-47633333D01*
X44983333Y-47700000D01*
X45016666Y-47766666D01*
D21*
X44916666Y-42966666D02*
X45616666Y-42500000D01*
X44916666Y-42500000D02*
X45616666Y-42966666D01*
X45616666Y-41866666D02*
X45616666Y-42266666D01*
X45616666Y-42066666D02*
X44916666Y-42066666D01*
X45016666Y-42133333D01*
X45083333Y-42200000D01*
X45116666Y-42266666D01*
D22*
X66242142Y-75195428D02*
X66242142Y-73671428D01*
X66822714Y-73671428D01*
X66967857Y-73744000D01*
X67040428Y-73816571D01*
X67113000Y-73961714D01*
X67113000Y-74179428D01*
X67040428Y-74324571D01*
X66967857Y-74397142D01*
X66822714Y-74469714D01*
X66242142Y-74469714D01*
X67621000Y-73671428D02*
X68564428Y-73671428D01*
X68056428Y-74252000D01*
X68274142Y-74252000D01*
X68419285Y-74324571D01*
X68491857Y-74397142D01*
X68564428Y-74542285D01*
X68564428Y-74905142D01*
X68491857Y-75050285D01*
X68419285Y-75122857D01*
X68274142Y-75195428D01*
X67838714Y-75195428D01*
X67693571Y-75122857D01*
X67621000Y-75050285D01*
D24*
X45388371Y-55981428D02*
X45366600Y-56005619D01*
X45301285Y-56029809D01*
X45257742Y-56029809D01*
X45192428Y-56005619D01*
X45148885Y-55957238D01*
X45127114Y-55908857D01*
X45105342Y-55812095D01*
X45105342Y-55739523D01*
X45127114Y-55642761D01*
X45148885Y-55594380D01*
X45192428Y-55546000D01*
X45257742Y-55521809D01*
X45301285Y-55521809D01*
X45366600Y-55546000D01*
X45388371Y-55570190D01*
X45780257Y-55691142D02*
X45780257Y-56029809D01*
X45671400Y-55497619D02*
X45562542Y-55860476D01*
X45845571Y-55860476D01*
X46106828Y-55521809D02*
X46150371Y-55521809D01*
X46193914Y-55546000D01*
X46215685Y-55570190D01*
X46237457Y-55618571D01*
X46259228Y-55715333D01*
X46259228Y-55836285D01*
X46237457Y-55933047D01*
X46215685Y-55981428D01*
X46193914Y-56005619D01*
X46150371Y-56029809D01*
X46106828Y-56029809D01*
X46063285Y-56005619D01*
X46041514Y-55981428D01*
X46019742Y-55933047D01*
X45997971Y-55836285D01*
X45997971Y-55715333D01*
X46019742Y-55618571D01*
X46041514Y-55570190D01*
X46063285Y-55546000D01*
X46106828Y-55521809D01*
X46694657Y-56029809D02*
X46433400Y-56029809D01*
X46564028Y-56029809D02*
X46564028Y-55521809D01*
X46520485Y-55594380D01*
X46476942Y-55642761D01*
X46433400Y-55666952D01*
X52214085Y-76084428D02*
X52192314Y-76108619D01*
X52127000Y-76132809D01*
X52083457Y-76132809D01*
X52018142Y-76108619D01*
X51974600Y-76060238D01*
X51952828Y-76011857D01*
X51931057Y-75915095D01*
X51931057Y-75842523D01*
X51952828Y-75745761D01*
X51974600Y-75697380D01*
X52018142Y-75649000D01*
X52083457Y-75624809D01*
X52127000Y-75624809D01*
X52192314Y-75649000D01*
X52214085Y-75673190D01*
X52605971Y-75794142D02*
X52605971Y-76132809D01*
X52497114Y-75600619D02*
X52388257Y-75963476D01*
X52671285Y-75963476D01*
X53084942Y-76132809D02*
X52823685Y-76132809D01*
X52954314Y-76132809D02*
X52954314Y-75624809D01*
X52910771Y-75697380D01*
X52867228Y-75745761D01*
X52823685Y-75769952D01*
X69281428Y-73793914D02*
X69305619Y-73815685D01*
X69329809Y-73881000D01*
X69329809Y-73924542D01*
X69305619Y-73989857D01*
X69257238Y-74033400D01*
X69208857Y-74055171D01*
X69112095Y-74076942D01*
X69039523Y-74076942D01*
X68942761Y-74055171D01*
X68894380Y-74033400D01*
X68846000Y-73989857D01*
X68821809Y-73924542D01*
X68821809Y-73881000D01*
X68846000Y-73815685D01*
X68870190Y-73793914D01*
X68821809Y-73641514D02*
X68821809Y-73358485D01*
X69015333Y-73510885D01*
X69015333Y-73445571D01*
X69039523Y-73402028D01*
X69063714Y-73380257D01*
X69112095Y-73358485D01*
X69233047Y-73358485D01*
X69281428Y-73380257D01*
X69305619Y-73402028D01*
X69329809Y-73445571D01*
X69329809Y-73576200D01*
X69305619Y-73619742D01*
X69281428Y-73641514D01*
X68821809Y-72966600D02*
X68821809Y-73053685D01*
X68846000Y-73097228D01*
X68870190Y-73119000D01*
X68942761Y-73162542D01*
X69039523Y-73184314D01*
X69233047Y-73184314D01*
X69281428Y-73162542D01*
X69305619Y-73140771D01*
X69329809Y-73097228D01*
X69329809Y-73010142D01*
X69305619Y-72966600D01*
X69281428Y-72944828D01*
X69233047Y-72923057D01*
X69112095Y-72923057D01*
X69063714Y-72944828D01*
X69039523Y-72966600D01*
X69015333Y-73010142D01*
X69015333Y-73097228D01*
X69039523Y-73140771D01*
X69063714Y-73162542D01*
X69112095Y-73184314D01*
X40781428Y-58693914D02*
X40805619Y-58715685D01*
X40829809Y-58781000D01*
X40829809Y-58824542D01*
X40805619Y-58889857D01*
X40757238Y-58933400D01*
X40708857Y-58955171D01*
X40612095Y-58976942D01*
X40539523Y-58976942D01*
X40442761Y-58955171D01*
X40394380Y-58933400D01*
X40346000Y-58889857D01*
X40321809Y-58824542D01*
X40321809Y-58781000D01*
X40346000Y-58715685D01*
X40370190Y-58693914D01*
X40321809Y-58541514D02*
X40321809Y-58258485D01*
X40515333Y-58410885D01*
X40515333Y-58345571D01*
X40539523Y-58302028D01*
X40563714Y-58280257D01*
X40612095Y-58258485D01*
X40733047Y-58258485D01*
X40781428Y-58280257D01*
X40805619Y-58302028D01*
X40829809Y-58345571D01*
X40829809Y-58476200D01*
X40805619Y-58519742D01*
X40781428Y-58541514D01*
X40321809Y-57844828D02*
X40321809Y-58062542D01*
X40563714Y-58084314D01*
X40539523Y-58062542D01*
X40515333Y-58019000D01*
X40515333Y-57910142D01*
X40539523Y-57866600D01*
X40563714Y-57844828D01*
X40612095Y-57823057D01*
X40733047Y-57823057D01*
X40781428Y-57844828D01*
X40805619Y-57866600D01*
X40829809Y-57910142D01*
X40829809Y-58019000D01*
X40805619Y-58062542D01*
X40781428Y-58084314D01*
X69381428Y-70993914D02*
X69405619Y-71015685D01*
X69429809Y-71081000D01*
X69429809Y-71124542D01*
X69405619Y-71189857D01*
X69357238Y-71233400D01*
X69308857Y-71255171D01*
X69212095Y-71276942D01*
X69139523Y-71276942D01*
X69042761Y-71255171D01*
X68994380Y-71233400D01*
X68946000Y-71189857D01*
X68921809Y-71124542D01*
X68921809Y-71081000D01*
X68946000Y-71015685D01*
X68970190Y-70993914D01*
X68921809Y-70841514D02*
X68921809Y-70558485D01*
X69115333Y-70710885D01*
X69115333Y-70645571D01*
X69139523Y-70602028D01*
X69163714Y-70580257D01*
X69212095Y-70558485D01*
X69333047Y-70558485D01*
X69381428Y-70580257D01*
X69405619Y-70602028D01*
X69429809Y-70645571D01*
X69429809Y-70776200D01*
X69405619Y-70819742D01*
X69381428Y-70841514D01*
X69091142Y-70166600D02*
X69429809Y-70166600D01*
X68897619Y-70275457D02*
X69260476Y-70384314D01*
X69260476Y-70101285D01*
X69961428Y-67433914D02*
X69985619Y-67455685D01*
X70009809Y-67521000D01*
X70009809Y-67564542D01*
X69985619Y-67629857D01*
X69937238Y-67673400D01*
X69888857Y-67695171D01*
X69792095Y-67716942D01*
X69719523Y-67716942D01*
X69622761Y-67695171D01*
X69574380Y-67673400D01*
X69526000Y-67629857D01*
X69501809Y-67564542D01*
X69501809Y-67521000D01*
X69526000Y-67455685D01*
X69550190Y-67433914D01*
X69501809Y-67281514D02*
X69501809Y-66998485D01*
X69695333Y-67150885D01*
X69695333Y-67085571D01*
X69719523Y-67042028D01*
X69743714Y-67020257D01*
X69792095Y-66998485D01*
X69913047Y-66998485D01*
X69961428Y-67020257D01*
X69985619Y-67042028D01*
X70009809Y-67085571D01*
X70009809Y-67216200D01*
X69985619Y-67259742D01*
X69961428Y-67281514D01*
X69501809Y-66715457D02*
X69501809Y-66671914D01*
X69526000Y-66628371D01*
X69550190Y-66606600D01*
X69598571Y-66584828D01*
X69695333Y-66563057D01*
X69816285Y-66563057D01*
X69913047Y-66584828D01*
X69961428Y-66606600D01*
X69985619Y-66628371D01*
X70009809Y-66671914D01*
X70009809Y-66715457D01*
X69985619Y-66759000D01*
X69961428Y-66780771D01*
X69913047Y-66802542D01*
X69816285Y-66824314D01*
X69695333Y-66824314D01*
X69598571Y-66802542D01*
X69550190Y-66780771D01*
X69526000Y-66759000D01*
X69501809Y-66715457D01*
X72628428Y-65020914D02*
X72652619Y-65042685D01*
X72676809Y-65108000D01*
X72676809Y-65151542D01*
X72652619Y-65216857D01*
X72604238Y-65260400D01*
X72555857Y-65282171D01*
X72459095Y-65303942D01*
X72386523Y-65303942D01*
X72289761Y-65282171D01*
X72241380Y-65260400D01*
X72193000Y-65216857D01*
X72168809Y-65151542D01*
X72168809Y-65108000D01*
X72193000Y-65042685D01*
X72217190Y-65020914D01*
X72217190Y-64846742D02*
X72193000Y-64824971D01*
X72168809Y-64781428D01*
X72168809Y-64672571D01*
X72193000Y-64629028D01*
X72217190Y-64607257D01*
X72265571Y-64585485D01*
X72313952Y-64585485D01*
X72386523Y-64607257D01*
X72676809Y-64868514D01*
X72676809Y-64585485D01*
X72676809Y-64367771D02*
X72676809Y-64280685D01*
X72652619Y-64237142D01*
X72628428Y-64215371D01*
X72555857Y-64171828D01*
X72459095Y-64150057D01*
X72265571Y-64150057D01*
X72217190Y-64171828D01*
X72193000Y-64193600D01*
X72168809Y-64237142D01*
X72168809Y-64324228D01*
X72193000Y-64367771D01*
X72217190Y-64389542D01*
X72265571Y-64411314D01*
X72386523Y-64411314D01*
X72434904Y-64389542D01*
X72459095Y-64367771D01*
X72483285Y-64324228D01*
X72483285Y-64237142D01*
X72459095Y-64193600D01*
X72434904Y-64171828D01*
X72386523Y-64150057D01*
X69834428Y-62734914D02*
X69858619Y-62756685D01*
X69882809Y-62822000D01*
X69882809Y-62865542D01*
X69858619Y-62930857D01*
X69810238Y-62974400D01*
X69761857Y-62996171D01*
X69665095Y-63017942D01*
X69592523Y-63017942D01*
X69495761Y-62996171D01*
X69447380Y-62974400D01*
X69399000Y-62930857D01*
X69374809Y-62865542D01*
X69374809Y-62822000D01*
X69399000Y-62756685D01*
X69423190Y-62734914D01*
X69423190Y-62560742D02*
X69399000Y-62538971D01*
X69374809Y-62495428D01*
X69374809Y-62386571D01*
X69399000Y-62343028D01*
X69423190Y-62321257D01*
X69471571Y-62299485D01*
X69519952Y-62299485D01*
X69592523Y-62321257D01*
X69882809Y-62582514D01*
X69882809Y-62299485D01*
X69592523Y-62038228D02*
X69568333Y-62081771D01*
X69544142Y-62103542D01*
X69495761Y-62125314D01*
X69471571Y-62125314D01*
X69423190Y-62103542D01*
X69399000Y-62081771D01*
X69374809Y-62038228D01*
X69374809Y-61951142D01*
X69399000Y-61907600D01*
X69423190Y-61885828D01*
X69471571Y-61864057D01*
X69495761Y-61864057D01*
X69544142Y-61885828D01*
X69568333Y-61907600D01*
X69592523Y-61951142D01*
X69592523Y-62038228D01*
X69616714Y-62081771D01*
X69640904Y-62103542D01*
X69689285Y-62125314D01*
X69786047Y-62125314D01*
X69834428Y-62103542D01*
X69858619Y-62081771D01*
X69882809Y-62038228D01*
X69882809Y-61951142D01*
X69858619Y-61907600D01*
X69834428Y-61885828D01*
X69786047Y-61864057D01*
X69689285Y-61864057D01*
X69640904Y-61885828D01*
X69616714Y-61907600D01*
X69592523Y-61951142D01*
X68564428Y-59686914D02*
X68588619Y-59708685D01*
X68612809Y-59774000D01*
X68612809Y-59817542D01*
X68588619Y-59882857D01*
X68540238Y-59926400D01*
X68491857Y-59948171D01*
X68395095Y-59969942D01*
X68322523Y-59969942D01*
X68225761Y-59948171D01*
X68177380Y-59926400D01*
X68129000Y-59882857D01*
X68104809Y-59817542D01*
X68104809Y-59774000D01*
X68129000Y-59708685D01*
X68153190Y-59686914D01*
X68153190Y-59512742D02*
X68129000Y-59490971D01*
X68104809Y-59447428D01*
X68104809Y-59338571D01*
X68129000Y-59295028D01*
X68153190Y-59273257D01*
X68201571Y-59251485D01*
X68249952Y-59251485D01*
X68322523Y-59273257D01*
X68612809Y-59534514D01*
X68612809Y-59251485D01*
X68104809Y-59099085D02*
X68104809Y-58794285D01*
X68612809Y-58990228D01*
X58381428Y-72893914D02*
X58405619Y-72915685D01*
X58429809Y-72981000D01*
X58429809Y-73024542D01*
X58405619Y-73089857D01*
X58357238Y-73133400D01*
X58308857Y-73155171D01*
X58212095Y-73176942D01*
X58139523Y-73176942D01*
X58042761Y-73155171D01*
X57994380Y-73133400D01*
X57946000Y-73089857D01*
X57921809Y-73024542D01*
X57921809Y-72981000D01*
X57946000Y-72915685D01*
X57970190Y-72893914D01*
X57970190Y-72719742D02*
X57946000Y-72697971D01*
X57921809Y-72654428D01*
X57921809Y-72545571D01*
X57946000Y-72502028D01*
X57970190Y-72480257D01*
X58018571Y-72458485D01*
X58066952Y-72458485D01*
X58139523Y-72480257D01*
X58429809Y-72741514D01*
X58429809Y-72458485D01*
X57921809Y-72306085D02*
X57921809Y-72023057D01*
X58115333Y-72175457D01*
X58115333Y-72110142D01*
X58139523Y-72066600D01*
X58163714Y-72044828D01*
X58212095Y-72023057D01*
X58333047Y-72023057D01*
X58381428Y-72044828D01*
X58405619Y-72066600D01*
X58429809Y-72110142D01*
X58429809Y-72240771D01*
X58405619Y-72284314D01*
X58381428Y-72306085D01*
X57681428Y-65493914D02*
X57705619Y-65515685D01*
X57729809Y-65581000D01*
X57729809Y-65624542D01*
X57705619Y-65689857D01*
X57657238Y-65733400D01*
X57608857Y-65755171D01*
X57512095Y-65776942D01*
X57439523Y-65776942D01*
X57342761Y-65755171D01*
X57294380Y-65733400D01*
X57246000Y-65689857D01*
X57221809Y-65624542D01*
X57221809Y-65581000D01*
X57246000Y-65515685D01*
X57270190Y-65493914D01*
X57270190Y-65319742D02*
X57246000Y-65297971D01*
X57221809Y-65254428D01*
X57221809Y-65145571D01*
X57246000Y-65102028D01*
X57270190Y-65080257D01*
X57318571Y-65058485D01*
X57366952Y-65058485D01*
X57439523Y-65080257D01*
X57729809Y-65341514D01*
X57729809Y-65058485D01*
X57270190Y-64884314D02*
X57246000Y-64862542D01*
X57221809Y-64819000D01*
X57221809Y-64710142D01*
X57246000Y-64666600D01*
X57270190Y-64644828D01*
X57318571Y-64623057D01*
X57366952Y-64623057D01*
X57439523Y-64644828D01*
X57729809Y-64906085D01*
X57729809Y-64623057D01*
X57881428Y-56193914D02*
X57905619Y-56215685D01*
X57929809Y-56281000D01*
X57929809Y-56324542D01*
X57905619Y-56389857D01*
X57857238Y-56433400D01*
X57808857Y-56455171D01*
X57712095Y-56476942D01*
X57639523Y-56476942D01*
X57542761Y-56455171D01*
X57494380Y-56433400D01*
X57446000Y-56389857D01*
X57421809Y-56324542D01*
X57421809Y-56281000D01*
X57446000Y-56215685D01*
X57470190Y-56193914D01*
X57470190Y-56019742D02*
X57446000Y-55997971D01*
X57421809Y-55954428D01*
X57421809Y-55845571D01*
X57446000Y-55802028D01*
X57470190Y-55780257D01*
X57518571Y-55758485D01*
X57566952Y-55758485D01*
X57639523Y-55780257D01*
X57929809Y-56041514D01*
X57929809Y-55758485D01*
X57929809Y-55323057D02*
X57929809Y-55584314D01*
X57929809Y-55453685D02*
X57421809Y-55453685D01*
X57494380Y-55497228D01*
X57542761Y-55540771D01*
X57566952Y-55584314D01*
X58081428Y-58593914D02*
X58105619Y-58615685D01*
X58129809Y-58681000D01*
X58129809Y-58724542D01*
X58105619Y-58789857D01*
X58057238Y-58833400D01*
X58008857Y-58855171D01*
X57912095Y-58876942D01*
X57839523Y-58876942D01*
X57742761Y-58855171D01*
X57694380Y-58833400D01*
X57646000Y-58789857D01*
X57621809Y-58724542D01*
X57621809Y-58681000D01*
X57646000Y-58615685D01*
X57670190Y-58593914D01*
X58129809Y-58158485D02*
X58129809Y-58419742D01*
X58129809Y-58289114D02*
X57621809Y-58289114D01*
X57694380Y-58332657D01*
X57742761Y-58376200D01*
X57766952Y-58419742D01*
X58129809Y-57940771D02*
X58129809Y-57853685D01*
X58105619Y-57810142D01*
X58081428Y-57788371D01*
X58008857Y-57744828D01*
X57912095Y-57723057D01*
X57718571Y-57723057D01*
X57670190Y-57744828D01*
X57646000Y-57766600D01*
X57621809Y-57810142D01*
X57621809Y-57897228D01*
X57646000Y-57940771D01*
X57670190Y-57962542D01*
X57718571Y-57984314D01*
X57839523Y-57984314D01*
X57887904Y-57962542D01*
X57912095Y-57940771D01*
X57936285Y-57897228D01*
X57936285Y-57810142D01*
X57912095Y-57766600D01*
X57887904Y-57744828D01*
X57839523Y-57723057D01*
X51452085Y-55129428D02*
X51430314Y-55153619D01*
X51365000Y-55177809D01*
X51321457Y-55177809D01*
X51256142Y-55153619D01*
X51212600Y-55105238D01*
X51190828Y-55056857D01*
X51169057Y-54960095D01*
X51169057Y-54887523D01*
X51190828Y-54790761D01*
X51212600Y-54742380D01*
X51256142Y-54694000D01*
X51321457Y-54669809D01*
X51365000Y-54669809D01*
X51430314Y-54694000D01*
X51452085Y-54718190D01*
X51887514Y-55177809D02*
X51626257Y-55177809D01*
X51756885Y-55177809D02*
X51756885Y-54669809D01*
X51713342Y-54742380D01*
X51669800Y-54790761D01*
X51626257Y-54814952D01*
X52039914Y-54669809D02*
X52322942Y-54669809D01*
X52170542Y-54863333D01*
X52235857Y-54863333D01*
X52279400Y-54887523D01*
X52301171Y-54911714D01*
X52322942Y-54960095D01*
X52322942Y-55081047D01*
X52301171Y-55129428D01*
X52279400Y-55153619D01*
X52235857Y-55177809D01*
X52105228Y-55177809D01*
X52061685Y-55153619D01*
X52039914Y-55129428D01*
X58181428Y-61793914D02*
X58205619Y-61815685D01*
X58229809Y-61881000D01*
X58229809Y-61924542D01*
X58205619Y-61989857D01*
X58157238Y-62033400D01*
X58108857Y-62055171D01*
X58012095Y-62076942D01*
X57939523Y-62076942D01*
X57842761Y-62055171D01*
X57794380Y-62033400D01*
X57746000Y-61989857D01*
X57721809Y-61924542D01*
X57721809Y-61881000D01*
X57746000Y-61815685D01*
X57770190Y-61793914D01*
X58229809Y-61358485D02*
X58229809Y-61619742D01*
X58229809Y-61489114D02*
X57721809Y-61489114D01*
X57794380Y-61532657D01*
X57842761Y-61576200D01*
X57866952Y-61619742D01*
X57770190Y-61184314D02*
X57746000Y-61162542D01*
X57721809Y-61119000D01*
X57721809Y-61010142D01*
X57746000Y-60966600D01*
X57770190Y-60944828D01*
X57818571Y-60923057D01*
X57866952Y-60923057D01*
X57939523Y-60944828D01*
X58229809Y-61206085D01*
X58229809Y-60923057D01*
X44963881Y-74620460D02*
X44931381Y-74622171D01*
X44868092Y-74593092D01*
X44837302Y-74562302D01*
X44808224Y-74499013D01*
X44811645Y-74434013D01*
X44830460Y-74384408D01*
X44883487Y-74300592D01*
X44934802Y-74249276D01*
X45018618Y-74196250D01*
X45068223Y-74177434D01*
X45133223Y-74174013D01*
X45196513Y-74203092D01*
X45227302Y-74233881D01*
X45256381Y-74297171D01*
X45254671Y-74329671D01*
X45237565Y-74962565D02*
X45052829Y-74777828D01*
X45145197Y-74870197D02*
X45504407Y-74510986D01*
X45422302Y-74531513D01*
X45357302Y-74534934D01*
X45309407Y-74521250D01*
X45545460Y-75270460D02*
X45360723Y-75085723D01*
X45453091Y-75178091D02*
X45812302Y-74818881D01*
X45730197Y-74839407D01*
X45665197Y-74842828D01*
X45617302Y-74829144D01*
X52606085Y-70381428D02*
X52584314Y-70405619D01*
X52519000Y-70429809D01*
X52475457Y-70429809D01*
X52410142Y-70405619D01*
X52366600Y-70357238D01*
X52344828Y-70308857D01*
X52323057Y-70212095D01*
X52323057Y-70139523D01*
X52344828Y-70042761D01*
X52366600Y-69994380D01*
X52410142Y-69946000D01*
X52475457Y-69921809D01*
X52519000Y-69921809D01*
X52584314Y-69946000D01*
X52606085Y-69970190D01*
X53041514Y-70429809D02*
X52780257Y-70429809D01*
X52910885Y-70429809D02*
X52910885Y-69921809D01*
X52867342Y-69994380D01*
X52823800Y-70042761D01*
X52780257Y-70066952D01*
X53324542Y-69921809D02*
X53368085Y-69921809D01*
X53411628Y-69946000D01*
X53433400Y-69970190D01*
X53455171Y-70018571D01*
X53476942Y-70115333D01*
X53476942Y-70236285D01*
X53455171Y-70333047D01*
X53433400Y-70381428D01*
X53411628Y-70405619D01*
X53368085Y-70429809D01*
X53324542Y-70429809D01*
X53281000Y-70405619D01*
X53259228Y-70381428D01*
X53237457Y-70333047D01*
X53215685Y-70236285D01*
X53215685Y-70115333D01*
X53237457Y-70018571D01*
X53259228Y-69970190D01*
X53281000Y-69946000D01*
X53324542Y-69921809D01*
D11*
X34652380Y-65103333D02*
X35366666Y-65103333D01*
X35509523Y-65150952D01*
X35604761Y-65246190D01*
X35652380Y-65389047D01*
X35652380Y-65484285D01*
X34747619Y-64674761D02*
X34700000Y-64627142D01*
X34652380Y-64531904D01*
X34652380Y-64293809D01*
X34700000Y-64198571D01*
X34747619Y-64150952D01*
X34842857Y-64103333D01*
X34938095Y-64103333D01*
X35080952Y-64150952D01*
X35652380Y-64722380D01*
X35652380Y-64103333D01*
X34652380Y-49863333D02*
X35366666Y-49863333D01*
X35509523Y-49910952D01*
X35604761Y-50006190D01*
X35652380Y-50149047D01*
X35652380Y-50244285D01*
X34652380Y-49482380D02*
X34652380Y-48863333D01*
X35033333Y-49196666D01*
X35033333Y-49053809D01*
X35080952Y-48958571D01*
X35128571Y-48910952D01*
X35223809Y-48863333D01*
X35461904Y-48863333D01*
X35557142Y-48910952D01*
X35604761Y-48958571D01*
X35652380Y-49053809D01*
X35652380Y-49339523D01*
X35604761Y-49434761D01*
X35557142Y-49482380D01*
%LPC*%
D25*
X111760000Y-88900000D03*
X111760000Y-44450000D03*
X21590000Y-44450000D03*
D26*
X25644999Y-77720001D03*
X25644999Y-89150001D03*
D27*
X22594999Y-75310001D03*
X22594999Y-91560001D03*
D28*
X34534999Y-87880001D03*
X31994999Y-86610001D03*
X34534999Y-85340001D03*
X31994999Y-84070001D03*
X34534999Y-82800001D03*
X31994999Y-81530001D03*
X34534999Y-80260001D03*
D29*
X31994999Y-78990001D03*
D30*
X41800000Y-45098740D03*
X41800000Y-47100260D03*
X41800000Y-55101260D03*
X41800000Y-53099740D03*
X41800000Y-51100760D03*
X41800000Y-49099240D03*
D31*
X65273740Y-43450000D03*
X61273240Y-43450000D03*
X63274760Y-43450000D03*
D32*
X59271720Y-43450000D03*
D30*
X52746760Y-77300000D03*
X50745240Y-77300000D03*
X48746260Y-77300000D03*
X46744740Y-77300000D03*
X54745740Y-77300000D03*
X56747260Y-77300000D03*
D33*
X91753540Y-43899000D03*
X91753540Y-45169000D03*
X91753540Y-46439000D03*
X91753540Y-48979000D03*
X91753540Y-50249000D03*
X91753540Y-51519000D03*
D34*
X81151580Y-47709000D03*
D35*
X42602000Y-76792000D03*
X42602000Y-74252000D03*
X42602000Y-71712000D03*
D36*
X73082000Y-51229440D03*
X73082000Y-56380560D03*
D37*
X63938000Y-49400640D03*
X63938000Y-54399360D03*
D38*
X96196000Y-48090000D03*
X96196000Y-60790000D03*
X96196000Y-72474000D03*
D33*
X91753540Y-69934000D03*
X91753540Y-71204000D03*
X91753540Y-72474000D03*
X91753540Y-75014000D03*
X91753540Y-76284000D03*
X91753540Y-77554000D03*
D34*
X81151580Y-73744000D03*
D33*
X91753540Y-57107000D03*
X91753540Y-58377000D03*
X91753540Y-59647000D03*
X91753540Y-62187000D03*
X91753540Y-63457000D03*
X91753540Y-64727000D03*
D34*
X81151580Y-60917000D03*
D39*
X44186960Y-58087440D03*
X44684800Y-58087440D03*
X45185180Y-58087440D03*
X45685560Y-58087440D03*
X46185940Y-58087440D03*
D40*
X53686560Y-60088960D03*
X53686560Y-60586800D03*
X53686560Y-61087180D03*
X53686560Y-61587560D03*
X53686560Y-62087940D03*
D39*
X51685040Y-69588560D03*
X51187200Y-69588560D03*
X50686820Y-69588560D03*
X50186440Y-69588560D03*
X49686060Y-69588560D03*
D40*
X42185440Y-67587040D03*
X42185440Y-67089200D03*
X42185440Y-66588820D03*
X42185440Y-66088440D03*
X42185440Y-65588060D03*
D39*
X46686320Y-58087440D03*
X47186700Y-58087440D03*
X47687080Y-58087440D03*
D40*
X53686560Y-62588320D03*
X53686560Y-63088700D03*
X53686560Y-63589080D03*
D39*
X49185680Y-69588560D03*
X48685300Y-69588560D03*
X48184920Y-69588560D03*
D40*
X42185440Y-65087680D03*
X42185440Y-64587300D03*
X42185440Y-64086920D03*
D39*
X48184920Y-58087440D03*
X48685300Y-58087440D03*
X49185680Y-58087440D03*
X49686060Y-58087440D03*
X50186440Y-58087440D03*
X50686820Y-58087440D03*
X51187200Y-58087440D03*
X51685040Y-58087440D03*
D40*
X53686560Y-64086920D03*
X53686560Y-64587300D03*
X53686560Y-65087680D03*
X53686560Y-65588060D03*
X53686560Y-66088440D03*
X53686560Y-66588820D03*
X53686560Y-67089200D03*
X53686560Y-67587040D03*
D39*
X47687080Y-69588560D03*
X47186700Y-69588560D03*
X46686320Y-69588560D03*
X46185940Y-69588560D03*
X45685560Y-69588560D03*
X45185180Y-69588560D03*
X44684800Y-69588560D03*
X44186960Y-69588560D03*
D40*
X42185440Y-61087180D03*
X42185440Y-60586800D03*
X42185440Y-60088960D03*
X42185440Y-63589080D03*
X42185440Y-63088700D03*
X42185440Y-62588320D03*
X42185440Y-62087940D03*
X42185440Y-61587560D03*
D41*
X63176000Y-64854000D03*
D42*
X67176500Y-58158560D03*
X67176500Y-58656400D03*
X67176500Y-59156780D03*
X67176500Y-59657160D03*
X67176500Y-60157540D03*
X67176500Y-60657920D03*
X67176500Y-61158300D03*
X67176500Y-61656140D03*
X59175500Y-71656120D03*
X59175500Y-71158280D03*
X59175500Y-70657900D03*
X59175500Y-70157520D03*
X59175500Y-63157280D03*
X59175500Y-62656900D03*
X59175500Y-62156520D03*
X59175500Y-61656140D03*
X59175500Y-61158300D03*
X59175500Y-60657920D03*
X59175500Y-60157540D03*
X59175500Y-59657160D03*
X59175500Y-59156780D03*
X59175500Y-58656400D03*
X59175500Y-58158560D03*
X59175500Y-69657140D03*
X59175500Y-69156760D03*
X59175500Y-68656380D03*
X59175500Y-68158540D03*
X59175500Y-67658160D03*
X59175500Y-67157780D03*
X59175500Y-66657400D03*
X67176500Y-70157520D03*
X59175500Y-65656640D03*
X59175500Y-65156260D03*
X59175500Y-64658420D03*
X59175500Y-64158040D03*
X59175500Y-63657660D03*
X67176500Y-67658160D03*
X67176500Y-68158540D03*
X67176500Y-68656380D03*
X67176500Y-69156760D03*
X67176500Y-69657140D03*
X59175500Y-66157020D03*
X67176500Y-70657900D03*
X67176500Y-71158280D03*
X67176500Y-71656120D03*
X67176500Y-62156520D03*
X67176500Y-62656900D03*
X67176500Y-63157280D03*
X67176500Y-63657660D03*
X67176500Y-64158040D03*
X67176500Y-64658420D03*
X67176500Y-65156260D03*
X67176500Y-65656640D03*
X67176500Y-66157020D03*
X67176500Y-66657400D03*
X67176500Y-67157780D03*
D43*
X72955000Y-62187000D03*
X72955000Y-58885000D03*
X75495000Y-62187000D03*
X75495000Y-58885000D03*
D44*
X64954000Y-73998000D03*
X61652000Y-73998000D03*
D45*
X76130000Y-78824000D03*
X76130000Y-77300000D03*
D46*
X50730000Y-74760000D03*
X49206000Y-74760000D03*
D45*
X58604000Y-50884000D03*
X58604000Y-49360000D03*
X58604000Y-53424000D03*
X58604000Y-51900000D03*
X55302000Y-58758000D03*
X55302000Y-57234000D03*
D46*
X55556000Y-60028000D03*
X57080000Y-60028000D03*
D45*
X68764000Y-56853000D03*
X68764000Y-55329000D03*
D46*
X95942000Y-77808000D03*
X94418000Y-77808000D03*
X88322000Y-67394000D03*
X89846000Y-67394000D03*
X89465000Y-54440000D03*
X90989000Y-54440000D03*
X71558000Y-69807000D03*
X73082000Y-69807000D03*
X71558000Y-71331000D03*
X73082000Y-71331000D03*
X71558000Y-72855000D03*
X73082000Y-72855000D03*
X71558000Y-74379000D03*
X73082000Y-74379000D03*
D45*
X51450000Y-50638000D03*
X51450000Y-52162000D03*
X53000000Y-50638000D03*
X53000000Y-52162000D03*
X56500000Y-48238000D03*
X56500000Y-49762000D03*
D47*
X49855000Y-54467000D03*
X48585000Y-54467000D03*
X47315000Y-54467000D03*
X49855000Y-49133000D03*
X48585000Y-49133000D03*
X47315000Y-49133000D03*
X46045000Y-54467000D03*
X46045000Y-49133000D03*
D48*
X49200000Y-45700000D03*
X53200000Y-45700000D03*
D49*
X46850000Y-42925000D03*
X55550000Y-42925000D03*
D50*
X46650000Y-46000000D03*
X55750000Y-46000000D03*
D51*
X52800000Y-47200000D03*
X52000000Y-47200000D03*
X51200000Y-47200000D03*
X50400000Y-47200000D03*
X49600000Y-47200000D03*
D52*
X60981440Y-77300000D03*
D53*
X64984480Y-77300000D03*
X62982960Y-77300000D03*
X66983460Y-77300000D03*
X68984980Y-77300000D03*
X70986500Y-77300000D03*
X72985480Y-77300000D03*
D46*
X47288000Y-56000000D03*
X48812000Y-56000000D03*
X51746000Y-74760000D03*
X53270000Y-74760000D03*
D45*
X70288000Y-74252000D03*
X70288000Y-72728000D03*
X41840000Y-59139000D03*
X41840000Y-57615000D03*
X70288000Y-71458000D03*
X70288000Y-69934000D03*
X70923000Y-66378000D03*
X70923000Y-67902000D03*
X73590000Y-63965000D03*
X73590000Y-65489000D03*
X70796000Y-61679000D03*
X70796000Y-63203000D03*
X69526000Y-58631000D03*
X69526000Y-60155000D03*
X57080000Y-71839000D03*
X57080000Y-73363000D03*
X56318000Y-66251000D03*
X56318000Y-64727000D03*
D46*
X55302000Y-55964000D03*
X56826000Y-55964000D03*
D45*
X56826000Y-58758000D03*
X56826000Y-57234000D03*
D46*
X52508000Y-56091000D03*
X50984000Y-56091000D03*
X57080000Y-61552000D03*
X55556000Y-61552000D03*
D54*
X46950815Y-74663815D03*
D11*
G36*
X46322197Y-74843420D02*
G01*
X47130420Y-74035197D01*
X47579433Y-74484210D01*
X46771210Y-75292433D01*
X46322197Y-74843420D01*
X46322197Y-74843420D01*
G37*
D54*
X45873185Y-73586185D03*
D11*
G36*
X45244567Y-73765790D02*
G01*
X46052790Y-72957567D01*
X46501803Y-73406580D01*
X45693580Y-74214803D01*
X45244567Y-73765790D01*
X45244567Y-73765790D01*
G37*
D46*
X52127000Y-71331000D03*
X53651000Y-71331000D03*
D55*
X26710000Y-69470000D03*
X26710000Y-60070000D03*
D56*
X26250000Y-64770000D03*
D11*
G36*
X33174503Y-63421204D02*
G01*
X33198772Y-63424804D01*
X33222570Y-63430765D01*
X33245670Y-63439030D01*
X33267849Y-63449520D01*
X33288892Y-63462133D01*
X33308598Y-63476748D01*
X33326776Y-63493224D01*
X33343252Y-63511402D01*
X33357867Y-63531108D01*
X33370480Y-63552151D01*
X33380970Y-63574330D01*
X33389235Y-63597430D01*
X33395196Y-63621228D01*
X33398796Y-63645497D01*
X33400000Y-63670001D01*
X33400000Y-65869999D01*
X33398796Y-65894503D01*
X33395196Y-65918772D01*
X33389235Y-65942570D01*
X33380970Y-65965670D01*
X33370480Y-65987849D01*
X33357867Y-66008892D01*
X33343252Y-66028598D01*
X33326776Y-66046776D01*
X33308598Y-66063252D01*
X33288892Y-66077867D01*
X33267849Y-66090480D01*
X33245670Y-66100970D01*
X33222570Y-66109235D01*
X33198772Y-66115196D01*
X33174503Y-66118796D01*
X33149999Y-66120000D01*
X30350001Y-66120000D01*
X30325497Y-66118796D01*
X30301228Y-66115196D01*
X30277430Y-66109235D01*
X30254330Y-66100970D01*
X30232151Y-66090480D01*
X30211108Y-66077867D01*
X30191402Y-66063252D01*
X30173224Y-66046776D01*
X30156748Y-66028598D01*
X30142133Y-66008892D01*
X30129520Y-65987849D01*
X30119030Y-65965670D01*
X30110765Y-65942570D01*
X30104804Y-65918772D01*
X30101204Y-65894503D01*
X30100000Y-65869999D01*
X30100000Y-63670001D01*
X30101204Y-63645497D01*
X30104804Y-63621228D01*
X30110765Y-63597430D01*
X30119030Y-63574330D01*
X30129520Y-63552151D01*
X30142133Y-63531108D01*
X30156748Y-63511402D01*
X30173224Y-63493224D01*
X30191402Y-63476748D01*
X30211108Y-63462133D01*
X30232151Y-63449520D01*
X30254330Y-63439030D01*
X30277430Y-63430765D01*
X30301228Y-63424804D01*
X30325497Y-63421204D01*
X30350001Y-63420000D01*
X33149999Y-63420000D01*
X33174503Y-63421204D01*
X33174503Y-63421204D01*
G37*
D57*
X31750000Y-64770000D03*
D11*
G36*
X33174503Y-48181204D02*
G01*
X33198772Y-48184804D01*
X33222570Y-48190765D01*
X33245670Y-48199030D01*
X33267849Y-48209520D01*
X33288892Y-48222133D01*
X33308598Y-48236748D01*
X33326776Y-48253224D01*
X33343252Y-48271402D01*
X33357867Y-48291108D01*
X33370480Y-48312151D01*
X33380970Y-48334330D01*
X33389235Y-48357430D01*
X33395196Y-48381228D01*
X33398796Y-48405497D01*
X33400000Y-48430001D01*
X33400000Y-50629999D01*
X33398796Y-50654503D01*
X33395196Y-50678772D01*
X33389235Y-50702570D01*
X33380970Y-50725670D01*
X33370480Y-50747849D01*
X33357867Y-50768892D01*
X33343252Y-50788598D01*
X33326776Y-50806776D01*
X33308598Y-50823252D01*
X33288892Y-50837867D01*
X33267849Y-50850480D01*
X33245670Y-50860970D01*
X33222570Y-50869235D01*
X33198772Y-50875196D01*
X33174503Y-50878796D01*
X33149999Y-50880000D01*
X30350001Y-50880000D01*
X30325497Y-50878796D01*
X30301228Y-50875196D01*
X30277430Y-50869235D01*
X30254330Y-50860970D01*
X30232151Y-50850480D01*
X30211108Y-50837867D01*
X30191402Y-50823252D01*
X30173224Y-50806776D01*
X30156748Y-50788598D01*
X30142133Y-50768892D01*
X30129520Y-50747849D01*
X30119030Y-50725670D01*
X30110765Y-50702570D01*
X30104804Y-50678772D01*
X30101204Y-50654503D01*
X30100000Y-50629999D01*
X30100000Y-48430001D01*
X30101204Y-48405497D01*
X30104804Y-48381228D01*
X30110765Y-48357430D01*
X30119030Y-48334330D01*
X30129520Y-48312151D01*
X30142133Y-48291108D01*
X30156748Y-48271402D01*
X30173224Y-48253224D01*
X30191402Y-48236748D01*
X30211108Y-48222133D01*
X30232151Y-48209520D01*
X30254330Y-48199030D01*
X30277430Y-48190765D01*
X30301228Y-48184804D01*
X30325497Y-48181204D01*
X30350001Y-48180000D01*
X33149999Y-48180000D01*
X33174503Y-48181204D01*
X33174503Y-48181204D01*
G37*
D57*
X31750000Y-49530000D03*
D56*
X26250000Y-49530000D03*
D55*
X26710000Y-44830000D03*
X26710000Y-54230000D03*
D58*
G36*
X94182839Y-58443560D02*
G01*
X94197903Y-58463383D01*
X94216544Y-58479885D01*
X94238047Y-58492434D01*
X94261584Y-58500546D01*
X94291000Y-58504000D01*
X98101000Y-58504000D01*
X98101000Y-63203000D01*
X94164000Y-63203000D01*
X94139224Y-63205440D01*
X94115399Y-63212667D01*
X94093553Y-63224330D01*
X93363548Y-63711000D01*
X90354000Y-63711000D01*
X90354000Y-56853000D01*
X93204033Y-56853000D01*
X94182839Y-58443560D01*
X94182839Y-58443560D01*
G37*
X94182839Y-58443560D02*
X94197903Y-58463383D01*
X94216544Y-58479885D01*
X94238047Y-58492434D01*
X94261584Y-58500546D01*
X94291000Y-58504000D01*
X98101000Y-58504000D01*
X98101000Y-63203000D01*
X94164000Y-63203000D01*
X94139224Y-63205440D01*
X94115399Y-63212667D01*
X94093553Y-63224330D01*
X93363548Y-63711000D01*
X90354000Y-63711000D01*
X90354000Y-56853000D01*
X93204033Y-56853000D01*
X94182839Y-58443560D01*
G36*
X94638584Y-70056525D02*
G01*
X94672000Y-70061000D01*
X98101000Y-70061000D01*
X98101000Y-74887000D01*
X94672000Y-74887000D01*
X94647224Y-74889440D01*
X94623399Y-74896667D01*
X94601443Y-74908403D01*
X94582197Y-74924197D01*
X94566330Y-74943553D01*
X94315386Y-75319969D01*
X93340961Y-76538000D01*
X90354000Y-76538000D01*
X90354000Y-69680000D01*
X93257992Y-69680000D01*
X94638584Y-70056525D01*
X94638584Y-70056525D01*
G37*
X94638584Y-70056525D02*
X94672000Y-70061000D01*
X98101000Y-70061000D01*
X98101000Y-74887000D01*
X94672000Y-74887000D01*
X94647224Y-74889440D01*
X94623399Y-74896667D01*
X94601443Y-74908403D01*
X94582197Y-74924197D01*
X94566330Y-74943553D01*
X94315386Y-75319969D01*
X93340961Y-76538000D01*
X90354000Y-76538000D01*
X90354000Y-69680000D01*
X93257992Y-69680000D01*
X94638584Y-70056525D01*
G36*
X94694347Y-45621949D02*
G01*
X94710394Y-45640984D01*
X94729847Y-45656521D01*
X94751957Y-45667966D01*
X94775875Y-45674877D01*
X94799000Y-45677000D01*
X98101000Y-45677000D01*
X98101000Y-50503000D01*
X90354000Y-50503000D01*
X90354000Y-43645000D01*
X93335195Y-43645000D01*
X94694347Y-45621949D01*
X94694347Y-45621949D01*
G37*
X94694347Y-45621949D02*
X94710394Y-45640984D01*
X94729847Y-45656521D01*
X94751957Y-45667966D01*
X94775875Y-45674877D01*
X94799000Y-45677000D01*
X98101000Y-45677000D01*
X98101000Y-50503000D01*
X90354000Y-50503000D01*
X90354000Y-43645000D01*
X93335195Y-43645000D01*
X94694347Y-45621949D01*
G36*
X77146000Y-51773000D02*
G01*
X70542000Y-51773000D01*
X70542000Y-47074000D01*
X70539560Y-47049224D01*
X70532333Y-47025399D01*
X70520597Y-47003443D01*
X70504803Y-46984197D01*
X70485557Y-46968403D01*
X70463601Y-46956667D01*
X70439776Y-46949440D01*
X70415000Y-46947000D01*
X67875000Y-46947000D01*
X67875000Y-42502000D01*
X77146000Y-42502000D01*
X77146000Y-51773000D01*
X77146000Y-51773000D01*
G37*
X77146000Y-51773000D02*
X70542000Y-51773000D01*
X70542000Y-47074000D01*
X70539560Y-47049224D01*
X70532333Y-47025399D01*
X70520597Y-47003443D01*
X70504803Y-46984197D01*
X70485557Y-46968403D01*
X70463601Y-46956667D01*
X70439776Y-46949440D01*
X70415000Y-46947000D01*
X67875000Y-46947000D01*
X67875000Y-42502000D01*
X77146000Y-42502000D01*
X77146000Y-51773000D01*
G36*
X86671000Y-55403394D02*
G01*
X84967394Y-57107000D01*
X77527000Y-57107000D01*
X77527000Y-55837000D01*
X78924000Y-55837000D01*
X78948776Y-55834560D01*
X78972601Y-55827333D01*
X78994557Y-55815597D01*
X79013803Y-55799803D01*
X79029597Y-55780557D01*
X79041333Y-55758601D01*
X79048560Y-55734776D01*
X79051000Y-55710000D01*
X79051000Y-53932000D01*
X79048560Y-53907224D01*
X79041333Y-53883399D01*
X79029597Y-53861443D01*
X79013803Y-53842197D01*
X77960606Y-52789000D01*
X86671000Y-52789000D01*
X86671000Y-55403394D01*
X86671000Y-55403394D01*
G37*
X86671000Y-55403394D02*
X84967394Y-57107000D01*
X77527000Y-57107000D01*
X77527000Y-55837000D01*
X78924000Y-55837000D01*
X78948776Y-55834560D01*
X78972601Y-55827333D01*
X78994557Y-55815597D01*
X79013803Y-55799803D01*
X79029597Y-55780557D01*
X79041333Y-55758601D01*
X79048560Y-55734776D01*
X79051000Y-55710000D01*
X79051000Y-53932000D01*
X79048560Y-53907224D01*
X79041333Y-53883399D01*
X79029597Y-53861443D01*
X79013803Y-53842197D01*
X77960606Y-52789000D01*
X86671000Y-52789000D01*
X86671000Y-55403394D01*
G36*
X86417000Y-67855019D02*
G01*
X84961587Y-69553000D01*
X78797000Y-69553000D01*
X78797000Y-66251000D01*
X86417000Y-66251000D01*
X86417000Y-67855019D01*
X86417000Y-67855019D01*
G37*
X86417000Y-67855019D02*
X84961587Y-69553000D01*
X78797000Y-69553000D01*
X78797000Y-66251000D01*
X86417000Y-66251000D01*
X86417000Y-67855019D01*
M02*
