G04 #@! TF.GenerationSoftware,KiCad,Pcbnew,(5.1.0)-1*
G04 #@! TF.CreationDate,2020-02-16T21:22:29+11:00*
G04 #@! TF.ProjectId,BLDC_4,424c4443-5f34-42e6-9b69-6361645f7063,A*
G04 #@! TF.SameCoordinates,Original*
G04 #@! TF.FileFunction,Soldermask,Top*
G04 #@! TF.FilePolarity,Negative*
%FSLAX46Y46*%
G04 Gerber Fmt 4.6, Leading zero omitted, Abs format (unit mm)*
G04 Created by KiCad (PCBNEW (5.1.0)-1) date 2020-02-16 21:22:29*
%MOMM*%
%LPD*%
G04 APERTURE LIST*
%ADD10C,4.000000*%
%ADD11C,3.250000*%
%ADD12C,2.895000*%
%ADD13C,1.268000*%
%ADD14R,1.268000X1.268000*%
%ADD15C,1.300480*%
%ADD16O,1.198880X1.699260*%
%ADD17R,1.198880X1.699260*%
%ADD18R,3.200400X0.899160*%
%ADD19R,8.150860X10.800080*%
%ADD20O,3.048000X1.524000*%
%ADD21R,5.499100X1.849120*%
%ADD22R,7.498080X2.997200*%
%ADD23R,4.000000X5.000000*%
%ADD24R,0.300000X1.300480*%
%ADD25R,1.300480X0.300000*%
%ADD26R,3.599180X7.000240*%
%ADD27R,1.501140X0.299720*%
%ADD28R,2.032000X1.524000*%
%ADD29R,1.524000X2.032000*%
%ADD30R,1.143000X0.635000*%
%ADD31R,0.635000X1.143000*%
%ADD32R,0.599440X1.399540*%
%ADD33C,1.000000*%
%ADD34R,2.000000X2.200000*%
%ADD35R,2.400000X2.200000*%
%ADD36R,0.500000X1.500000*%
%ADD37R,1.300000X1.300000*%
%ADD38C,1.300000*%
%ADD39C,0.635000*%
%ADD40C,0.150000*%
%ADD41C,3.000000*%
%ADD42O,3.300000X2.700000*%
%ADD43C,2.700000*%
%ADD44C,0.254000*%
G04 APERTURE END LIST*
D10*
X111760000Y-88900000D03*
X111760000Y-44450000D03*
X21590000Y-44450000D03*
D11*
X25644999Y-77720001D03*
X25644999Y-89150001D03*
D12*
X22594999Y-75310001D03*
X22594999Y-91560001D03*
D13*
X34534999Y-87880001D03*
X31994999Y-86610001D03*
X34534999Y-85340001D03*
X31994999Y-84070001D03*
X34534999Y-82800001D03*
X31994999Y-81530001D03*
X34534999Y-80260001D03*
D14*
X31994999Y-78990001D03*
D15*
X41800000Y-45098740D03*
X41800000Y-47100260D03*
X41800000Y-55101260D03*
X41800000Y-53099740D03*
X41800000Y-51100760D03*
X41800000Y-49099240D03*
D16*
X65273740Y-43450000D03*
X61273240Y-43450000D03*
X63274760Y-43450000D03*
D17*
X59271720Y-43450000D03*
D15*
X52746760Y-77300000D03*
X50745240Y-77300000D03*
X48746260Y-77300000D03*
X46744740Y-77300000D03*
X54745740Y-77300000D03*
X56747260Y-77300000D03*
D18*
X91753540Y-43899000D03*
X91753540Y-45169000D03*
X91753540Y-46439000D03*
X91753540Y-48979000D03*
X91753540Y-50249000D03*
X91753540Y-51519000D03*
D19*
X81151580Y-47709000D03*
D20*
X42602000Y-76792000D03*
X42602000Y-74252000D03*
X42602000Y-71712000D03*
D21*
X73082000Y-51229440D03*
X73082000Y-56380560D03*
D22*
X63938000Y-49400640D03*
X63938000Y-54399360D03*
D23*
X96196000Y-48090000D03*
X96196000Y-60790000D03*
X96196000Y-72474000D03*
D18*
X91753540Y-69934000D03*
X91753540Y-71204000D03*
X91753540Y-72474000D03*
X91753540Y-75014000D03*
X91753540Y-76284000D03*
X91753540Y-77554000D03*
D19*
X81151580Y-73744000D03*
D18*
X91753540Y-57107000D03*
X91753540Y-58377000D03*
X91753540Y-59647000D03*
X91753540Y-62187000D03*
X91753540Y-63457000D03*
X91753540Y-64727000D03*
D19*
X81151580Y-60917000D03*
D24*
X44186960Y-58087440D03*
X44684800Y-58087440D03*
X45185180Y-58087440D03*
X45685560Y-58087440D03*
X46185940Y-58087440D03*
D25*
X53686560Y-60088960D03*
X53686560Y-60586800D03*
X53686560Y-61087180D03*
X53686560Y-61587560D03*
X53686560Y-62087940D03*
D24*
X51685040Y-69588560D03*
X51187200Y-69588560D03*
X50686820Y-69588560D03*
X50186440Y-69588560D03*
X49686060Y-69588560D03*
D25*
X42185440Y-67587040D03*
X42185440Y-67089200D03*
X42185440Y-66588820D03*
X42185440Y-66088440D03*
X42185440Y-65588060D03*
D24*
X46686320Y-58087440D03*
X47186700Y-58087440D03*
X47687080Y-58087440D03*
D25*
X53686560Y-62588320D03*
X53686560Y-63088700D03*
X53686560Y-63589080D03*
D24*
X49185680Y-69588560D03*
X48685300Y-69588560D03*
X48184920Y-69588560D03*
D25*
X42185440Y-65087680D03*
X42185440Y-64587300D03*
X42185440Y-64086920D03*
D24*
X48184920Y-58087440D03*
X48685300Y-58087440D03*
X49185680Y-58087440D03*
X49686060Y-58087440D03*
X50186440Y-58087440D03*
X50686820Y-58087440D03*
X51187200Y-58087440D03*
X51685040Y-58087440D03*
D25*
X53686560Y-64086920D03*
X53686560Y-64587300D03*
X53686560Y-65087680D03*
X53686560Y-65588060D03*
X53686560Y-66088440D03*
X53686560Y-66588820D03*
X53686560Y-67089200D03*
X53686560Y-67587040D03*
D24*
X47687080Y-69588560D03*
X47186700Y-69588560D03*
X46686320Y-69588560D03*
X46185940Y-69588560D03*
X45685560Y-69588560D03*
X45185180Y-69588560D03*
X44684800Y-69588560D03*
X44186960Y-69588560D03*
D25*
X42185440Y-61087180D03*
X42185440Y-60586800D03*
X42185440Y-60088960D03*
X42185440Y-63589080D03*
X42185440Y-63088700D03*
X42185440Y-62588320D03*
X42185440Y-62087940D03*
X42185440Y-61587560D03*
D26*
X63176000Y-64854000D03*
D27*
X67176500Y-58158560D03*
X67176500Y-58656400D03*
X67176500Y-59156780D03*
X67176500Y-59657160D03*
X67176500Y-60157540D03*
X67176500Y-60657920D03*
X67176500Y-61158300D03*
X67176500Y-61656140D03*
X59175500Y-71656120D03*
X59175500Y-71158280D03*
X59175500Y-70657900D03*
X59175500Y-70157520D03*
X59175500Y-63157280D03*
X59175500Y-62656900D03*
X59175500Y-62156520D03*
X59175500Y-61656140D03*
X59175500Y-61158300D03*
X59175500Y-60657920D03*
X59175500Y-60157540D03*
X59175500Y-59657160D03*
X59175500Y-59156780D03*
X59175500Y-58656400D03*
X59175500Y-58158560D03*
X59175500Y-69657140D03*
X59175500Y-69156760D03*
X59175500Y-68656380D03*
X59175500Y-68158540D03*
X59175500Y-67658160D03*
X59175500Y-67157780D03*
X59175500Y-66657400D03*
X67176500Y-70157520D03*
X59175500Y-65656640D03*
X59175500Y-65156260D03*
X59175500Y-64658420D03*
X59175500Y-64158040D03*
X59175500Y-63657660D03*
X67176500Y-67658160D03*
X67176500Y-68158540D03*
X67176500Y-68656380D03*
X67176500Y-69156760D03*
X67176500Y-69657140D03*
X59175500Y-66157020D03*
X67176500Y-70657900D03*
X67176500Y-71158280D03*
X67176500Y-71656120D03*
X67176500Y-62156520D03*
X67176500Y-62656900D03*
X67176500Y-63157280D03*
X67176500Y-63657660D03*
X67176500Y-64158040D03*
X67176500Y-64658420D03*
X67176500Y-65156260D03*
X67176500Y-65656640D03*
X67176500Y-66157020D03*
X67176500Y-66657400D03*
X67176500Y-67157780D03*
D28*
X72955000Y-62187000D03*
X72955000Y-58885000D03*
X75495000Y-62187000D03*
X75495000Y-58885000D03*
D29*
X64954000Y-73998000D03*
X61652000Y-73998000D03*
D30*
X76130000Y-78824000D03*
X76130000Y-77300000D03*
D31*
X50730000Y-74760000D03*
X49206000Y-74760000D03*
D30*
X58604000Y-50884000D03*
X58604000Y-49360000D03*
X58604000Y-53424000D03*
X58604000Y-51900000D03*
X55302000Y-58758000D03*
X55302000Y-57234000D03*
D31*
X55556000Y-60028000D03*
X57080000Y-60028000D03*
D30*
X68764000Y-56853000D03*
X68764000Y-55329000D03*
D31*
X95942000Y-77808000D03*
X94418000Y-77808000D03*
X88322000Y-67394000D03*
X89846000Y-67394000D03*
X89465000Y-54440000D03*
X90989000Y-54440000D03*
X71558000Y-69807000D03*
X73082000Y-69807000D03*
X71558000Y-71331000D03*
X73082000Y-71331000D03*
X71558000Y-72855000D03*
X73082000Y-72855000D03*
X71558000Y-74379000D03*
X73082000Y-74379000D03*
D30*
X51450000Y-50638000D03*
X51450000Y-52162000D03*
X53000000Y-50638000D03*
X53000000Y-52162000D03*
X56500000Y-48238000D03*
X56500000Y-49762000D03*
D32*
X49855000Y-54467000D03*
X48585000Y-54467000D03*
X47315000Y-54467000D03*
X49855000Y-49133000D03*
X48585000Y-49133000D03*
X47315000Y-49133000D03*
X46045000Y-54467000D03*
X46045000Y-49133000D03*
D33*
X49200000Y-45700000D03*
X53200000Y-45700000D03*
D34*
X46850000Y-42925000D03*
X55550000Y-42925000D03*
D35*
X46650000Y-46000000D03*
X55750000Y-46000000D03*
D36*
X52800000Y-47200000D03*
X52000000Y-47200000D03*
X51200000Y-47200000D03*
X50400000Y-47200000D03*
X49600000Y-47200000D03*
D37*
X60981440Y-77300000D03*
D38*
X64984480Y-77300000D03*
X62982960Y-77300000D03*
X66983460Y-77300000D03*
X68984980Y-77300000D03*
X70986500Y-77300000D03*
X72985480Y-77300000D03*
D31*
X47288000Y-56000000D03*
X48812000Y-56000000D03*
X51746000Y-74760000D03*
X53270000Y-74760000D03*
D30*
X70288000Y-74252000D03*
X70288000Y-72728000D03*
X41840000Y-59139000D03*
X41840000Y-57615000D03*
X70288000Y-71458000D03*
X70288000Y-69934000D03*
X70923000Y-66378000D03*
X70923000Y-67902000D03*
X73590000Y-63965000D03*
X73590000Y-65489000D03*
X70796000Y-61679000D03*
X70796000Y-63203000D03*
X69526000Y-58631000D03*
X69526000Y-60155000D03*
X57080000Y-71839000D03*
X57080000Y-73363000D03*
X56318000Y-66251000D03*
X56318000Y-64727000D03*
D31*
X55302000Y-55964000D03*
X56826000Y-55964000D03*
D30*
X56826000Y-58758000D03*
X56826000Y-57234000D03*
D31*
X52508000Y-56091000D03*
X50984000Y-56091000D03*
X57080000Y-61552000D03*
X55556000Y-61552000D03*
D39*
X46950815Y-74663815D03*
D40*
G36*
X46322197Y-74843420D02*
G01*
X47130420Y-74035197D01*
X47579433Y-74484210D01*
X46771210Y-75292433D01*
X46322197Y-74843420D01*
X46322197Y-74843420D01*
G37*
D39*
X45873185Y-73586185D03*
D40*
G36*
X45244567Y-73765790D02*
G01*
X46052790Y-72957567D01*
X46501803Y-73406580D01*
X45693580Y-74214803D01*
X45244567Y-73765790D01*
X45244567Y-73765790D01*
G37*
D31*
X52127000Y-71331000D03*
X53651000Y-71331000D03*
D41*
X26710000Y-69470000D03*
X26710000Y-60070000D03*
D42*
X26250000Y-64770000D03*
D40*
G36*
X33174503Y-63421204D02*
G01*
X33198772Y-63424804D01*
X33222570Y-63430765D01*
X33245670Y-63439030D01*
X33267849Y-63449520D01*
X33288892Y-63462133D01*
X33308598Y-63476748D01*
X33326776Y-63493224D01*
X33343252Y-63511402D01*
X33357867Y-63531108D01*
X33370480Y-63552151D01*
X33380970Y-63574330D01*
X33389235Y-63597430D01*
X33395196Y-63621228D01*
X33398796Y-63645497D01*
X33400000Y-63670001D01*
X33400000Y-65869999D01*
X33398796Y-65894503D01*
X33395196Y-65918772D01*
X33389235Y-65942570D01*
X33380970Y-65965670D01*
X33370480Y-65987849D01*
X33357867Y-66008892D01*
X33343252Y-66028598D01*
X33326776Y-66046776D01*
X33308598Y-66063252D01*
X33288892Y-66077867D01*
X33267849Y-66090480D01*
X33245670Y-66100970D01*
X33222570Y-66109235D01*
X33198772Y-66115196D01*
X33174503Y-66118796D01*
X33149999Y-66120000D01*
X30350001Y-66120000D01*
X30325497Y-66118796D01*
X30301228Y-66115196D01*
X30277430Y-66109235D01*
X30254330Y-66100970D01*
X30232151Y-66090480D01*
X30211108Y-66077867D01*
X30191402Y-66063252D01*
X30173224Y-66046776D01*
X30156748Y-66028598D01*
X30142133Y-66008892D01*
X30129520Y-65987849D01*
X30119030Y-65965670D01*
X30110765Y-65942570D01*
X30104804Y-65918772D01*
X30101204Y-65894503D01*
X30100000Y-65869999D01*
X30100000Y-63670001D01*
X30101204Y-63645497D01*
X30104804Y-63621228D01*
X30110765Y-63597430D01*
X30119030Y-63574330D01*
X30129520Y-63552151D01*
X30142133Y-63531108D01*
X30156748Y-63511402D01*
X30173224Y-63493224D01*
X30191402Y-63476748D01*
X30211108Y-63462133D01*
X30232151Y-63449520D01*
X30254330Y-63439030D01*
X30277430Y-63430765D01*
X30301228Y-63424804D01*
X30325497Y-63421204D01*
X30350001Y-63420000D01*
X33149999Y-63420000D01*
X33174503Y-63421204D01*
X33174503Y-63421204D01*
G37*
D43*
X31750000Y-64770000D03*
D40*
G36*
X33174503Y-48181204D02*
G01*
X33198772Y-48184804D01*
X33222570Y-48190765D01*
X33245670Y-48199030D01*
X33267849Y-48209520D01*
X33288892Y-48222133D01*
X33308598Y-48236748D01*
X33326776Y-48253224D01*
X33343252Y-48271402D01*
X33357867Y-48291108D01*
X33370480Y-48312151D01*
X33380970Y-48334330D01*
X33389235Y-48357430D01*
X33395196Y-48381228D01*
X33398796Y-48405497D01*
X33400000Y-48430001D01*
X33400000Y-50629999D01*
X33398796Y-50654503D01*
X33395196Y-50678772D01*
X33389235Y-50702570D01*
X33380970Y-50725670D01*
X33370480Y-50747849D01*
X33357867Y-50768892D01*
X33343252Y-50788598D01*
X33326776Y-50806776D01*
X33308598Y-50823252D01*
X33288892Y-50837867D01*
X33267849Y-50850480D01*
X33245670Y-50860970D01*
X33222570Y-50869235D01*
X33198772Y-50875196D01*
X33174503Y-50878796D01*
X33149999Y-50880000D01*
X30350001Y-50880000D01*
X30325497Y-50878796D01*
X30301228Y-50875196D01*
X30277430Y-50869235D01*
X30254330Y-50860970D01*
X30232151Y-50850480D01*
X30211108Y-50837867D01*
X30191402Y-50823252D01*
X30173224Y-50806776D01*
X30156748Y-50788598D01*
X30142133Y-50768892D01*
X30129520Y-50747849D01*
X30119030Y-50725670D01*
X30110765Y-50702570D01*
X30104804Y-50678772D01*
X30101204Y-50654503D01*
X30100000Y-50629999D01*
X30100000Y-48430001D01*
X30101204Y-48405497D01*
X30104804Y-48381228D01*
X30110765Y-48357430D01*
X30119030Y-48334330D01*
X30129520Y-48312151D01*
X30142133Y-48291108D01*
X30156748Y-48271402D01*
X30173224Y-48253224D01*
X30191402Y-48236748D01*
X30211108Y-48222133D01*
X30232151Y-48209520D01*
X30254330Y-48199030D01*
X30277430Y-48190765D01*
X30301228Y-48184804D01*
X30325497Y-48181204D01*
X30350001Y-48180000D01*
X33149999Y-48180000D01*
X33174503Y-48181204D01*
X33174503Y-48181204D01*
G37*
D43*
X31750000Y-49530000D03*
D42*
X26250000Y-49530000D03*
D41*
X26710000Y-44830000D03*
X26710000Y-54230000D03*
D44*
G36*
X94182839Y-58443560D02*
G01*
X94197903Y-58463383D01*
X94216544Y-58479885D01*
X94238047Y-58492434D01*
X94261584Y-58500546D01*
X94291000Y-58504000D01*
X98101000Y-58504000D01*
X98101000Y-63203000D01*
X94164000Y-63203000D01*
X94139224Y-63205440D01*
X94115399Y-63212667D01*
X94093553Y-63224330D01*
X93363548Y-63711000D01*
X90354000Y-63711000D01*
X90354000Y-56853000D01*
X93204033Y-56853000D01*
X94182839Y-58443560D01*
X94182839Y-58443560D01*
G37*
X94182839Y-58443560D02*
X94197903Y-58463383D01*
X94216544Y-58479885D01*
X94238047Y-58492434D01*
X94261584Y-58500546D01*
X94291000Y-58504000D01*
X98101000Y-58504000D01*
X98101000Y-63203000D01*
X94164000Y-63203000D01*
X94139224Y-63205440D01*
X94115399Y-63212667D01*
X94093553Y-63224330D01*
X93363548Y-63711000D01*
X90354000Y-63711000D01*
X90354000Y-56853000D01*
X93204033Y-56853000D01*
X94182839Y-58443560D01*
G36*
X94638584Y-70056525D02*
G01*
X94672000Y-70061000D01*
X98101000Y-70061000D01*
X98101000Y-74887000D01*
X94672000Y-74887000D01*
X94647224Y-74889440D01*
X94623399Y-74896667D01*
X94601443Y-74908403D01*
X94582197Y-74924197D01*
X94566330Y-74943553D01*
X94315386Y-75319969D01*
X93340961Y-76538000D01*
X90354000Y-76538000D01*
X90354000Y-69680000D01*
X93257992Y-69680000D01*
X94638584Y-70056525D01*
X94638584Y-70056525D01*
G37*
X94638584Y-70056525D02*
X94672000Y-70061000D01*
X98101000Y-70061000D01*
X98101000Y-74887000D01*
X94672000Y-74887000D01*
X94647224Y-74889440D01*
X94623399Y-74896667D01*
X94601443Y-74908403D01*
X94582197Y-74924197D01*
X94566330Y-74943553D01*
X94315386Y-75319969D01*
X93340961Y-76538000D01*
X90354000Y-76538000D01*
X90354000Y-69680000D01*
X93257992Y-69680000D01*
X94638584Y-70056525D01*
G36*
X94694347Y-45621949D02*
G01*
X94710394Y-45640984D01*
X94729847Y-45656521D01*
X94751957Y-45667966D01*
X94775875Y-45674877D01*
X94799000Y-45677000D01*
X98101000Y-45677000D01*
X98101000Y-50503000D01*
X90354000Y-50503000D01*
X90354000Y-43645000D01*
X93335195Y-43645000D01*
X94694347Y-45621949D01*
X94694347Y-45621949D01*
G37*
X94694347Y-45621949D02*
X94710394Y-45640984D01*
X94729847Y-45656521D01*
X94751957Y-45667966D01*
X94775875Y-45674877D01*
X94799000Y-45677000D01*
X98101000Y-45677000D01*
X98101000Y-50503000D01*
X90354000Y-50503000D01*
X90354000Y-43645000D01*
X93335195Y-43645000D01*
X94694347Y-45621949D01*
G36*
X77146000Y-51773000D02*
G01*
X70542000Y-51773000D01*
X70542000Y-47074000D01*
X70539560Y-47049224D01*
X70532333Y-47025399D01*
X70520597Y-47003443D01*
X70504803Y-46984197D01*
X70485557Y-46968403D01*
X70463601Y-46956667D01*
X70439776Y-46949440D01*
X70415000Y-46947000D01*
X67875000Y-46947000D01*
X67875000Y-42502000D01*
X77146000Y-42502000D01*
X77146000Y-51773000D01*
X77146000Y-51773000D01*
G37*
X77146000Y-51773000D02*
X70542000Y-51773000D01*
X70542000Y-47074000D01*
X70539560Y-47049224D01*
X70532333Y-47025399D01*
X70520597Y-47003443D01*
X70504803Y-46984197D01*
X70485557Y-46968403D01*
X70463601Y-46956667D01*
X70439776Y-46949440D01*
X70415000Y-46947000D01*
X67875000Y-46947000D01*
X67875000Y-42502000D01*
X77146000Y-42502000D01*
X77146000Y-51773000D01*
G36*
X86671000Y-55403394D02*
G01*
X84967394Y-57107000D01*
X77527000Y-57107000D01*
X77527000Y-55837000D01*
X78924000Y-55837000D01*
X78948776Y-55834560D01*
X78972601Y-55827333D01*
X78994557Y-55815597D01*
X79013803Y-55799803D01*
X79029597Y-55780557D01*
X79041333Y-55758601D01*
X79048560Y-55734776D01*
X79051000Y-55710000D01*
X79051000Y-53932000D01*
X79048560Y-53907224D01*
X79041333Y-53883399D01*
X79029597Y-53861443D01*
X79013803Y-53842197D01*
X77960606Y-52789000D01*
X86671000Y-52789000D01*
X86671000Y-55403394D01*
X86671000Y-55403394D01*
G37*
X86671000Y-55403394D02*
X84967394Y-57107000D01*
X77527000Y-57107000D01*
X77527000Y-55837000D01*
X78924000Y-55837000D01*
X78948776Y-55834560D01*
X78972601Y-55827333D01*
X78994557Y-55815597D01*
X79013803Y-55799803D01*
X79029597Y-55780557D01*
X79041333Y-55758601D01*
X79048560Y-55734776D01*
X79051000Y-55710000D01*
X79051000Y-53932000D01*
X79048560Y-53907224D01*
X79041333Y-53883399D01*
X79029597Y-53861443D01*
X79013803Y-53842197D01*
X77960606Y-52789000D01*
X86671000Y-52789000D01*
X86671000Y-55403394D01*
G36*
X86417000Y-67855019D02*
G01*
X84961587Y-69553000D01*
X78797000Y-69553000D01*
X78797000Y-66251000D01*
X86417000Y-66251000D01*
X86417000Y-67855019D01*
X86417000Y-67855019D01*
G37*
X86417000Y-67855019D02*
X84961587Y-69553000D01*
X78797000Y-69553000D01*
X78797000Y-66251000D01*
X86417000Y-66251000D01*
X86417000Y-67855019D01*
M02*
