G04 #@! TF.GenerationSoftware,KiCad,Pcbnew,(5.1.0)-1*
G04 #@! TF.CreationDate,2020-02-16T21:22:29+11:00*
G04 #@! TF.ProjectId,BLDC_4,424c4443-5f34-42e6-9b69-6361645f7063,A*
G04 #@! TF.SameCoordinates,Original*
G04 #@! TF.FileFunction,Soldermask,Bot*
G04 #@! TF.FilePolarity,Negative*
%FSLAX46Y46*%
G04 Gerber Fmt 4.6, Leading zero omitted, Abs format (unit mm)*
G04 Created by KiCad (PCBNEW (5.1.0)-1) date 2020-02-16 21:22:29*
%MOMM*%
%LPD*%
G04 APERTURE LIST*
%ADD10C,4.000000*%
%ADD11C,3.250000*%
%ADD12C,2.895000*%
%ADD13C,1.268000*%
%ADD14R,1.268000X1.268000*%
%ADD15R,1.800860X3.500120*%
%ADD16C,1.300480*%
%ADD17O,1.198880X1.699260*%
%ADD18R,1.198880X1.699260*%
%ADD19R,0.889000X2.540000*%
%ADD20R,5.588000X2.540000*%
%ADD21R,1.699260X2.540000*%
%ADD22R,1.198880X1.800860*%
%ADD23O,3.048000X1.524000*%
%ADD24R,1.950720X2.499360*%
%ADD25R,1.849120X5.499100*%
%ADD26R,0.797560X0.797560*%
%ADD27R,5.000000X4.000000*%
%ADD28R,3.200400X0.899160*%
%ADD29R,8.150860X10.800080*%
%ADD30R,2.032000X1.524000*%
%ADD31R,0.635000X1.143000*%
%ADD32R,1.143000X0.635000*%
%ADD33R,1.016000X2.032000*%
%ADD34R,3.657600X2.032000*%
%ADD35C,1.000000*%
%ADD36R,1.300000X1.300000*%
%ADD37C,1.300000*%
%ADD38C,0.635000*%
%ADD39C,0.150000*%
%ADD40C,3.000000*%
%ADD41O,3.300000X2.700000*%
%ADD42C,2.700000*%
%ADD43C,0.254000*%
G04 APERTURE END LIST*
D10*
X111760000Y-88900000D03*
X111760000Y-44450000D03*
X21590000Y-44450000D03*
D11*
X25644999Y-77720001D03*
X25644999Y-89150001D03*
D12*
X22594999Y-75310001D03*
X22594999Y-91560001D03*
D13*
X34534999Y-87880001D03*
X31994999Y-86610001D03*
X34534999Y-85340001D03*
X31994999Y-84070001D03*
X34534999Y-82800001D03*
X31994999Y-81530001D03*
X34534999Y-80260001D03*
D14*
X31994999Y-78990001D03*
D15*
X65970000Y-47495640D03*
X65970000Y-52494360D03*
D16*
X41800000Y-45098740D03*
X41800000Y-47100260D03*
X41800000Y-55101260D03*
X41800000Y-53099740D03*
X41800000Y-51100760D03*
X41800000Y-49099240D03*
D17*
X65273740Y-43450000D03*
X61273240Y-43450000D03*
X63274760Y-43450000D03*
D18*
X59271720Y-43450000D03*
D16*
X52746760Y-77300000D03*
X50745240Y-77300000D03*
X48746260Y-77300000D03*
X46744740Y-77300000D03*
X54745740Y-77300000D03*
X56747260Y-77300000D03*
D19*
X69208500Y-70442000D03*
X69208500Y-65362000D03*
D20*
X73336000Y-70442000D03*
X73336000Y-65362000D03*
D19*
X69462500Y-55710000D03*
X69462500Y-50630000D03*
D20*
X73590000Y-55710000D03*
X73590000Y-50630000D03*
D21*
X45904000Y-75092740D03*
X45904000Y-71633260D03*
D22*
X44146320Y-63832920D03*
X46645680Y-63832920D03*
X46645680Y-60033080D03*
X44146320Y-60033080D03*
D23*
X42602000Y-76792000D03*
X42602000Y-74252000D03*
X42602000Y-71712000D03*
D24*
X56826000Y-43391000D03*
X53778000Y-43391000D03*
X59176000Y-46000000D03*
X62224000Y-46000000D03*
D25*
X63719560Y-73490000D03*
X58568440Y-73490000D03*
D26*
X56559300Y-74887000D03*
X55060700Y-74887000D03*
X56549300Y-73450000D03*
X55050700Y-73450000D03*
X56549300Y-72050000D03*
X55050700Y-72050000D03*
D27*
X70923000Y-44661000D03*
X73336000Y-60536000D03*
D28*
X78413460Y-69934000D03*
X78413460Y-71204000D03*
X78413460Y-72474000D03*
X78413460Y-75014000D03*
X78413460Y-76284000D03*
X78413460Y-77554000D03*
D29*
X89015420Y-73744000D03*
D28*
X78413460Y-57107000D03*
X78413460Y-58377000D03*
X78413460Y-59647000D03*
X78413460Y-62187000D03*
X78413460Y-63457000D03*
X78413460Y-64727000D03*
D29*
X89015420Y-60917000D03*
D28*
X78413460Y-44026000D03*
X78413460Y-45296000D03*
X78413460Y-46566000D03*
X78413460Y-49106000D03*
X78413460Y-50376000D03*
X78413460Y-51646000D03*
D29*
X89015420Y-47836000D03*
D30*
X62700000Y-68851000D03*
X62700000Y-65549000D03*
X67240000Y-71839000D03*
X67240000Y-68537000D03*
X66732000Y-58631000D03*
X66732000Y-55329000D03*
X62795000Y-60790000D03*
X62795000Y-57488000D03*
X60382000Y-60790000D03*
X60382000Y-57488000D03*
D31*
X52138000Y-48200000D03*
X53662000Y-48200000D03*
X50762000Y-48200000D03*
X49238000Y-48200000D03*
X45904000Y-69426000D03*
X47428000Y-69426000D03*
D32*
X49700000Y-42488000D03*
X49700000Y-44012000D03*
D31*
X45396000Y-46312000D03*
X43872000Y-46312000D03*
X45396000Y-49360000D03*
X43872000Y-49360000D03*
X45396000Y-52408000D03*
X43872000Y-52408000D03*
X45396000Y-55456000D03*
X43872000Y-55456000D03*
X45396000Y-53932000D03*
X43872000Y-53932000D03*
X45396000Y-50884000D03*
X43872000Y-50884000D03*
X45396000Y-47836000D03*
X43872000Y-47836000D03*
D32*
X57334000Y-57996000D03*
X57334000Y-56472000D03*
D31*
X52238000Y-72100000D03*
X53762000Y-72100000D03*
D32*
X50476000Y-52027000D03*
X50476000Y-50503000D03*
X50950000Y-54938000D03*
X50950000Y-56462000D03*
X52000000Y-52027000D03*
X52000000Y-50503000D03*
X52450000Y-54938000D03*
X52450000Y-56462000D03*
X75876000Y-76284000D03*
X75876000Y-77808000D03*
D31*
X83623000Y-67394000D03*
X82099000Y-67394000D03*
D32*
X53550000Y-52012000D03*
X53550000Y-50488000D03*
X53950000Y-54938000D03*
X53950000Y-56462000D03*
D31*
X76892000Y-67394000D03*
X78416000Y-67394000D03*
X79432000Y-67394000D03*
X80956000Y-67394000D03*
X52238000Y-75100000D03*
X53762000Y-75100000D03*
X52238000Y-73600000D03*
X53762000Y-73600000D03*
X77400000Y-54186000D03*
X78924000Y-54186000D03*
X80194000Y-54186000D03*
X81718000Y-54186000D03*
D32*
X46666000Y-44788000D03*
X46666000Y-46312000D03*
D33*
X58350000Y-48598000D03*
X62922000Y-48598000D03*
X60636000Y-48598000D03*
D34*
X60636000Y-55202000D03*
D35*
X49200000Y-45700000D03*
X53200000Y-45700000D03*
D36*
X60981440Y-77300000D03*
D37*
X64984480Y-77300000D03*
X62982960Y-77300000D03*
X66983460Y-77300000D03*
X68984980Y-77300000D03*
X70986500Y-77300000D03*
X72985480Y-77300000D03*
D32*
X59112000Y-64727000D03*
X59112000Y-63203000D03*
D31*
X56953000Y-70442000D03*
X55429000Y-70442000D03*
D32*
X48190000Y-62568000D03*
X48190000Y-64092000D03*
X43237000Y-56726000D03*
X43237000Y-58250000D03*
X45142000Y-67775000D03*
X45142000Y-66251000D03*
D31*
X56826000Y-48090000D03*
X55302000Y-48090000D03*
X56953000Y-68918000D03*
X55429000Y-68918000D03*
D32*
X57715000Y-64727000D03*
X57715000Y-63203000D03*
D31*
X54921000Y-60663000D03*
X53397000Y-60663000D03*
X53762000Y-70600000D03*
X52238000Y-70600000D03*
D32*
X48190000Y-61298000D03*
X48190000Y-59774000D03*
D31*
X53397000Y-59012000D03*
X54921000Y-59012000D03*
X47962000Y-49350000D03*
X46438000Y-49350000D03*
X47962000Y-53900000D03*
X46438000Y-53900000D03*
X47936000Y-55456000D03*
X46412000Y-55456000D03*
X43872000Y-44788000D03*
X45396000Y-44788000D03*
D38*
X49175185Y-74475185D03*
D39*
G36*
X49803803Y-74295580D02*
G01*
X48995580Y-75103803D01*
X48546567Y-74654790D01*
X49354790Y-73846567D01*
X49803803Y-74295580D01*
X49803803Y-74295580D01*
G37*
D38*
X50252815Y-75552815D03*
D39*
G36*
X50881433Y-75373210D02*
G01*
X50073210Y-76181433D01*
X49624197Y-75732420D01*
X50432420Y-74924197D01*
X50881433Y-75373210D01*
X50881433Y-75373210D01*
G37*
D31*
X50476000Y-46693000D03*
X52000000Y-46693000D03*
D40*
X26710000Y-69470000D03*
X26710000Y-60070000D03*
D41*
X26250000Y-64770000D03*
D39*
G36*
X33174503Y-63421204D02*
G01*
X33198772Y-63424804D01*
X33222570Y-63430765D01*
X33245670Y-63439030D01*
X33267849Y-63449520D01*
X33288892Y-63462133D01*
X33308598Y-63476748D01*
X33326776Y-63493224D01*
X33343252Y-63511402D01*
X33357867Y-63531108D01*
X33370480Y-63552151D01*
X33380970Y-63574330D01*
X33389235Y-63597430D01*
X33395196Y-63621228D01*
X33398796Y-63645497D01*
X33400000Y-63670001D01*
X33400000Y-65869999D01*
X33398796Y-65894503D01*
X33395196Y-65918772D01*
X33389235Y-65942570D01*
X33380970Y-65965670D01*
X33370480Y-65987849D01*
X33357867Y-66008892D01*
X33343252Y-66028598D01*
X33326776Y-66046776D01*
X33308598Y-66063252D01*
X33288892Y-66077867D01*
X33267849Y-66090480D01*
X33245670Y-66100970D01*
X33222570Y-66109235D01*
X33198772Y-66115196D01*
X33174503Y-66118796D01*
X33149999Y-66120000D01*
X30350001Y-66120000D01*
X30325497Y-66118796D01*
X30301228Y-66115196D01*
X30277430Y-66109235D01*
X30254330Y-66100970D01*
X30232151Y-66090480D01*
X30211108Y-66077867D01*
X30191402Y-66063252D01*
X30173224Y-66046776D01*
X30156748Y-66028598D01*
X30142133Y-66008892D01*
X30129520Y-65987849D01*
X30119030Y-65965670D01*
X30110765Y-65942570D01*
X30104804Y-65918772D01*
X30101204Y-65894503D01*
X30100000Y-65869999D01*
X30100000Y-63670001D01*
X30101204Y-63645497D01*
X30104804Y-63621228D01*
X30110765Y-63597430D01*
X30119030Y-63574330D01*
X30129520Y-63552151D01*
X30142133Y-63531108D01*
X30156748Y-63511402D01*
X30173224Y-63493224D01*
X30191402Y-63476748D01*
X30211108Y-63462133D01*
X30232151Y-63449520D01*
X30254330Y-63439030D01*
X30277430Y-63430765D01*
X30301228Y-63424804D01*
X30325497Y-63421204D01*
X30350001Y-63420000D01*
X33149999Y-63420000D01*
X33174503Y-63421204D01*
X33174503Y-63421204D01*
G37*
D42*
X31750000Y-64770000D03*
D39*
G36*
X33174503Y-48181204D02*
G01*
X33198772Y-48184804D01*
X33222570Y-48190765D01*
X33245670Y-48199030D01*
X33267849Y-48209520D01*
X33288892Y-48222133D01*
X33308598Y-48236748D01*
X33326776Y-48253224D01*
X33343252Y-48271402D01*
X33357867Y-48291108D01*
X33370480Y-48312151D01*
X33380970Y-48334330D01*
X33389235Y-48357430D01*
X33395196Y-48381228D01*
X33398796Y-48405497D01*
X33400000Y-48430001D01*
X33400000Y-50629999D01*
X33398796Y-50654503D01*
X33395196Y-50678772D01*
X33389235Y-50702570D01*
X33380970Y-50725670D01*
X33370480Y-50747849D01*
X33357867Y-50768892D01*
X33343252Y-50788598D01*
X33326776Y-50806776D01*
X33308598Y-50823252D01*
X33288892Y-50837867D01*
X33267849Y-50850480D01*
X33245670Y-50860970D01*
X33222570Y-50869235D01*
X33198772Y-50875196D01*
X33174503Y-50878796D01*
X33149999Y-50880000D01*
X30350001Y-50880000D01*
X30325497Y-50878796D01*
X30301228Y-50875196D01*
X30277430Y-50869235D01*
X30254330Y-50860970D01*
X30232151Y-50850480D01*
X30211108Y-50837867D01*
X30191402Y-50823252D01*
X30173224Y-50806776D01*
X30156748Y-50788598D01*
X30142133Y-50768892D01*
X30129520Y-50747849D01*
X30119030Y-50725670D01*
X30110765Y-50702570D01*
X30104804Y-50678772D01*
X30101204Y-50654503D01*
X30100000Y-50629999D01*
X30100000Y-48430001D01*
X30101204Y-48405497D01*
X30104804Y-48381228D01*
X30110765Y-48357430D01*
X30119030Y-48334330D01*
X30129520Y-48312151D01*
X30142133Y-48291108D01*
X30156748Y-48271402D01*
X30173224Y-48253224D01*
X30191402Y-48236748D01*
X30211108Y-48222133D01*
X30232151Y-48209520D01*
X30254330Y-48199030D01*
X30277430Y-48190765D01*
X30301228Y-48184804D01*
X30325497Y-48181204D01*
X30350001Y-48180000D01*
X33149999Y-48180000D01*
X33174503Y-48181204D01*
X33174503Y-48181204D01*
G37*
D42*
X31750000Y-49530000D03*
D41*
X26250000Y-49530000D03*
D40*
X26710000Y-44830000D03*
X26710000Y-54230000D03*
D43*
G36*
X80067000Y-50503000D02*
G01*
X73463000Y-50503000D01*
X73463000Y-48904606D01*
X75711803Y-46655803D01*
X75727597Y-46636557D01*
X75739333Y-46614601D01*
X75746560Y-46590776D01*
X75749000Y-46566000D01*
X75749000Y-43391000D01*
X80067000Y-43391000D01*
X80067000Y-50503000D01*
X80067000Y-50503000D01*
G37*
X80067000Y-50503000D02*
X73463000Y-50503000D01*
X73463000Y-48904606D01*
X75711803Y-46655803D01*
X75727597Y-46636557D01*
X75739333Y-46614601D01*
X75746560Y-46590776D01*
X75749000Y-46566000D01*
X75749000Y-43391000D01*
X80067000Y-43391000D01*
X80067000Y-50503000D01*
G36*
X81337000Y-70494606D02*
G01*
X81337000Y-75215394D01*
X80395394Y-76157000D01*
X77198606Y-76157000D01*
X73209000Y-72167394D01*
X73209000Y-69680000D01*
X80522394Y-69680000D01*
X81337000Y-70494606D01*
X81337000Y-70494606D01*
G37*
X81337000Y-70494606D02*
X81337000Y-75215394D01*
X80395394Y-76157000D01*
X77198606Y-76157000D01*
X73209000Y-72167394D01*
X73209000Y-69680000D01*
X80522394Y-69680000D01*
X81337000Y-70494606D01*
G36*
X77654000Y-63584000D02*
G01*
X76130000Y-63584000D01*
X76105224Y-63586440D01*
X76081399Y-63593667D01*
X76059443Y-63605403D01*
X76040197Y-63621197D01*
X76024403Y-63640443D01*
X76012667Y-63662399D01*
X76005440Y-63686224D01*
X76003000Y-63711000D01*
X76003000Y-64092000D01*
X71050000Y-64092000D01*
X71050000Y-56980000D01*
X77654000Y-56980000D01*
X77654000Y-63584000D01*
X77654000Y-63584000D01*
G37*
X77654000Y-63584000D02*
X76130000Y-63584000D01*
X76105224Y-63586440D01*
X76081399Y-63593667D01*
X76059443Y-63605403D01*
X76040197Y-63621197D01*
X76024403Y-63640443D01*
X76012667Y-63662399D01*
X76005440Y-63686224D01*
X76003000Y-63711000D01*
X76003000Y-64092000D01*
X71050000Y-64092000D01*
X71050000Y-56980000D01*
X77654000Y-56980000D01*
X77654000Y-63584000D01*
M02*
